<svg width="137" height="42" viewBox="0 0 137 42" fill="none" xmlns="http://www.w3.org/2000/svg">
<path d="M18.8655 34.3586L2.92545 18.4288C1.03373 16.5371 0 14.0355 0 11.3685C0 8.72212 1.02339 6.2205 2.90478 4.33911C4.7965 2.44739 7.29812 1.40332 9.97548 1.40332C12.6528 1.40332 15.1545 2.44739 17.0462 4.33911C17.8008 5.09373 18.421 5.95173 18.8862 6.88208C20.5402 3.64651 23.8998 1.41366 27.7763 1.40332C30.464 1.40332 32.9759 2.44739 34.8573 4.33911C36.7284 6.2205 37.7621 8.72212 37.7518 11.3788C37.7621 14.0251 36.7284 16.5268 34.8367 18.4288L18.8862 34.3689L18.8655 34.3586Z" fill="#82D2F5"/>
<path d="M34.6299 22.6359L18.8552 6.88184L3.08047 22.6462C1.20942 24.5172 0.186029 26.9982 0.196367 29.6135C0.196367 32.2392 1.19908 34.7098 3.0598 36.5705C4.92051 38.4416 7.41179 39.4753 10.0685 39.4856C13.9139 39.4856 17.1909 37.4389 18.8242 34.379C20.3024 37.3665 23.3312 39.1652 27.5902 39.4753C27.8073 39.4856 28.014 39.496 28.2207 39.496C30.5776 39.496 32.8312 38.5346 34.5678 36.7876C36.4492 34.8959 37.5346 32.2805 37.5243 29.6135C37.5243 26.9775 36.5009 24.5069 34.6299 22.6255V22.6359ZM33.0689 35.299C31.7251 36.6429 29.9988 37.3872 28.2207 37.3872C28.0657 37.3872 27.9003 37.3872 27.7452 37.3665C23.9721 37.0977 21.4808 35.4644 20.4574 32.7457L18.8242 34.3583L17.2425 32.7767C16.0951 35.4851 13.3454 37.3562 10.0685 37.3562C7.98034 37.3562 6.0266 36.5395 4.5587 35.0716C3.10114 33.6141 2.30517 31.6706 2.31551 29.6032C2.31551 27.5461 3.11148 25.6027 4.57938 24.1244L18.8655 9.85898L33.1413 24.1244C34.6092 25.5923 35.4155 27.5461 35.4155 29.6135C35.4155 31.7223 34.5678 33.7898 33.0793 35.2887L33.0689 35.299Z" fill="#007DC3"/>
<path d="M57.4442 1.72363L65.0628 18.0565H63.2951L60.7211 12.6812H53.6814L51.1384 18.0565H49.3191L57.041 1.72363H57.4442ZM57.2374 5.19696L54.436 11.1099H60.0182L57.2374 5.19696Z" fill="#007DC3"/>
<path d="M67.0992 1.30957H68.6498V18.056H67.0992V1.30957Z" fill="#007DC3"/>
<path d="M71.658 1.30957H73.2086V18.056H71.658V1.30957Z" fill="#007DC3"/>
<path d="M76.9817 1C77.3332 1 77.6329 1.12405 77.8914 1.38248C78.1498 1.64091 78.2635 1.94069 78.2635 2.29216C78.2635 2.64363 78.1395 2.94341 77.8914 3.1915C77.6433 3.4396 77.3435 3.57398 76.9817 3.57398C76.6199 3.57398 76.3408 3.44994 76.0823 3.1915C75.8239 2.93307 75.7102 2.64363 75.7102 2.29216C75.7102 1.94069 75.8343 1.63057 76.0823 1.38248C76.3304 1.13438 76.6302 1 76.9817 1ZM76.2064 5.97223H77.757V18.0565H76.2064V5.97223Z" fill="#007DC3"/>
<path d="M93.0356 5.97223V18.0565H91.5056V15.9787C90.8544 16.7747 90.1204 17.3639 89.3141 17.7671C88.5078 18.1702 87.6188 18.3666 86.6574 18.3666C84.9518 18.3666 83.4839 17.7464 82.2744 16.5059C81.065 15.2654 80.4551 13.7562 80.4551 11.9782C80.4551 10.2002 81.065 8.75296 82.2848 7.51248C83.5046 6.27201 84.9725 5.66211 86.6885 5.66211C87.6808 5.66211 88.5802 5.86886 89.3762 6.29268C90.1721 6.71651 90.8854 7.34709 91.4953 8.19474V5.97223H93.0252H93.0356ZM86.8228 7.16102C85.9545 7.16102 85.1585 7.3781 84.4246 7.80193C83.6907 8.22576 83.1118 8.82532 82.6776 9.59028C82.2434 10.3552 82.0263 11.1719 82.0263 12.0299C82.0263 12.8879 82.2434 13.6942 82.6776 14.4695C83.1118 15.2448 83.701 15.8547 84.4349 16.2785C85.1689 16.7127 85.9649 16.9298 86.8022 16.9298C87.6395 16.9298 88.4561 16.7127 89.2211 16.2888C89.9861 15.8547 90.5649 15.2758 90.9784 14.5522C91.3919 13.8182 91.5987 12.9912 91.5987 12.0816C91.5987 10.686 91.1335 9.51792 90.2135 8.57723C89.2935 7.63653 88.1564 7.17135 86.8125 7.17135L86.8228 7.16102Z" fill="#007DC3"/>
<path d="M96.5295 5.97182H98.0801V8.13231C98.7004 7.30533 99.393 6.68509 100.148 6.2716C100.902 5.85811 101.729 5.65137 102.608 5.65137C103.487 5.65137 104.314 5.87879 105.016 6.34397C105.719 6.79881 106.236 7.41904 106.567 8.19434C106.898 8.96963 107.063 10.1791 107.063 11.8227V18.0458H105.513V12.2776C105.513 10.882 105.451 9.95168 105.337 9.4865C105.161 8.69053 104.81 8.08063 104.303 7.67747C103.797 7.27432 103.125 7.07791 102.308 7.07791C101.367 7.07791 100.53 7.38803 99.7858 8.00827C99.0415 8.6285 98.5556 9.4038 98.3179 10.3135C98.1732 10.913 98.1008 12.0088 98.1008 13.6007V18.0354H96.5502V5.95115L96.5295 5.97182Z" fill="#007DC3"/>
<path d="M122.125 8.48419L120.894 9.24915C119.83 7.83294 118.372 7.13 116.532 7.13C115.064 7.13 113.834 7.60552 112.862 8.54621C111.891 9.49724 111.405 10.6447 111.405 11.9989C111.405 12.8775 111.632 13.7045 112.077 14.4798C112.521 15.2551 113.142 15.8547 113.917 16.2888C114.692 16.723 115.571 16.9298 116.542 16.9298C118.32 16.9298 119.768 16.2268 120.894 14.8106L122.125 15.6169C121.546 16.4852 120.77 17.1572 119.799 17.643C118.827 18.1185 117.721 18.3666 116.47 18.3666C114.558 18.3666 112.976 17.7567 111.715 16.5473C110.454 15.3378 109.823 13.8596 109.823 12.1126C109.823 10.9445 110.113 9.85905 110.702 8.85633C111.291 7.85361 112.097 7.06798 113.131 6.50977C114.165 5.95155 115.312 5.66211 116.584 5.66211C117.38 5.66211 118.155 5.78616 118.899 6.02391C119.644 6.27201 120.274 6.58213 120.791 6.97495C121.308 7.36776 121.752 7.86395 122.114 8.47385L122.125 8.48419Z" fill="#007DC3"/>
<path d="M135.284 14.0456L136.597 14.7382C136.163 15.5859 135.666 16.2682 135.108 16.785C134.55 17.3019 133.909 17.6947 133.206 17.9635C132.503 18.2322 131.707 18.3666 130.818 18.3666C128.844 18.3666 127.304 17.7257 126.198 16.4232C125.081 15.1311 124.533 13.6735 124.533 12.0402C124.533 10.5103 125.009 9.14578 125.949 7.94665C127.138 6.41673 128.74 5.66211 130.736 5.66211C132.731 5.66211 134.436 6.44774 135.666 8.00867C136.545 9.11476 136.99 10.4896 137 12.1436H126.125C126.156 13.5495 126.601 14.6969 127.469 15.5962C128.337 16.4956 129.412 16.9401 130.684 16.9401C131.304 16.9401 131.893 16.8367 132.483 16.6196C133.072 16.4025 133.558 16.1234 133.971 15.772C134.374 15.4205 134.819 14.852 135.294 14.056L135.284 14.0456ZM135.284 10.7894C135.077 9.96242 134.777 9.30083 134.374 8.80464C133.971 8.30846 133.454 7.9053 132.803 7.60552C132.152 7.30574 131.47 7.15068 130.746 7.15068C129.557 7.15068 128.544 7.53316 127.686 8.29812C127.066 8.85633 126.59 9.68331 126.27 10.7997H135.274L135.284 10.7894Z" fill="#007DC3"/>
<path d="M50.3219 37.3572V24.7354H50.601L59.0052 34.4111V24.7354H60.2457V37.3572H59.9666L51.6347 27.7952V37.3572H50.3322H50.3219Z" fill="#82D2F5"/>
<path d="M63.1401 28.0221H64.3392V32.3844C64.3392 33.4491 64.4013 34.1831 64.515 34.5759C64.6907 35.1444 65.0111 35.5993 65.497 35.9301C65.9829 36.2609 66.5617 36.4263 67.2233 36.4263C67.8849 36.4263 68.4638 36.2609 68.929 35.9404C69.3942 35.62 69.7146 35.1961 69.9007 34.6689C70.0247 34.3071 70.0764 33.5422 70.0764 32.3741V28.0117H71.3066V32.5911C71.3066 33.8833 71.1515 34.8447 70.8517 35.4959C70.5519 36.1472 70.0971 36.6537 69.4975 37.0258C68.898 37.398 68.133 37.584 67.2233 37.584C66.3137 37.584 65.5487 37.398 64.9491 37.0258C64.3392 36.6537 63.8844 36.1368 63.5846 35.4856C63.2848 34.824 63.1298 33.8316 63.1298 32.5084V28.0117L63.1401 28.0221Z" fill="#82D2F5"/>
<path d="M73.6945 28.0225H74.9246V29.387C75.2864 28.8495 75.6792 28.4463 76.0824 28.1776C76.4855 27.9088 76.9094 27.7744 77.3539 27.7744C77.6847 27.7744 78.0361 27.8778 78.4186 28.0949L77.788 29.1079C77.5399 28.9942 77.3229 28.9425 77.1575 28.9425C76.7543 28.9425 76.3718 29.1079 75.9997 29.4387C75.6275 29.7695 75.3484 30.276 75.152 30.9686C75.0073 31.4958 74.9246 32.5709 74.9246 34.1939V37.3467H73.6945V28.0122V28.0225Z" fill="#82D2F5"/>
<path d="M84.3109 29.0455L83.5356 29.8415C82.8947 29.2212 82.2641 28.9111 81.6542 28.9111C81.2614 28.9111 80.9306 29.0352 80.6515 29.2936C80.3724 29.552 80.238 29.8518 80.238 30.1929C80.238 30.4927 80.3518 30.7822 80.5792 31.0613C80.8066 31.3404 81.2924 31.6712 82.0264 32.0433C82.9257 32.5085 83.5253 32.953 83.8457 33.3768C84.1662 33.811 84.3213 34.2968 84.3213 34.8447C84.3213 35.6097 84.0525 36.2609 83.515 36.7881C82.9774 37.3153 82.3055 37.5841 81.4992 37.5841C80.9617 37.5841 80.4448 37.4704 79.9589 37.2326C79.4731 36.9949 79.0596 36.6744 78.7391 36.2609L79.4938 35.4029C80.1037 36.0955 80.7549 36.4367 81.4475 36.4367C81.9334 36.4367 82.3365 36.2816 82.6776 35.9715C83.0188 35.6614 83.1842 35.2996 83.1842 34.8861C83.1842 34.5449 83.0705 34.2348 82.8534 33.966C82.626 33.7076 82.1298 33.3665 81.3441 32.9737C80.4965 32.5395 79.9279 32.1053 79.6281 31.6815C79.3284 31.2577 79.1733 30.7718 79.1733 30.2343C79.1733 29.521 79.4111 28.9318 79.8969 28.4666C80.3828 28.0014 80.9927 27.7637 81.7369 27.7637C82.5949 27.7637 83.4633 28.1875 84.3316 29.0248L84.3109 29.0455Z" fill="#82D2F5"/>
<path d="M87.0296 24.1768C87.2984 24.1768 87.5362 24.2698 87.7326 24.4662C87.929 24.6626 88.022 24.9004 88.022 25.1691C88.022 25.4379 87.929 25.6653 87.7326 25.8617C87.5362 26.0581 87.3088 26.1512 87.0296 26.1512C86.7505 26.1512 86.5335 26.0581 86.3371 25.8617C86.1406 25.6653 86.0476 25.4379 86.0476 25.1691C86.0476 24.9004 86.1406 24.6626 86.3371 24.4662C86.5335 24.2698 86.7609 24.1768 87.0296 24.1768ZM86.4301 28.0222H87.6292V37.3568H86.4301V28.0222Z" fill="#82D2F5"/>
<path d="M90.3065 28.0229H91.5056V29.6976C91.9812 29.0566 92.5187 28.5811 93.0976 28.2607C93.6765 27.9402 94.3174 27.7852 94.9996 27.7852C95.6819 27.7852 96.3228 27.9609 96.8604 28.3124C97.3979 28.6638 97.8011 29.1497 98.0595 29.7492C98.3179 30.3488 98.442 31.2895 98.442 32.5506V37.3575H97.2428V32.9021C97.2428 31.827 97.2015 31.1138 97.1085 30.752C96.9741 30.1317 96.7053 29.6665 96.3125 29.3564C95.9197 29.0463 95.4028 28.8912 94.7722 28.8912C94.0486 28.8912 93.3974 29.129 92.8185 29.6149C92.2396 30.1007 91.8675 30.6899 91.6814 31.4032C91.5677 31.8684 91.5056 32.716 91.5056 33.9462V37.3678H90.3065V28.0332V28.0229Z" fill="#82D2F5"/>
<path d="M109.244 28.0229H110.444V35.4658C110.444 36.7786 110.33 37.7296 110.102 38.3395C109.792 39.1975 109.244 39.8591 108.469 40.3243C107.694 40.7895 106.753 41.0169 105.668 41.0169C104.872 41.0169 104.148 40.9032 103.507 40.6758C102.866 40.4483 102.349 40.1485 101.946 39.7661C101.543 39.3836 101.171 38.8254 100.84 38.0914H102.143C102.494 38.7117 102.959 39.1665 103.518 39.4663C104.076 39.7661 104.779 39.9108 105.606 39.9108C106.433 39.9108 107.115 39.7557 107.683 39.456C108.252 39.1562 108.645 38.7634 108.893 38.3085C109.131 37.8433 109.255 37.0991 109.255 36.0757V35.6001C108.8 36.1687 108.252 36.6132 107.601 36.913C106.95 37.2231 106.257 37.3678 105.523 37.3678C104.665 37.3678 103.859 37.1507 103.104 36.7269C102.349 36.3031 101.76 35.7242 101.357 35.0006C100.944 34.277 100.737 33.4913 100.737 32.623C100.737 31.7547 100.954 30.9587 101.378 30.2041C101.812 29.4598 102.401 28.8706 103.156 28.4364C103.91 28.0022 104.717 27.7852 105.554 27.7852C106.257 27.7852 106.908 27.9299 107.508 28.2193C108.107 28.5088 108.697 28.9843 109.255 29.6459V28.0229H109.244ZM105.699 28.9429C105.016 28.9429 104.386 29.1083 103.807 29.4391C103.228 29.7699 102.763 30.2248 102.432 30.8036C102.101 31.3825 101.936 32.0131 101.936 32.685C101.936 33.7084 102.277 34.5561 102.97 35.228C103.652 35.8999 104.541 36.2307 105.637 36.2307C106.732 36.2307 107.632 35.8999 108.304 35.2383C108.976 34.5768 109.306 33.6981 109.306 32.623C109.306 31.9201 109.151 31.2895 108.841 30.7416C108.531 30.1937 108.097 29.7492 107.528 29.4288C106.96 29.1083 106.35 28.9533 105.699 28.9533V28.9429Z" fill="#82D2F5"/>
<path d="M116.046 31.4951C117.659 31.4951 118.982 32.8183 118.982 34.4309C118.982 36.0435 117.659 37.3564 116.046 37.3564C114.434 37.3564 113.121 36.0435 113.121 34.4309C113.121 32.8183 114.434 31.4951 116.046 31.4951ZM116.046 36.8705C117.4 36.8705 118.486 35.7748 118.486 34.4309C118.486 33.0871 117.4 31.9913 116.046 31.9913C114.692 31.9913 113.607 33.0767 113.607 34.4309C113.607 35.7851 114.702 36.8705 116.046 36.8705ZM115.023 33.0871C115.023 33.0044 115.085 32.932 115.178 32.932H116.336C116.842 32.932 117.338 33.2318 117.338 33.8417C117.338 34.4516 116.904 34.6687 116.677 34.7307C116.842 35.0511 117.008 35.3716 117.163 35.6921C117.225 35.7851 117.142 35.9091 117.028 35.9091H116.749C116.687 35.9091 116.625 35.8471 116.605 35.7954L116.15 34.772H115.55V35.7541C115.55 35.8368 115.488 35.9091 115.395 35.9091H115.188C115.095 35.9091 115.033 35.8368 115.033 35.7541V33.0767L115.023 33.0871ZM116.336 34.3069C116.636 34.3069 116.822 34.1001 116.822 33.8417C116.822 33.5626 116.636 33.3765 116.336 33.3765H115.54V34.3069H116.336Z" fill="#82D2F5"/>
</svg>
