<?xml version="1.0" encoding="UTF-8"?>
<svg xmlns="http://www.w3.org/2000/svg" viewBox="0 0 307.5 70.39">
  <defs>
    <style>.cls-1{fill:#00a4e4;}.cls-2{fill:#455560;}.cls-3{fill:#95a2ac;}</style>
  </defs>
  <g id="Layer_2" data-name="Layer 2">
    <g id="Layer_1-2" data-name="Layer 1">
      <path class="cls-1" d="M23.31,30.29c0,1.41.3,2,1.36,2a8.08,8.08,0,0,0,1.42-.1v4a14.63,14.63,0,0,1-3.64.66c-2.32,0-4-.81-4.45-3.19-2.27,2.23-6,3.19-9,3.19C4.25,36.81,0,34.28,0,29.17,0,22.65,5.21,21.59,10.06,21c4.15-.76,7.84-.3,7.84-3.69,0-3-3.09-3.54-5.41-3.54C9.25,13.8,7,15.12,6.72,18H1c.4-6.73,6.12-8.7,11.88-8.7,5.11,0,10.47,2.07,10.47,7.58V30.29ZM17.55,23c-1.77,1.16-4.56,1.11-7.08,1.56s-4.71,1.32-4.71,4.35c0,2.58,3.29,3.34,5.31,3.34,2.53,0,6.48-1.32,6.48-5Z"></path>
      <path class="cls-1" d="M52.48,36.1H46.82V32.46h-.1a8.78,8.78,0,0,1-7.44,4.35c-6.82,0-9.75-3.44-9.75-10.27V10h5.76V26c0,4.6,1.87,6.27,5,6.27,4.8,0,6.42-3.09,6.42-7.13V10h5.76Z"></path>
      <path class="cls-1" d="M62.89,27.71c.31,3.33,2.84,4.55,5.92,4.55,2.17,0,6-.46,5.82-3.44s-4.35-3.39-8.55-4.35-8.4-2.42-8.4-7.73c0-5.72,6.17-7.49,10.93-7.49,5.36,0,10.21,2.23,10.92,8h-6c-.5-2.73-2.78-3.49-5.31-3.49-1.67,0-4.75.41-4.75,2.68,0,2.84,4.25,3.24,8.49,4.2s8.45,2.48,8.45,7.64c0,6.22-6.27,8.49-11.68,8.49-6.57,0-11.48-2.93-11.58-9.1Z"></path>
      <path class="cls-1" d="M89.13,27.71c.3,3.33,2.83,4.55,5.92,4.55,2.17,0,6-.46,5.81-3.44s-4.35-3.39-8.54-4.35-8.4-2.42-8.4-7.73c0-5.72,6.17-7.49,10.92-7.49,5.36,0,10.22,2.23,10.93,8h-6c-.51-2.73-2.78-3.49-5.31-3.49-1.67,0-4.75.41-4.75,2.68,0,2.84,4.25,3.24,8.49,4.2s8.45,2.48,8.45,7.64c0,6.22-6.27,8.49-11.68,8.49-6.58,0-11.48-2.93-11.58-9.1Z"></path>
      <path class="cls-1" d="M111.17,0h5.77V5.46h-5.77V0Zm0,10h5.77V36.1h-5.77V10Z"></path>
      <path class="cls-1" d="M127.71,24.52c0,4.1,2.22,7.74,7,7.74,3.33,0,5.35-1.47,6.37-4.35h5.46c-1.27,5.71-6.12,8.9-11.84,8.9-8.19,0-12.79-5.72-12.79-13.76,0-7.43,4.86-13.8,12.64-13.8,8.25,0,13.3,7.43,12.34,15.27Zm13.45-3.79c-.21-3.64-2.68-6.93-6.58-6.93s-6.72,3-6.87,6.93Z"></path>
      <path class="cls-2" d="M151.37,0h3.18V36.1h-3.18Z"></path>
      <path class="cls-2" d="M184,23.06c0,7.48-4.35,13.8-12.34,13.8s-12.33-6.32-12.33-13.8S163.7,9.25,171.69,9.25,184,15.57,184,23.06Zm-21.49,0c0,5.56,3,11.12,9.15,11.12s9.15-5.56,9.15-11.12-3-11.13-9.15-11.13S162.54,17.49,162.54,23.06Z"></path>
      <path class="cls-2" d="M207.18,18.2c-.86-3.89-3.23-6.27-7.38-6.27-6.12,0-9.15,5.56-9.15,11.13s3,11.12,9.15,11.12c3.94,0,7.18-3.08,7.58-7.43h3.19c-.86,6.27-4.95,10.11-10.77,10.11-8,0-12.33-6.32-12.33-13.81s4.34-13.8,12.33-13.8c5.56,0,9.86,3,10.57,9Z"></path>
      <path class="cls-2" d="M236.15,36.1h-2.93V31.4h-.1a9.71,9.71,0,0,1-9,5.46C217.54,36.86,215,33,215,27V10h3.18V27c.15,4.7,1.92,7.18,7,7.18,5.46,0,7.84-5.16,7.84-10.47V10h3.18V36.1Z"></path>
      <path class="cls-2" d="M242.16,10h2.94v4.4h.15a9.11,9.11,0,0,1,8.55-5.16c3.43,0,6.52,1.67,7.48,5.11a8.81,8.81,0,0,1,8.29-5.11c5.71,0,8.65,3,8.65,9.15V36.1H275V18.56c0-4.3-1.62-6.63-6.17-6.63-5.51,0-7.08,4.55-7.08,9.41V36.1H258.6V18.41c0-3.54-1.42-6.48-5.46-6.48-5.52,0-7.74,4.15-7.79,9.61V36.1h-3.19V10Z"></path>
      <path class="cls-2" d="M299.9,17.65c-.15-3.95-3.18-5.72-6.82-5.72-2.83,0-6.17,1.11-6.17,4.5,0,2.83,3.23,3.84,5.41,4.4l4.25,1c3.64.55,7.43,2.68,7.43,7.23,0,5.66-5.62,7.84-10.47,7.84-6.07,0-10.21-2.83-10.72-9.2H286c.25,4.29,3.44,6.52,7.68,6.52,3,0,7.13-1.32,7.13-5,0-3-2.83-4-5.71-4.75l-4.1-.91c-4.14-1.11-7.28-2.53-7.28-7,0-5.31,5.21-7.33,9.81-7.33,5.21,0,9.36,2.73,9.56,8.4Z"></path>
      <path class="cls-3" d="M91.8,60.3c-.32-.63-.19-3.59-.17-4.71,0-.62,0-1.25-.29-1.44-.12-.09-1,1.27-1.76,3.4-1.06,2.88-1.14,4.21-1.69,4-.78-.19-.73-.61-.8-2.83-.08-2.65-.1-4.06-.31-4.19-.39-.26-1.43,2.56-1.79,5.08-.22,1.43.14,1.46-.27,1.75a.92.92,0,0,1-1.2-.15c-.25-.48.12-4.2.16-4.82.13-1.42-.12-2.37,0-2.69a.75.75,0,0,1,1.21-.17,1.5,1.5,0,0,1,.34.56c.43-.87,1.09-2.16,1.66-2.21.34,0,.83.41,1,.81s.32,1.46.44,4c.72-1.64,2-4.54,3.06-4.75.46-.09,1.19.8,1.33,1.35A43.37,43.37,0,0,1,93,59c0,.4.26,1,.09,1.29A.72.72,0,0,1,91.8,60.3Z"></path>
      <path class="cls-3" d="M102.21,58.12c-.44.28-4.1,3.88-6,2.88a4.44,4.44,0,0,1-2-4.46c.58-3,4.47-4.72,6.54-3.28.2.14-.5,2-2.39,3a6.91,6.91,0,0,1-2.67.72,2.62,2.62,0,0,0,.38,1.84c.25.49.6.91,1.19.87,1.3,0,3.74-2.27,3.91-2.54s.58-1.15,1.2-.68A1.05,1.05,0,0,1,102.21,58.12Zm-4.88-3.59a4.26,4.26,0,0,0-1.21,1A8,8,0,0,0,97.59,55a8.27,8.27,0,0,0,1.48-1A4.73,4.73,0,0,0,97.33,54.53Z"></path>
      <path class="cls-3" d="M110.43,56.81c.26.09.63.26.7.62.19.89-.27,1-1,1.27,0,.61,0,2.15-.56,2-.8-.13-.84-.6-.91-1.14-1,.71-4.47,2.77-5.7,1-1.81-2.69,2.31-7.15,4.27-6.75a2.65,2.65,0,0,1,1.91,1.48c.2-1.88.67-6.18.58-6.49-.19-1,0-1.64.44-1.63a1.23,1.23,0,0,1,1,1.69C111.08,49.2,110.57,54,110.43,56.81Zm-3.27-1.44c-1.52-.36-3.94,3.13-3,4.23s2.66-.63,4.31-1.71C108.38,57.32,108.08,55.57,107.16,55.37Z"></path>
      <path class="cls-3" d="M114,48.84c-.29.76-.17,1.1-.37,1.29a.56.56,0,0,1-.82.11,2.31,2.31,0,0,1,.08-2.18c.41-1,.38-1.4.91-1.4a.76.76,0,0,1,.68.91A8.52,8.52,0,0,1,114,48.84Zm0,9.67c-.08,1.54.36,1.18.14,2a.71.71,0,0,1-1.21.28c-.39-.34-.27-2.26-.13-5.58,0-1.19.13-2.38.78-2.42.46,0,.9.42.84,1.15C114.42,54.46,114.1,57.78,114.06,58.51Z"></path>
      <path class="cls-3" d="M115.74,60.15c-1.45-2,2-7,3.91-7.33,1.7-.28,1.41,1.18.56,1.81-.27.21-.63-.1-1,0s-3.65,3.71-2,4.83,6.79-2.79,7-2.86a.64.64,0,0,1,.87.76C125,57.62,117.84,63.12,115.74,60.15Z"></path>
      <path class="cls-3" d="M128.84,60.83a.72.72,0,0,1-.11-.19c-.69.42-2.41,1.33-3.32.26-1.06-1.21.21-4.22,1.9-4.51a1.72,1.72,0,0,1,1.84,1.18,5.45,5.45,0,0,0-.46-3.15,1.17,1.17,0,0,0-2-.13c0,.34-1.09.41-1.14-.33,0-1,2.23-2.16,3.44-1.33,2.92,2,1,8.18.82,8.29A.66.66,0,0,1,128.84,60.83Zm-1.29-3c-1,.1-1.52,1.88-1.2,2.07.58.38,1.62-.48,2-.8C128.25,58.69,128,57.78,127.55,57.81Z"></path>
      <path class="cls-3" d="M133.77,53.92a41.89,41.89,0,0,0-.24,6.74c0,.64-.1,2.18-1.23,1.31-.51-.38-.1-7,.18-10.36.2-2.58.39-4.46.61-4.67s.67-.47,1.19.16C134.64,47.53,134.39,48.22,133.77,53.92Z"></path>
      <path class="cls-3" d="M148.7,54c-.32.08-.58-.4-1.16,0A14.21,14.21,0,0,0,144,58.25c-.63,1.1-.4,2.52-.63,2.86a.75.75,0,0,1-1.23,0c-.36-.42,0-1.51.06-3.73.19-4.1-.44-4.23-.25-4.52a.73.73,0,0,1,1.23-.21c.29.31.39.78.42,2.07,0,.68,0,1,0,1.48a19,19,0,0,1,1.85-2.26c.83-.87,1.79-2.08,3.39-1.44C149.18,52.61,149.71,53.7,148.7,54Z"></path>
      <path class="cls-3" d="M156.62,58.12c-.45.28-4.1,3.88-6,2.88a4.4,4.4,0,0,1-2-4.46c.58-3,4.47-4.72,6.53-3.28.21.14-.49,2-2.39,3a6.88,6.88,0,0,1-2.66.72,2.57,2.57,0,0,0,.38,1.84c.25.49.6.91,1.19.87,1.3,0,3.74-2.27,3.91-2.54s.58-1.15,1.19-.68A1,1,0,0,1,156.62,58.12Zm-4.88-3.59a4.1,4.1,0,0,0-1.21,1A8,8,0,0,0,152,55a8.13,8.13,0,0,0,1.49-1A4.69,4.69,0,0,0,151.74,54.53Z"></path>
      <path class="cls-3" d="M157.45,60.15c-1.45-2,2-7,3.91-7.33,1.71-.28,1.42,1.18.57,1.81-.28.21-.64-.1-1,0s-3.65,3.71-2,4.83,6.79-2.79,7-2.86c.54-.25.95.3.87.76C166.75,57.62,159.55,63.12,157.45,60.15Z"></path>
      <path class="cls-3" d="M174,54c-.32.08-.58-.4-1.16,0a14.21,14.21,0,0,0-3.51,4.29c-.63,1.1-.4,2.52-.63,2.86a.75.75,0,0,1-1.23,0c-.36-.42,0-1.51.07-3.73.18-4.1-.45-4.23-.26-4.52a.73.73,0,0,1,1.23-.21c.29.31.39.78.42,2.07,0,.68,0,1,0,1.48a20.08,20.08,0,0,1,1.85-2.26c.83-.87,1.79-2.08,3.39-1.44C174.48,52.61,175,53.7,174,54Z"></path>
      <path class="cls-3" d="M177.65,60.79c-2.71,1.29-2.93-6.75-2.93-7.49s.36-1,.73-.95a.91.91,0,0,1,.72,1c-.14,3.83.51,6.71,1.19,5.4a13.23,13.23,0,0,0,1-4.78c0-.41.05-1,.82-.95.61,0,.71,1,.71,1C179.77,54.78,178.75,60.28,177.65,60.79Z"></path>
      <path class="cls-3" d="M182.65,48.84c-.28.76-.17,1.1-.37,1.29a.56.56,0,0,1-.82.11,2.33,2.33,0,0,1,.09-2.18c.41-1,.37-1.4.9-1.4a.76.76,0,0,1,.68.91A8.52,8.52,0,0,1,182.65,48.84Zm0,9.67c-.09,1.54.36,1.18.14,2a.72.72,0,0,1-1.22.28c-.39-.34-.27-2.26-.13-5.58.05-1.19.13-2.38.78-2.42.46,0,.91.42.84,1.15C183.05,54.46,182.72,57.78,182.69,58.51Z"></path>
      <path class="cls-3" d="M191.14,53.34a12.67,12.67,0,0,0-2.61.37,48.44,48.44,0,0,0-.35,6.46c0,.24.36,1.42-.66,1.34-.72-.06-.84-1.08-.84-1.34,0-.86,0-2,.19-4,.1-1.12.15-1.56.22-2.12a5.66,5.66,0,0,0-1,.42c-.85.43-1.11.81-1.35.75a.87.87,0,0,1-.68-1c.1-.32.12-.55,1.21-1a13.62,13.62,0,0,1,2.07-.75c.06-.46.25-1.79.39-3.46,0-.55-.09-1.85.61-1.85.48,0,.92.6.74,2.69-.09,1-.19,1.38-.31,2.29a11.73,11.73,0,0,1,2.4-.15c.46,0,1.2.12,1.25.76S191.53,53.34,191.14,53.34Z"></path>
      <path class="cls-3" d="M200.57,60.3c-.32-.63-.19-3.59-.17-4.71,0-.62,0-1.25-.29-1.44-.12-.09-1,1.27-1.76,3.4-1.06,2.88-1.14,4.21-1.69,4-.78-.19-.73-.61-.8-2.83-.09-2.65-.1-4.06-.31-4.19-.39-.26-1.43,2.56-1.79,5.08-.22,1.43.14,1.46-.27,1.75a.91.91,0,0,1-1.19-.15c-.26-.48.12-4.2.15-4.82.14-1.42-.12-2.37.05-2.69a.75.75,0,0,1,1.21-.17,1.5,1.5,0,0,1,.34.56c.43-.87,1.1-2.16,1.66-2.21.34,0,.83.41,1,.81s.33,1.46.44,4c.72-1.64,2-4.54,3.06-4.75.46-.09,1.19.8,1.33,1.35a41.88,41.88,0,0,1,.19,5.73c0,.4.25,1,.08,1.29A.72.72,0,0,1,200.57,60.3Z"></path>
      <path class="cls-3" d="M211,58.12c-.44.28-4.1,3.88-6,2.88a4.42,4.42,0,0,1-2-4.46c.58-3,4.47-4.72,6.54-3.28.2.14-.5,2-2.39,3a6.91,6.91,0,0,1-2.67.72,2.62,2.62,0,0,0,.38,1.84c.26.49.6.91,1.19.87,1.3,0,3.74-2.27,3.91-2.54s.58-1.15,1.2-.68A1.05,1.05,0,0,1,211,58.12Zm-4.88-3.59a4.1,4.1,0,0,0-1.21,1,7.72,7.72,0,0,0,1.46-.48,8.13,8.13,0,0,0,1.49-1A4.73,4.73,0,0,0,206.1,54.53Z"></path>
      <path class="cls-3" d="M216.27,60.54c.1-.3-.21-1.25-.17-3.56a4.13,4.13,0,0,0-.18-1.9c-.27-.21-1.12,1.56-1.87,3.82-.56,1.64-.58,2.14-.8,2.33a.69.69,0,0,1-1-.21c-.26-.4-.06-1.31,0-4.53.05-1.81.19-3.19.22-3.46.14-1.06,1.11-.68,1.38-.26s0,1.15,0,2.73a.93.93,0,0,1,0,.23c.7-1.41,1.92-3.64,2.75-3.47s1.08,2.4,1.08,5.42a16.14,16.14,0,0,0,0,2.56c.21.49.48,1.25,0,1.63S215.94,61.65,216.27,60.54Z"></path>
      <path class="cls-3" d="M225.29,53.34a12.77,12.77,0,0,0-2.61.37,50.58,50.58,0,0,0-.34,6.46c0,.24.36,1.42-.66,1.34-.72-.06-.84-1.08-.84-1.34,0-.86,0-2,.19-4,.1-1.12.15-1.56.22-2.12a5.66,5.66,0,0,0-1,.42c-.85.43-1.11.81-1.35.75a.87.87,0,0,1-.68-1c.1-.32.12-.55,1.21-1a13.91,13.91,0,0,1,2.06-.75c.07-.46.26-1.79.4-3.46,0-.55-.09-1.85.61-1.85.48,0,.92.6.74,2.69-.09,1-.19,1.38-.31,2.29a11.73,11.73,0,0,1,2.4-.15c.46,0,1.2.12,1.25.76S225.69,53.34,225.29,53.34Z"></path>
      <path class="cls-3" d="M241.62,60.3c-.32-.63-.19-3.59-.17-4.71,0-.62,0-1.25-.29-1.44-.12-.09-1,1.27-1.76,3.4-1.06,2.88-1.14,4.21-1.68,4-.79-.19-.74-.61-.81-2.83-.08-2.65-.1-4.06-.3-4.19-.4-.26-1.44,2.56-1.8,5.08-.22,1.43.14,1.46-.27,1.75a.91.91,0,0,1-1.19-.15c-.26-.48.12-4.2.15-4.82.14-1.42-.12-2.37.05-2.69a.75.75,0,0,1,1.21-.17,1.39,1.39,0,0,1,.34.56c.43-.87,1.1-2.16,1.66-2.21.34,0,.84.41,1,.81s.33,1.46.45,4c.71-1.64,2-4.54,3.05-4.75.46-.09,1.2.8,1.33,1.35A41.88,41.88,0,0,1,242.8,59c0,.4.25,1,.08,1.29A.72.72,0,0,1,241.62,60.3Z"></path>
      <path class="cls-3" d="M247.83,60.83a1.22,1.22,0,0,1-.12-.19c-.68.42-2.4,1.33-3.31.26-1.06-1.21.21-4.22,1.9-4.51a1.73,1.73,0,0,1,1.84,1.18,5.45,5.45,0,0,0-.46-3.15,1.17,1.17,0,0,0-2.05-.13c0,.34-1.09.41-1.14-.33-.05-1,2.23-2.16,3.44-1.33,2.92,2,1,8.18.82,8.29A.66.66,0,0,1,247.83,60.83Zm-1.29-3c-1,.1-1.52,1.88-1.2,2.07.58.38,1.62-.48,2-.8C247.23,58.69,247,57.78,246.54,57.81Z"></path>
      <path class="cls-3" d="M258.27,56.81c.26.09.63.26.7.62.19.89-.27,1-1,1.27,0,.61,0,2.15-.57,2-.8-.13-.84-.6-.9-1.14-1.06.71-4.47,2.77-5.7,1-1.81-2.69,2.3-7.15,4.26-6.75A2.62,2.62,0,0,1,257,55.29c.21-1.88.67-6.18.58-6.49-.18-1,0-1.64.45-1.63a1.23,1.23,0,0,1,1,1.69C258.92,49.2,258.41,54,258.27,56.81ZM255,55.37c-1.52-.36-3.94,3.13-3,4.23s2.66-.63,4.31-1.71C256.23,57.32,255.92,55.57,255,55.37Z"></path>
      <path class="cls-3" d="M267.69,58.12c-.44.28-4.1,3.88-6,2.88a4.44,4.44,0,0,1-2-4.46c.58-3,4.47-4.72,6.54-3.28.2.14-.5,2-2.39,3a6.92,6.92,0,0,1-2.66.72,2.54,2.54,0,0,0,.37,1.84c.26.49.6.91,1.19.87,1.3,0,3.74-2.27,3.91-2.54s.58-1.15,1.2-.68A1.05,1.05,0,0,1,267.69,58.12Zm-4.88-3.59a4.26,4.26,0,0,0-1.21,1,8,8,0,0,0,1.47-.48,8.27,8.27,0,0,0,1.48-1A4.73,4.73,0,0,0,262.81,54.53Z"></path>
      <path class="cls-3" d="M283.47,58.12c-.44.28-4.09,3.88-6,2.88a4.43,4.43,0,0,1-2-4.46c.59-3,4.48-4.72,6.54-3.28.21.14-.49,2-2.39,3a6.88,6.88,0,0,1-2.66.72,2.57,2.57,0,0,0,.38,1.84c.25.49.59.91,1.19.87,1.3,0,3.74-2.27,3.91-2.54s.58-1.15,1.19-.68A1,1,0,0,1,283.47,58.12Zm-4.88-3.59a4.26,4.26,0,0,0-1.21,1,8,8,0,0,0,1.47-.48,8.13,8.13,0,0,0,1.49-1A4.76,4.76,0,0,0,278.59,54.53Z"></path>
      <path class="cls-3" d="M288.07,60.83a.55.55,0,0,1-.12-.19c-.69.42-2.41,1.33-3.31.26-1.06-1.21.2-4.22,1.89-4.51a1.72,1.72,0,0,1,1.84,1.18,5.37,5.37,0,0,0-.46-3.15,1.17,1.17,0,0,0-2.05-.13c0,.34-1.09.41-1.14-.33-.05-1,2.24-2.16,3.45-1.33,2.92,2,1,8.18.82,8.29A.66.66,0,0,1,288.07,60.83Zm-1.3-3c-1,.1-1.52,1.88-1.2,2.07.58.38,1.63-.48,2-.8C287.47,58.69,287.18,57.78,286.77,57.81Z"></path>
      <path class="cls-3" d="M296.07,52.48c-.32,0-.51-.23-.65-.23-.53,0-.68.44-1.95,1.69a3.48,3.48,0,0,0-1.09,2.34c.16,1.08,1,1.17,2.06,1.59s2.07.74,2.21,2c.08.85-3,2.75-3.35,2.79a.79.79,0,0,1-.7-1.25c.24-.21,2.53-1.06,2.42-1.65-.13-.93-3.78-.71-4-3.23-.22-2.31,2.1-4.34,3.35-5.48a1.3,1.3,0,0,1,1.38-.21c.26.17,1,.63,1,.91S296.61,52.48,296.07,52.48Z"></path>
      <path class="cls-3" d="M302.92,64.33c-.24,2.59-.56,3.7-.47,3.86s.8,1.7-.55,1.72c-1.54.06-.77-1.72-.58-1.78s.14-2.12.48-5.78c.2-2.34.32-3.68.39-6-.92,1.2-2.87,3.72-3.67,3.59-1.09-.19-.72-2.94-.34-5.73.12-1.14.26-1.88.68-2s1,.3,1,.79-1,4.25-.68,4.57,1.48-1.57,2.89-3.37c.32-.42.47-1.22,1.12-.93.41.17.65,1.52.55,2.5S303.26,61.19,302.92,64.33Z"></path>
      <path class="cls-1" d="M192.5,40.35c48.27,0,90.69,2.21,115,8.48C286.08,41,238.34,35.47,182.89,35.47c-75.47,0-136.65,10.15-136.65,22.67,0,4.51,7.95,8.72,21.65,12.25-7.73-2.84-9-6-9-9.31C58.9,48.55,117,40.35,192.5,40.35Z"></path>
    </g>
  </g>
</svg>
