<svg xmlns="http://www.w3.org/2000/svg" width="117.56" height="59.4" viewBox="0 0 117.56 59.4">
  <g id="Group_377" data-name="Group 377" transform="translate(20971.828 12314.232)">
    <g id="Group_193" data-name="Group 193" transform="translate(-20971.828 -12314.232)">
      <path id="Path_248" data-name="Path 248" d="M168.968,115.923a15.074,15.074,0,0,0-17.079-11.638,14.5,14.5,0,0,0-9.2,5.373,4.705,4.705,0,0,0-1.054,3.129v34.127c0,.672-.024,1.339,0,2.011a2.706,2.706,0,0,0,1.609,2.509,2.622,2.622,0,0,0,2.879-.334,2.815,2.815,0,0,0,1.042-2.413V133.948h.181a1.843,1.843,0,0,1,.185.08,14.32,14.32,0,0,0,9.048,1.56,14.1,14.1,0,0,0,8.325-4.335A15.867,15.867,0,0,0,168.968,115.923Zm-7.89,11.341a8.8,8.8,0,0,1-7.319,2.956,9.073,9.073,0,0,1-6.4-3.29,1.042,1.042,0,0,1-.181-.639V113.446a1.174,1.174,0,0,1,.342-.877,9.028,9.028,0,0,1,6.3-2.944c4.975-.326,9.028,3.475,9.925,8.071A10.567,10.567,0,0,1,161.078,127.264Z" transform="translate(-111.907 -92.335)" fill="#1c3d6e"/>
      <path id="Path_249" data-name="Path 249" d="M221.453,77.661a2.476,2.476,0,0,0-.036-.426v-.088a2.534,2.534,0,0,0-.088-.354.48.48,0,0,0-.056-.161c-.02-.052-.06-.141-.092-.209a2.127,2.127,0,0,0-.117-.209c-.048-.08-.1-.161-.157-.237l-.044-.06a2.743,2.743,0,0,0-4.9,1.721v37.838a2.771,2.771,0,0,0,2.767,2.815,2.735,2.735,0,0,0,2.739-2.767v-1.154h0C221.457,98.975,221.457,93.526,221.453,77.661Z" transform="translate(-156.349 -74.863)" fill="#1c3d6e"/>
      <path id="Path_236" data-name="Path 236" d="M93.174,125.855a2.747,2.747,0,0,0-3.032.828c-.225.257-.45.515-.688.76a8.924,8.924,0,0,1-11.325,1.448,10.8,10.8,0,0,1-2.051-16.2,9.072,9.072,0,0,1,10.259-2.353,10.456,10.456,0,0,1,3.833,2.924,2.719,2.719,0,0,0,3.824.257,2.775,2.775,0,0,0,.386-3.808,14.747,14.747,0,0,0-11.662-5.574H82.61c-8.212,0-14.88,7.086-14.88,15.833v.635a2.748,2.748,0,0,0,.02.4v.028h0c.466,7.548,5.9,13.649,12.869,14.63h.113c.213.028.43.052.643.072h.241l.487.024h.615a16.05,16.05,0,0,0,2.332-.169,14.5,14.5,0,0,0,9.4-5.493,2.566,2.566,0,0,0,.567-1.753A2.771,2.771,0,0,0,93.174,125.855Z" transform="translate(-67.73 -92.366)" fill="#1c3d6e"/>
      <g id="Group_191" data-name="Group 191" transform="translate(75.641 1.778)">
        <path id="Path_253" data-name="Path 253" d="M8.706,0A8.709,8.709,0,1,1,0,8.709,8.708,8.708,0,0,1,8.706,0Z" transform="translate(12.222 12.363)" fill="#1c3d6e"/>
        <ellipse id="Ellipse_105" data-name="Ellipse 105" cx="4.017" cy="4.019" rx="4.017" ry="4.019" transform="translate(33.885 17.054)" fill="#00837b"/>
        <path id="Path_252" data-name="Path 252" d="M268.056,97.386a13.064,13.064,0,0,1,18.313,2.29,4.049,4.049,0,0,0,6.142.295,3.978,3.978,0,0,0,.983-1.786,4.041,4.041,0,0,0-.733-3.482,21,21,0,0,0-14.066-8l-.323-.037a.61.61,0,0,0-.639.41,1.847,1.847,0,0,1-3.5,0,.614.614,0,0,0-.647-.41A21.184,21.184,0,0,0,255.1,105.059a.745.745,0,0,1-.029.25.614.614,0,0,0,.41.655,1.844,1.844,0,0,1,0,3.519.619.619,0,0,0-.434.651,21.143,21.143,0,0,0,18.493,18.529.614.614,0,0,0,.655-.434,1.843,1.843,0,0,1,3.53.02.614.614,0,0,0,.651.442,21,21,0,0,0,10.647-4.322,21.343,21.343,0,0,0,3.612-3.58,4.047,4.047,0,1,0-6.347-5.022,13.053,13.053,0,1,1-18.26-18.394Z" transform="translate(-255.043 -86.661)" fill="#00837b"/>
      </g>
      <path id="Path_254" data-name="Path 254" d="M1.562-15.3v5.963H2.65v-2.628H5.172v2.628H6.26V-15.3H5.172v2.389H2.65V-15.3Zm9.555,4.114a2.678,2.678,0,0,0,.035-.46,1.873,1.873,0,0,0-1.858-2.1,2.134,2.134,0,0,0-2.106,2.318A2.038,2.038,0,0,0,9.41-9.25a4.057,4.057,0,0,0,1.5-.265l-.159-.752a3.238,3.238,0,0,1-1.194.195,1.171,1.171,0,0,1-1.327-1.115Zm-2.884-.761a1.065,1.065,0,0,1,1-1.053.926.926,0,0,1,.894,1.053Zm7.2,2.61a6.909,6.909,0,0,1-.062-1.035v-1.557a1.611,1.611,0,0,0-1.778-1.814,3.1,3.1,0,0,0-1.557.38l.212.708a2.282,2.282,0,0,1,1.159-.319c.761,0,.876.469.876.752v.071c-1.593-.009-2.557.54-2.557,1.628a1.279,1.279,0,0,0,1.354,1.283,1.6,1.6,0,0,0,1.274-.575h.027l.071.478Zm-1.124-1.513a.782.782,0,0,1-.035.239.882.882,0,0,1-.849.593.571.571,0,0,1-.619-.619c0-.655.734-.823,1.5-.805Zm2.212,1.513h1.1V-15.62h-1.1Zm2.46-5.282v.973h-.619v.814h.619v2.026a1.717,1.717,0,0,0,.336,1.2,1.26,1.26,0,0,0,.938.354,2.391,2.391,0,0,0,.787-.106l-.018-.832a1.608,1.608,0,0,1-.425.053c-.416,0-.557-.274-.557-.8v-1.9h1.035v-.814H20.044v-1.23ZM21.9-9.338H23v-2.575a.917.917,0,0,1,.044-.327.888.888,0,0,1,.84-.61c.6,0,.832.469.832,1.1v2.415H25.8v-2.539c0-1.38-.77-1.867-1.5-1.867a1.476,1.476,0,0,0-.743.195,1.46,1.46,0,0,0-.54.5H23V-15.62H21.9Zm8.078-.938a2.128,2.128,0,0,1-.858.168A1.278,1.278,0,0,1,27.8-11.5a1.284,1.284,0,0,1,1.318-1.4,1.917,1.917,0,0,1,.823.168l.195-.814a2.715,2.715,0,0,0-1.053-.2,2.228,2.228,0,0,0-2.4,2.3A2.069,2.069,0,0,0,28.909-9.25a3.15,3.15,0,0,0,1.221-.221Zm4.362.938a6.909,6.909,0,0,1-.062-1.035v-1.557A1.611,1.611,0,0,0,32.5-13.744a3.1,3.1,0,0,0-1.557.38l.212.708a2.282,2.282,0,0,1,1.159-.319c.761,0,.876.469.876.752v.071c-1.593-.009-2.557.54-2.557,1.628a1.279,1.279,0,0,0,1.354,1.283,1.6,1.6,0,0,0,1.274-.575h.027l.071.478Zm-1.124-1.513a.782.782,0,0,1-.035.239.882.882,0,0,1-.849.593.571.571,0,0,1-.619-.619c0-.655.734-.823,1.5-.805ZM35.43-9.338h1.088v-2.23a1.868,1.868,0,0,1,.035-.336.959.959,0,0,1,.973-.823,1.513,1.513,0,0,1,.319.035v-1.026a1.143,1.143,0,0,0-.257-.027,1.285,1.285,0,0,0-1.177.92h-.035l-.035-.823h-.947c.027.389.035.805.035,1.389Zm6.724-1.849a2.678,2.678,0,0,0,.035-.46,1.873,1.873,0,0,0-1.858-2.1,2.134,2.134,0,0,0-2.106,2.318A2.038,2.038,0,0,0,40.446-9.25a4.057,4.057,0,0,0,1.5-.265l-.159-.752a3.238,3.238,0,0,1-1.194.195,1.171,1.171,0,0,1-1.327-1.115Zm-2.884-.761a1.065,1.065,0,0,1,1-1.053.926.926,0,0,1,.894,1.053Z" transform="translate(43.234 68.642)" fill="#00837b"/>
    </g>
  </g>
</svg>
