<svg xmlns="http://www.w3.org/2000/svg" viewBox="0 0 473 151">
  <defs>
    <style>
      .cls-1 {
        isolation: isolate;
      }

      .cls-2, .cls-5 {
        fill: #68bbaf;
      }

      .cls-3 {
        fill: #a79b94;
      }

      .cls-4 {
        fill: #714075;
      }

      .cls-5, .cls-7 {
        mix-blend-mode: multiply;
      }

      .cls-6 {
        fill: #672e6c;
      }

      .cls-8 {
        fill: #121820;
      }
    </style>
  </defs>
  <g class="cls-1">
    <g id="Layer_1" data-name="Layer 1">
      <g>
        <path class="cls-2" d="M103.29,55.17l20.29,11.68A17.16,17.16,0,0,1,131,75.49a16.68,16.68,0,0,0,1.22-6.34l0-20.48a17.33,17.33,0,0,0-2.34-8.7,17.52,17.52,0,0,0-6.42-6.43L105.64,23.33a17.37,17.37,0,0,0-6.09-2.13A17.51,17.51,0,0,1,103.29,32Z"/>
        <path class="cls-2" d="M33,95.79,12.8,84.15a17.73,17.73,0,0,1-7.59-8.66A17.8,17.8,0,0,0,4,82l0,20.48a17.45,17.45,0,0,0,8.76,15.12l17.76,10.22A16.85,16.85,0,0,0,36.68,130,17.68,17.68,0,0,1,33,119Z"/>
        <path class="cls-3" d="M103.3,95.73,68.09,116,33,95.79,33,119a17.68,17.68,0,0,0,3.72,11,16.77,16.77,0,0,0,4.79,4.17l17.71,10.29a17.46,17.46,0,0,0,17.48.05l17.77-10.19A17.89,17.89,0,0,0,99.49,130a17.15,17.15,0,0,0,3.81-10.72Z"/>
        <path class="cls-3" d="M103.29,32A17.55,17.55,0,0,0,94.6,16.88L76.88,6.58a17.49,17.49,0,0,0-17.48,0L41.63,16.74a16.82,16.82,0,0,0-5.07,4.47A17.67,17.67,0,0,0,33,31.85L33,55.1,68.09,34.91l35.2,20.26Z"/>
        <path class="cls-4" d="M131,75.49a17.16,17.16,0,0,0-7.39-8.64L103.29,55.17V95.73l-2.38,23.5c0,4,1,7.72-1.43,10.72a16.82,16.82,0,0,0,6.15-2.09l17.75-10.22a17.48,17.48,0,0,0,8.77-15.12l0-20.48A17.8,17.8,0,0,0,131,75.49Z"/>
        <path class="cls-4" d="M30.54,23.33,12.78,33.54A17.52,17.52,0,0,0,4,48.67L4,69.15a16.88,16.88,0,0,0,1.22,6.34,17.73,17.73,0,0,0,7.59,8.66L33,95.79,33,55.1l.89-16.21c0-3.92.38-14.68,2.65-17.68A17.48,17.48,0,0,0,30.54,23.33Z"/>
        <path class="cls-5" d="M47.92,127.67,68.09,116,33,95.79,33,119a17.68,17.68,0,0,0,3.72,11A17.68,17.68,0,0,0,47.92,127.67Z"/>
        <path class="cls-6" d="M103.3,95.73,68.09,116l20.17,11.63A17.65,17.65,0,0,0,99.49,130a17.15,17.15,0,0,0,3.81-10.72Z"/>
        <path class="cls-5" d="M123.58,66.85,103.29,55.17V95.73l20.08-11.58A17.69,17.69,0,0,0,131,75.49,17.16,17.16,0,0,0,123.58,66.85Z"/>
        <path class="cls-5" d="M88.18,23.35,68.09,34.91l35.2,20.26V32A17.51,17.51,0,0,0,99.55,21.2,17.5,17.5,0,0,0,88.18,23.35Z"/>
        <path class="cls-6" d="M33,55.1,68.09,34.91,48,23.35a17.5,17.5,0,0,0-11.44-2.14A17.67,17.67,0,0,0,33,31.85Z"/>
        <path class="cls-5" d="M12.8,84.15,33,95.79,33,55.1,12.6,66.85a17.16,17.16,0,0,0-7.39,8.64A17.73,17.73,0,0,0,12.8,84.15Z"/>
        <g class="cls-7">
          <path class="cls-8" d="M172.35,21.2c4.8,0,9.77,2.66,11.07,8.19H179.5c-1.23-3-4-4.44-7.18-4.48-5,0-8.33,3.64-8.33,8.86,0,4.86,3.32,8.75,8.33,8.75,3.36,0,6.19-1.65,7.28-4.9h4c-1.23,6-6.27,8.61-11.24,8.61-6.65,0-12.43-4.59-12.43-12.46S165.67,21.2,172.35,21.2Z"/>
          <path class="cls-8" d="M196.08,46.3c-4.44,0-8.89-2.94-8.89-8.82s4.34-8.72,8.75-8.79S205,31.56,205,37.48,200.53,46.3,196.08,46.3Zm.07-3.36a5.09,5.09,0,0,0,5-5.46,5.12,5.12,0,1,0-10.22,0A5.07,5.07,0,0,0,196.15,42.94Z"/>
          <path class="cls-8" d="M212.71,20.36V39.93c0,2.8.73,3.67,3.64,3.22l.14,2.94c-5.18.84-7.56-.49-7.56-6.13V20.36Z"/>
          <path class="cls-8" d="M224.36,20.36V39.93c0,2.8.74,3.67,3.64,3.22l.14,2.94c-5.18.84-7.56-.49-7.56-6.13V20.36Z"/>
          <path class="cls-8" d="M246.87,38.25H234.41c0,3.08,2.41,4.9,5.49,4.9a13.43,13.43,0,0,0,6.13-1l.49,2.83a16,16,0,0,1-6.37,1.44c-5.57.11-9.66-3.47-9.49-9.17s4.17-8.47,8.75-8.47C245.33,28.73,248,32.65,246.87,38.25Zm-12.39-2.7h9.31c.1-2.55-2-3.88-4.41-3.88A4.54,4.54,0,0,0,234.48,35.55Z"/>
          <path class="cls-8" d="M263.6,45.18a10.44,10.44,0,0,1-5.11,1.4c-4.31,0-7.63-3.33-7.63-8.89,0-6.13,4.27-8.89,9.45-8.79a18.36,18.36,0,0,1,7,1.58V47c0,5.84-3.71,8.4-8.12,8.43a14.43,14.43,0,0,1-7.1-1.89l.56-3.08a15,15,0,0,0,6.44,1.75c2.62,0,4.55-1.36,4.55-5.29Zm-.07-12.46a10.67,10.67,0,0,0-3.57-.63c-3.22,0-5.25,1.82-5.29,5.6s2.07,5.56,4.69,5.6A7.44,7.44,0,0,0,263.53,42Z"/>
          <path class="cls-8" d="M287.47,38.25H275c0,3.08,2.41,4.9,5.49,4.9a13.43,13.43,0,0,0,6.13-1l.49,2.83a16,16,0,0,1-6.37,1.44c-5.57.11-9.66-3.47-9.49-9.17s4.17-8.47,8.75-8.47C285.93,28.73,288.59,32.65,287.47,38.25Zm-12.39-2.7h9.31c.1-2.55-2-3.88-4.41-3.88A4.54,4.54,0,0,0,275.08,35.55Z"/>
          <path class="cls-8" d="M310,46.3c-4.44,0-8.89-2.94-8.89-8.82s4.34-8.72,8.75-8.79,9.07,2.87,9.07,8.79S314.42,46.3,310,46.3Zm.07-3.36a5.09,5.09,0,0,0,5-5.46,5.12,5.12,0,1,0-10.22,0A5.07,5.07,0,0,0,310,42.94Z"/>
          <path class="cls-8" d="M324.92,32.05H321.8V29.18H325V26.91c0-6.65,5.11-7.67,10.39-5.92L335,23.65c-3-1.22-6.3-.87-6.3,3.33v2.2h5.71v2.87h-5.71V46h-3.74Z"/>
          <path class="cls-8" d="M181,86.39V87H176.9l-6.09-8.54h-5.39V87h-4.09V62.48h10.11c5.32,0,8.51,3.61,8.51,8a7.67,7.67,0,0,1-5.15,7.35Zm-9.63-11.31a4.53,4.53,0,1,0,0-9.06h-6.06v9.06Z"/>
          <path class="cls-8" d="M199.27,79.25H186.81c0,3.08,2.41,4.9,5.49,4.9a13.43,13.43,0,0,0,6.13-1.05l.49,2.83a16,16,0,0,1-6.37,1.44c-5.57.1-9.66-3.47-9.49-9.17s4.17-8.47,8.75-8.47C197.73,69.73,200.39,73.65,199.27,79.25Zm-12.39-2.7h9.31c.1-2.55-2-3.88-4.41-3.88A4.54,4.54,0,0,0,186.88,76.55Z"/>
          <path class="cls-8" d="M215.3,86.18a10.44,10.44,0,0,1-5.11,1.4c-4.31,0-7.63-3.33-7.63-8.89,0-6.13,4.27-8.89,9.45-8.79a18.36,18.36,0,0,1,7,1.58V88c0,5.85-3.71,8.41-8.12,8.44a14.43,14.43,0,0,1-7.1-1.89l.56-3.08a15,15,0,0,0,6.44,1.75c2.62,0,4.55-1.37,4.55-5.29Zm-.07-12.46a10.67,10.67,0,0,0-3.57-.63c-3.22,0-5.25,1.82-5.29,5.6s2.07,5.56,4.69,5.6A7.44,7.44,0,0,0,215.23,83Z"/>
          <path class="cls-8" d="M226,62.66a2.26,2.26,0,1,1-2.31,2.24A2.18,2.18,0,0,1,226,62.66ZM227.86,87h-3.81V70.29h3.81Z"/>
          <path class="cls-8" d="M236.3,82c.1,1.75,2,2.56,3.85,2.56s3.92-.53,4-2.59c0-1.54-1.57-2-3.78-2.28-3.46-.45-7.35-.84-7.45-4.65,0-3.61,3.5-5.29,7.17-5.29,3.89,0,7.28,1.72,7.18,5.08h-3.36c0-1.68-2-2.21-3.82-2.21s-3.57.84-3.46,2.35,1.4,1.71,4,2c3.54.45,7,1,7,5,0,3.74-3.61,5.35-7.35,5.35s-7.46-1.19-7.74-5.39Z"/>
          <path class="cls-8" d="M257.12,70.15H263v2.73h-5.85v7.59c0,4.31,2.7,4.59,6.16,3.36l.39,2.87c-5.78,1.79-10.29.46-10.29-6.16V72.88L250,72.63V70.15h3.43l.38-5.22h3.36Z"/>
          <path class="cls-8" d="M282.85,79.25H270.39c0,3.08,2.41,4.9,5.49,4.9A13.43,13.43,0,0,0,282,83.1l.49,2.83a16,16,0,0,1-6.37,1.44c-5.57.1-9.66-3.47-9.49-9.17s4.17-8.47,8.75-8.47C281.31,69.73,284,73.65,282.85,79.25Zm-12.39-2.7h9.31c.1-2.55-2-3.88-4.41-3.88A4.54,4.54,0,0,0,270.46,76.55Z"/>
          <path class="cls-8" d="M297,69.55a6.4,6.4,0,0,1,3.89,1.19L299.89,74a6,6,0,0,0-3.36-1,4.06,4.06,0,0,0-4.3,4.2V87h-3.78V74.73c0-1.5,0-2.27-1.82-2.17l0-2.59c2.49-.56,5.22-.14,5.39,2.59C292.65,70.6,294.89,69.55,297,69.55Z"/>
          <path class="cls-8" d="M318.55,79.25H306.09c0,3.08,2.41,4.9,5.49,4.9a13.43,13.43,0,0,0,6.13-1.05l.49,2.83a16,16,0,0,1-6.37,1.44c-5.57.1-9.66-3.47-9.49-9.17s4.17-8.47,8.75-8.47C317,69.73,319.67,73.65,318.55,79.25Zm-12.39-2.7h9.31c.1-2.55-2-3.88-4.41-3.88A4.54,4.54,0,0,0,306.16,76.55Z"/>
          <path class="cls-8" d="M335.17,83.9a5.59,5.59,0,0,1-5.6,3.43c-5,.11-7.77-4.09-7.77-8.82,0-5.21,3.64-8.64,8-8.64a9.22,9.22,0,0,1,4.69,1.29v-9.8h3.82V81.73c0,1.93-.18,2.66,1.75,2.66l.07,2.63c-2.63.45-4.94.21-4.94-2.63Zm-.63-9.38a7.1,7.1,0,0,0-4.16-1.33c-2.63,0-4.8,1.89-4.8,5.32,0,2.91,1.47,5.43,4.59,5.43a4.43,4.43,0,0,0,4.37-4.69Z"/>
          <path class="cls-8" d="M358.76,70.32l.28,7.77V87h-4V62.41h1.47L371.36,78.9l-.28-7.49V62.48h4.06V87h-1.4Z"/>
          <path class="cls-8" d="M395.51,70.11v12c0,2,.18,2.59,1.79,2.42l0,2.48c-2.17.39-5.25.84-5.25-2.8-1.15,2.28-3.46,3-5.84,3-4.66,0-6.3-3.25-6.3-7.38V70.11h3.85v9.77c0,2.69,1.4,4.34,3.64,4.34a4.19,4.19,0,0,0,4.27-4.45V70.11Z"/>
          <path class="cls-8" d="M411,69.55a6.35,6.35,0,0,1,3.88,1.19L414,74a6.08,6.08,0,0,0-3.36-1,4.07,4.07,0,0,0-4.31,4.2V87h-3.78V74.73c0-1.5,0-2.27-1.82-2.17l0-2.59c2.49-.56,5.22-.14,5.39,2.59C406.71,70.6,409,69.55,411,69.55Z"/>
          <path class="cls-8" d="M420.25,82c.11,1.75,2,2.56,3.85,2.56s3.93-.53,4-2.59c0-1.54-1.57-2-3.78-2.28-3.46-.45-7.35-.84-7.46-4.65,0-3.61,3.5-5.29,7.18-5.29,3.89,0,7.28,1.72,7.18,5.08h-3.36c0-1.68-2-2.21-3.82-2.21s-3.57.84-3.47,2.35,1.41,1.71,4,2c3.54.45,7,1,7,5,0,3.74-3.61,5.35-7.35,5.35s-7.46-1.19-7.74-5.39Z"/>
          <path class="cls-8" d="M450.81,79.25H438.35c0,3.08,2.42,4.9,5.5,4.9A13.37,13.37,0,0,0,450,83.1l.49,2.83a16,16,0,0,1-6.37,1.44c-5.57.1-9.66-3.47-9.49-9.17s4.17-8.47,8.76-8.47C449.27,69.73,451.93,73.65,450.81,79.25Zm-12.39-2.7h9.31c.11-2.55-2-3.88-4.41-3.88A4.54,4.54,0,0,0,438.42,76.55Z"/>
          <path class="cls-8" d="M457.67,82c.1,1.75,2,2.56,3.85,2.56s3.92-.53,4-2.59c0-1.54-1.57-2-3.78-2.28-3.46-.45-7.35-.84-7.45-4.65,0-3.61,3.5-5.29,7.17-5.29,3.89,0,7.29,1.72,7.18,5.08H465.3c0-1.68-2-2.21-3.82-2.21s-3.57.84-3.46,2.35,1.4,1.71,4,2c3.54.45,7,1,7,5,0,3.74-3.61,5.35-7.35,5.35s-7.46-1.19-7.74-5.39Z"/>
          <path class="cls-8" d="M168.61,129.3c-4.45,0-8.89-2.94-8.89-8.82s4.34-8.72,8.75-8.79,9.06,2.87,9.06,8.79S173.05,129.3,168.61,129.3Zm.07-3.36a5.46,5.46,0,1,0-5.18-5.46A5.09,5.09,0,0,0,168.68,125.94Z"/>
          <path class="cls-8" d="M183.55,115.05h-3.11v-2.87h3.18v-2.27c0-6.65,5.11-7.67,10.4-5.92l-.42,2.66c-3-1.22-6.3-.87-6.3,3.33v2.2H193v2.87h-5.7V129h-3.75Z"/>
          <path class="cls-8" d="M227.62,104.41h1.5V129H225V113.65L218,122.72h-.56l-7.11-9.07V129H206.2V104.41h1.5l10,12.67Z"/>
          <path class="cls-8" d="M240,129.3c-3.08,0-6.05-2-6.05-5.25-.11-4,2.83-6,6.54-6a10.64,10.64,0,0,1,5,1.26v-1.68c0-4.45-7.6-3-9.7-1.93l-.56-2.73a14.26,14.26,0,0,1,6.23-1.33c4.1,0,7.74,1.44,7.74,6.09v6.65c0,1.58-.07,2.59,1.75,2.42L251,129c-2.66.45-4.73.45-4.83-2.87C245.05,128.39,242.35,129.3,240,129.3Zm5.5-7.49a8.62,8.62,0,0,0-4.38-1.16c-1.85,0-3.43,1.12-3.43,3.19,0,1.68,1.54,2.45,3.08,2.45,2,0,4.34-1,4.73-3.08Z"/>
          <path class="cls-8" d="M267.94,129v-9.9a3.91,3.91,0,0,0-4-4.27,4.3,4.3,0,0,0-4.27,4.58V129h-3.85V117c0-2-.07-2.55-1.78-2.45v-2.48c2.45-.46,5.28-.6,5.28,2.62.95-2.13,3.54-2.94,5.74-2.94,4.59,0,6.69,3.15,6.69,7.32V129Z"/>
          <path class="cls-8" d="M278.65,104.66a2.26,2.26,0,1,1-2.31,2.24A2.17,2.17,0,0,1,278.65,104.66ZM280.54,129h-3.82V112.29h3.82Z"/>
          <path class="cls-8" d="M291.14,112.15H297v2.73h-5.85v7.59c0,4.31,2.7,4.59,6.16,3.36l.39,2.87c-5.78,1.79-10.29.46-10.29-6.16v-7.66l-3.43-.25v-2.48h3.43l.38-5.22h3.36Z"/>
          <path class="cls-8" d="M309.55,129.3c-4.44,0-8.89-2.94-8.89-8.82s4.34-8.72,8.75-8.79,9.07,2.87,9.07,8.79S314,129.3,309.55,129.3Zm.07-3.36a5.46,5.46,0,1,0-5.18-5.46A5.09,5.09,0,0,0,309.62,125.94Z"/>
          <path class="cls-8" d="M322.47,103.4h3.81v9.73a10.83,10.83,0,0,1,4.87-1.26c4.41,0,8.05,3.46,8.05,8.85,0,6.51-4.59,8.82-9.63,8.79a21.65,21.65,0,0,1-7.1-1.4Zm3.74,22.43a14.57,14.57,0,0,0,3.75.56c3,0,5.42-1.57,5.42-5.67,0-3.53-2.2-5.35-4.83-5.46a8.32,8.32,0,0,0-4.34,1.16Z"/>
          <path class="cls-8" d="M348.75,129.3c-3.08,0-6.05-2-6.05-5.25-.11-4,2.83-6,6.54-6a10.64,10.64,0,0,1,5,1.26v-1.68c0-4.45-7.6-3-9.7-1.93L344,113a14.26,14.26,0,0,1,6.23-1.33c4.1,0,7.74,1.44,7.74,6.09v6.65c0,1.58-.07,2.59,1.75,2.42l.07,2.17c-2.66.45-4.73.45-4.83-2.87C353.83,128.39,351.13,129.3,348.75,129.3Zm5.5-7.49a8.62,8.62,0,0,0-4.38-1.16c-1.85,0-3.43,1.12-3.43,3.19,0,1.68,1.54,2.45,3.08,2.45,2,0,4.34-1,4.73-3.08Z"/>
        </g>
      </g>
    </g>
  </g>
</svg>
