<svg id="Layer_1" data-name="Layer 1" xmlns="http://www.w3.org/2000/svg" viewBox="0 0 458.43 54.58"><defs><style>.cls-1{fill:#d06f1a;}.cls-2{fill:#eeb111;}.cls-3{fill:#b38808;}.cls-4{fill:none;stroke:#d06f1a;stroke-width:0.61px;}</style></defs><title>crpnm-logo</title><path class="cls-1" d="M23.09,52.94c5.63,2.19,8.44,1.56,8.44,1.56,7.1-1.26,7.11.21,10,1.29a38.13,38.13,0,0,0,8,1.52c2.73,1.52-.1,1.82-2.31,1.95a44.21,44.21,0,0,1-7.13-.81c3.77,1.13,3.88,3.91,10.62,5.24a26.94,26.94,0,0,0,6.75-1,5.86,5.86,0,0,1-.73-3.09,3.8,3.8,0,0,0-.51-2.44,6.21,6.21,0,0,0-1.28-.94c-.24-.21,0-.81,0-.81A3.39,3.39,0,0,1,54,54.7a1.3,1.3,0,0,1,.12-1.15c.17-.27-.53-2.11-.53-2.11a2,2,0,0,0-.66-.15c-.22,0-.47.23-1.59-.57a2.51,2.51,0,0,1-1.06-2.28c0-.41,1.26-3.52,1.55-4.46s.63-2.52.63-2.52a2.14,2.14,0,0,0-.67-.64A1.73,1.73,0,0,1,51,39.48a3.34,3.34,0,0,1,.06-.93L51,38.26a22.61,22.61,0,0,1,0-4.86c.34-1.1-.11-2.79.14-4.09A23.51,23.51,0,0,1,53,23.91a9.78,9.78,0,0,1,1.69-1.85H25.05A6.91,6.91,0,0,0,18.14,29V51.53A23.41,23.41,0,0,1,23.09,52.94Z" transform="translate(-18.14 -22.06)"/><path class="cls-2" d="M68.49,62.49c-3.51-1.2-7.06.46-8.75,1.32a27.33,27.33,0,0,1-10.66,2.77C43.27,67,36,65,30.69,62.91c-4.27-1.7-10.34-.76-12.55-.33v7.14h0c2.39-1.62,6.64-3.54,14.37-1.41a38,38,0,0,0,24.12-1.41,23.81,23.81,0,0,1,7.19-2.08,18.76,18.76,0,0,1,7.66,1.28C70.69,64.6,69.53,62.85,68.49,62.49Z" transform="translate(-18.14 -22.06)"/><path class="cls-3" d="M64.94,66.07a30.82,30.82,0,0,0-9.34,2.78,36,36,0,0,1-12.14,2.9c-4.59.2-9.36-.79-11.3-.89-4.7-.23-8.4,2.85-10.36,5a6.87,6.87,0,0,0,3.25.81H65.81a6.91,6.91,0,0,0,6.91-6.91s0-.52-.1-1a4.89,4.89,0,0,0-.87-2.1A18.18,18.18,0,0,0,64.94,66.07Z" transform="translate(-18.14 -22.06)"/><line class="cls-4" x1="63.86" y1="34.36" x2="458.43" y2="34.36"/><path class="cls-3" d="M84.57,63h3.28a3.56,3.56,0,0,1,2.69.88,3.25,3.25,0,0,1,.95,2.43A2.91,2.91,0,0,1,89,69.37v0a1.63,1.63,0,0,1,1.39,1.24l1.79,5.12H90.41L89,71.46a1.8,1.8,0,0,0-2-1.47h-.73v5.78H84.57Zm1.62,5.67h1.24a2.15,2.15,0,0,0,2.38-2.25c0-1.43-.93-2.1-2.34-2.1H86.19Z" transform="translate(-18.14 -22.06)"/><path class="cls-3" d="M95.26,63h5.95v1.39H96.87v4.06H101v1.4H96.87v4.53h4.58v1.39H95.26Z" transform="translate(-18.14 -22.06)"/><path class="cls-3" d="M112.94,75.24a9.89,9.89,0,0,1-3.16.66c-4,0-5.75-3.07-5.75-6.53,0-4,2.32-6.5,5.65-6.5a7,7,0,0,1,3,.57v1.61a6.92,6.92,0,0,0-3-.79c-2.08,0-4,1.67-4,4.78,0,3.29,1.32,5.47,4.1,5.47a3.78,3.78,0,0,0,1.59-.35v-4h-2.14V68.75h3.68Z" transform="translate(-18.14 -22.06)"/><path class="cls-3" d="M116.8,63h1.61V75.77H116.8Z" transform="translate(-18.14 -22.06)"/><path class="cls-3" d="M127.55,64.85a4.28,4.28,0,0,0-2.18-.59,1.88,1.88,0,0,0-2,1.91c0,.82.33,1.33,2.16,2.39,2,1.14,2.64,2.26,2.64,3.72a3.42,3.42,0,0,1-3.72,3.62,6.36,6.36,0,0,1-2.67-.55V73.69a5.29,5.29,0,0,0,2.44.82,2.07,2.07,0,0,0,2.26-2c0-1-.25-1.56-2-2.6-2.31-1.39-2.82-2.18-2.82-3.83,0-2.1,1.61-3.2,3.55-3.2a6.71,6.71,0,0,1,2.31.42Z" transform="translate(-18.14 -22.06)"/><path class="cls-3" d="M133.29,64.39h-2.93V63h7.47v1.39H134.9V75.77h-1.61Z" transform="translate(-18.14 -22.06)"/><path class="cls-3" d="M140.61,63h5.95v1.39h-4.34v4.06h4.14v1.4h-4.14v4.53h4.58v1.39h-6.19Z" transform="translate(-18.14 -22.06)"/><path class="cls-3" d="M150.13,63h3.28a3.59,3.59,0,0,1,2.69.88,3.25,3.25,0,0,1,1,2.43,2.91,2.91,0,0,1-2.53,3.06v0a1.62,1.62,0,0,1,1.39,1.24l1.8,5.12H156l-1.47-4.31a1.79,1.79,0,0,0-2-1.47h-.73v5.78h-1.61Zm1.61,5.67H153a2.15,2.15,0,0,0,2.38-2.25c0-1.43-.93-2.1-2.34-2.1h-1.28Z" transform="translate(-18.14 -22.06)"/><path class="cls-3" d="M160.67,63h6v1.39h-4.34v4.06h4.14v1.4h-4.14v4.53h4.58v1.39h-6.19Z" transform="translate(-18.14 -22.06)"/><path class="cls-3" d="M170,63h2.78a5.47,5.47,0,0,1,3.4.92c1.14.78,2.36,2.39,2.36,5.27,0,3.69-1.76,6.58-6.55,6.58h-2Zm1.61,11.38h1c2.81,0,4.28-1.92,4.28-5.19,0-2.68-1.14-4.8-4.28-4.8h-1Z" transform="translate(-18.14 -22.06)"/><path class="cls-3" d="M188.27,63h3.07a3.71,3.71,0,0,1,2.77,1,3.55,3.55,0,0,1,1,2.63c0,2.49-1.44,3.81-4.15,3.81h-1.08v5.34h-1.61Zm1.61,6.11h.88c2,0,2.67-.91,2.67-2.34,0-1.76-1-2.45-2.64-2.45h-.91Z" transform="translate(-18.14 -22.06)"/><path class="cls-3" d="M203.39,64.85a4.28,4.28,0,0,0-2.18-.59,1.88,1.88,0,0,0-2,1.91c0,.82.33,1.33,2.16,2.39S204,70.82,204,72.28a3.42,3.42,0,0,1-3.72,3.62,6.36,6.36,0,0,1-2.67-.55V73.69a5.25,5.25,0,0,0,2.44.82,2.07,2.07,0,0,0,2.26-2c0-1-.25-1.56-2-2.6-2.31-1.39-2.82-2.18-2.82-3.83,0-2.1,1.61-3.2,3.55-3.2a6.71,6.71,0,0,1,2.31.42Z" transform="translate(-18.14 -22.06)"/><path class="cls-3" d="M209.81,70.41,206,63h1.83l2.82,5.66L213.47,63h1.78l-3.83,7.41v5.36h-1.61Z" transform="translate(-18.14 -22.06)"/><path class="cls-3" d="M223.88,75.52a7.93,7.93,0,0,1-2.32.38c-4.05,0-5.75-3.07-5.75-6.53,0-4,2.33-6.5,5.66-6.5a5.81,5.81,0,0,1,2.41.46V64.9a4.45,4.45,0,0,0-2.39-.64c-2.09,0-4,1.67-4,4.78,0,3.29,1.31,5.47,4.1,5.47a4.61,4.61,0,0,0,2.28-.6Z" transform="translate(-18.14 -22.06)"/><path class="cls-3" d="M227.21,63h1.61v5.45h4.47V63h1.61V75.77h-1.61V69.85h-4.47v5.92h-1.61Z" transform="translate(-18.14 -22.06)"/><path class="cls-3" d="M238.76,63h1.61V75.77h-1.61Z" transform="translate(-18.14 -22.06)"/><path class="cls-3" d="M249,63l4.17,12.77H251.5l-1-3.33h-4.86l-1,3.33H243L247.25,63Zm1,8-2-6.37h0l-2,6.37Z" transform="translate(-18.14 -22.06)"/><path class="cls-3" d="M257.63,64.39H254.7V63h7.47v1.39h-2.93V75.77h-1.61Z" transform="translate(-18.14 -22.06)"/><path class="cls-3" d="M265,63h3.28a3.59,3.59,0,0,1,2.69.88,3.25,3.25,0,0,1,.95,2.43,2.91,2.91,0,0,1-2.53,3.06v0a1.62,1.62,0,0,1,1.39,1.24l1.8,5.12h-1.74l-1.47-4.31a1.79,1.79,0,0,0-2-1.47h-.73v5.78H265Zm1.61,5.67h1.25a2.14,2.14,0,0,0,2.37-2.25c0-1.43-.93-2.1-2.34-2.1h-1.28Z" transform="translate(-18.14 -22.06)"/><path class="cls-3" d="M275.49,63h1.61V75.77h-1.61Z" transform="translate(-18.14 -22.06)"/><path class="cls-3" d="M288.5,75.52a7.87,7.87,0,0,1-2.32.38c-4,0-5.75-3.07-5.75-6.53,0-4,2.33-6.5,5.66-6.5a5.81,5.81,0,0,1,2.41.46V64.9a4.45,4.45,0,0,0-2.39-.64c-2.09,0-4,1.67-4,4.78,0,3.29,1.31,5.47,4.1,5.47a4.59,4.59,0,0,0,2.28-.6Z" transform="translate(-18.14 -22.06)"/><path class="cls-3" d="M297.27,63h2l4.81,10.54h0V63h1.54V75.77h-2l-4.82-10.46h0V75.77h-1.54Z" transform="translate(-18.14 -22.06)"/><path class="cls-3" d="M317.53,71.07a5.73,5.73,0,0,1-.51,2.86,4.09,4.09,0,0,1-7,0,5.73,5.73,0,0,1-.52-2.86V63h1.61v8.31c0,2,.88,3.27,2.4,3.27s2.4-1.28,2.4-3.27V63h1.61Z" transform="translate(-18.14 -22.06)"/><path class="cls-3" d="M321.39,63h3.28a3.59,3.59,0,0,1,2.69.88,3.29,3.29,0,0,1,.95,2.43,2.91,2.91,0,0,1-2.53,3.06v0a1.62,1.62,0,0,1,1.39,1.24l1.8,5.12h-1.74l-1.46-4.31a1.81,1.81,0,0,0-2-1.47H323v5.78h-1.61ZM323,68.67h1.25a2.14,2.14,0,0,0,2.37-2.25c0-1.43-.93-2.1-2.34-2.1H323Z" transform="translate(-18.14 -22.06)"/><path class="cls-3" d="M337.2,64.85a4.24,4.24,0,0,0-2.17-.59,1.88,1.88,0,0,0-2,1.91c0,.82.33,1.33,2.16,2.39,2,1.14,2.64,2.26,2.64,3.72a3.43,3.43,0,0,1-3.72,3.62,6.36,6.36,0,0,1-2.67-.55V73.69a5.25,5.25,0,0,0,2.43.82,2.08,2.08,0,0,0,2.27-2c0-1-.26-1.56-2-2.6-2.3-1.39-2.81-2.18-2.81-3.83,0-2.1,1.61-3.2,3.55-3.2a6.6,6.6,0,0,1,2.3.42Z" transform="translate(-18.14 -22.06)"/><path class="cls-3" d="M341.1,63h5.95v1.39h-4.34v4.06h4.14v1.4h-4.14v4.53h4.58v1.39H341.1Z" transform="translate(-18.14 -22.06)"/><path class="cls-3" d="M356.62,64.85a4.25,4.25,0,0,0-2.18-.59,1.88,1.88,0,0,0-2,1.91c0,.82.33,1.33,2.16,2.39s2.63,2.26,2.63,3.72a3.42,3.42,0,0,1-3.71,3.62,6.29,6.29,0,0,1-2.67-.55V73.69a5.25,5.25,0,0,0,2.43.82,2.08,2.08,0,0,0,2.27-2c0-1-.26-1.56-2-2.6-2.3-1.39-2.82-2.18-2.82-3.83,0-2.1,1.62-3.2,3.55-3.2a6.62,6.62,0,0,1,2.31.42Z" transform="translate(-18.14 -22.06)"/><path class="cls-3" d="M369,66.31c2.47,0,3.75,1.87,3.75,4.8S371.43,75.9,369,75.9,365.2,74,365.2,71.11,366.49,66.31,369,66.31Zm0,8.35c1.46,0,2.14-1.21,2.14-3.55s-.68-3.55-2.14-3.55-2.15,1.21-2.15,3.55S367.49,74.66,369,74.66Z" transform="translate(-18.14 -22.06)"/><path class="cls-3" d="M376.19,67.69H374.7V66.44h1.49V64.35c0-1.52.69-2.52,2.32-2.52a5.09,5.09,0,0,1,1.21.14v1.32a1.56,1.56,0,0,0-.88-.22c-.86,0-1.12.48-1.12,1.41v2h1.68v1.25h-1.68v8.08h-1.53Z" transform="translate(-18.14 -22.06)"/><path class="cls-3" d="M387.38,63h2.49l3.21,10.16h0L396.39,63h2.41V75.77h-1.53v-11h0l-3.62,11h-1.18l-3.47-11h0v11h-1.54Z" transform="translate(-18.14 -22.06)"/><path class="cls-3" d="M407.44,63l4.18,12.77h-1.69l-1-3.33H404l-1,3.33H401.4L405.69,63Zm1.05,8-2-6.37h0l-2,6.37Z" transform="translate(-18.14 -22.06)"/><path class="cls-3" d="M414.22,63h2L421,73.54h0V63h1.54V75.77h-2l-4.81-10.46h0V75.77h-1.53Z" transform="translate(-18.14 -22.06)"/><path class="cls-3" d="M426.46,63h1.61V75.77h-1.61Z" transform="translate(-18.14 -22.06)"/><path class="cls-3" d="M433.78,64.39h-2.93V63h7.47v1.39h-2.93V75.77h-1.61Z" transform="translate(-18.14 -22.06)"/><path class="cls-3" d="M445.36,62.87c2.84,0,4.65,2.44,4.65,6.39,0,4.41-1.77,6.64-4.79,6.64-2.84,0-4.65-2.43-4.65-6.38C440.57,65.11,442.34,62.87,445.36,62.87Zm-.14,11.71c1.68,0,3.11-1.39,3.11-5.32,0-2.58-.81-5.07-3-5.07-1.68,0-3.11,1.39-3.11,5.33C442.25,72.1,443.06,74.58,445.22,74.58Z" transform="translate(-18.14 -22.06)"/><path class="cls-3" d="M453.34,63h3.24c2.47,0,3.55,1.35,3.55,3.24a2.85,2.85,0,0,1-2.1,2.84v0a2.91,2.91,0,0,1,2.38,3.17c0,1.77-1.21,3.49-4,3.49h-3.08ZM455,68.53h.95c1.8,0,2.62-.83,2.62-2.2,0-1.1-.66-2-2.34-2H455Zm0,5.93h1.38a2.21,2.21,0,0,0,2.47-2.29,2.12,2.12,0,0,0-2.29-2.32H455Z" transform="translate(-18.14 -22.06)"/><path class="cls-3" d="M468.66,63l4.17,12.77h-1.68l-1-3.33h-4.86l-1,3.33h-1.61L466.9,63Zm1,8-1.95-6.37h0l-2,6.37Z" transform="translate(-18.14 -22.06)"/><path class="cls-1" d="M90.8,46.26c0,1.63,0,3,.09,3.69,0,.49.15.86.66.93a6.08,6.08,0,0,0,.77.07c.1,0,.13,0,.13.1s-.08.14-.27.14c-.94,0-2,0-2.09,0s-1.16,0-1.67,0c-.19,0-.27,0-.27-.14s0-.1.13-.1a2.16,2.16,0,0,0,.51-.07c.34-.07.43-.44.5-.93.08-.72.08-2.06.08-3.69v-7.2l-2.52,0c-1,0-1.46.13-1.73.54a2.75,2.75,0,0,0-.29.53c0,.13-.1.17-.17.17s-.09-.05-.09-.16.35-1.63.38-1.76.1-.33.17-.33a3.41,3.41,0,0,0,.75.21c.49.05,1.14.08,1.34.08h6.38a8.09,8.09,0,0,0,1.68-.17c.09,0,.09.1.09.21,0,.51,0,1.68,0,1.87s0,.22-.12.22-.12,0-.14-.29V40c-.07-.51-.46-.9-2.1-.93l-2.14,0Z" transform="translate(-18.14 -22.06)"/><path class="cls-1" d="M109.21,46.26c0,1.63,0,3,.08,3.69,0,.49.15.86.66.93a6.24,6.24,0,0,0,.77.07c.1,0,.14,0,.14.1s-.09.14-.28.14c-.93,0-2,0-2.09,0s-1.16,0-1.67,0c-.18,0-.27,0-.27-.14s0-.1.14-.1a2.24,2.24,0,0,0,.51-.07c.34-.07.42-.44.49-.93.09-.72.09-2.06.09-3.69V44.47a.1.1,0,0,0-.11-.1h-7.21a.09.09,0,0,0-.1.1v1.79c0,1.63,0,3,.09,3.69,0,.49.15.86.66.93a6.1,6.1,0,0,0,.76.07c.11,0,.14,0,.14.1s-.08.14-.27.14c-.94,0-2,0-2.09,0s-1.16,0-1.67,0c-.19,0-.27,0-.27-.14s0-.1.13-.1a2.16,2.16,0,0,0,.51-.07c.34-.07.43-.44.5-.93.08-.72.08-2.06.08-3.69v-3c0-2.65,0-3.13,0-3.67s-.17-.85-.73-1a3.68,3.68,0,0,0-.58,0c-.07,0-.14,0-.14-.1s.09-.14.27-.14c.77,0,1.84.05,1.93.05s1.15-.05,1.66-.05c.19,0,.28,0,.28.14s-.07.1-.14.1a3.14,3.14,0,0,0-.43,0c-.46.09-.59.37-.63,1s0,1,0,3.67v.36c0,.09,0,.1.1.1h7.21c.06,0,.11,0,.11-.1v-.36c0-2.65,0-3.13,0-3.67s-.17-.85-.73-1a3.48,3.48,0,0,0-.58,0c-.06,0-.13,0-.13-.1s.08-.14.27-.14c.76,0,1.84.05,1.92.05s1.16-.05,1.67-.05c.19,0,.27,0,.27.14s-.07.1-.14.1a3,3,0,0,0-.42,0c-.46.09-.6.37-.63,1s0,1,0,3.67Z" transform="translate(-18.14 -22.06)"/><path class="cls-1" d="M115.26,43.26c0-2.65,0-3.13,0-3.67s-.17-.85-.73-1a3.68,3.68,0,0,0-.58,0c-.07,0-.14,0-.14-.1s.09-.14.27-.14c.77,0,1.84.05,1.93.05s3.5,0,3.89,0a4.28,4.28,0,0,0,.73-.08c.09,0,.16-.09.24-.09s.07.07.07.16-.09.32-.14.8c0,.17,0,.91-.08,1.12s0,.19-.12.19-.14-.09-.14-.22a1.75,1.75,0,0,0-.1-.62c-.12-.27-.29-.47-1.21-.58-.29,0-2.14,0-2.33,0s-.1,0-.1.17v4.7c0,.12,0,.17.1.17s2.32,0,2.71,0,.64-.06.8-.23.18-.22.25-.22.09,0,.09.13-.09.39-.14.95c0,.34-.07,1-.07,1.09s0,.33-.12.33-.12-.07-.12-.16a2,2,0,0,0-.06-.56c-.07-.24-.22-.53-.89-.59-.46-.06-2.14-.09-2.43-.09a.11.11,0,0,0-.12.12v1.5c0,.58,0,2.55,0,2.91,0,1.17.31,1.39,2,1.39a4.85,4.85,0,0,0,1.64-.19c.44-.18.64-.52.76-1.22,0-.19.07-.26.15-.26s.11.14.11.26-.14,1.29-.22,1.65-.26.44-.92.44c-2.57,0-3.71-.1-4.2-.1-.09,0-1.16,0-1.67,0-.19,0-.27,0-.27-.14s0-.1.13-.1a2.16,2.16,0,0,0,.51-.07c.34-.07.43-.44.5-.93.08-.72.08-2.06.08-3.69Z" transform="translate(-18.14 -22.06)"/><path class="cls-1" d="M133.32,48.64A10.51,10.51,0,0,1,130,40.51,11,11,0,0,1,133.07,33c1.65-1.65,4.14-2.94,8.37-2.94a23.17,23.17,0,0,1,4,.33,23.4,23.4,0,0,0,2.8.41c.3,0,.36.14.36.31s-.08.54-.14,1.53-.05,2.42-.08,2.83-.08.58-.25.58-.22-.19-.22-.58a3.81,3.81,0,0,0-1.15-2.8,9.18,9.18,0,0,0-5.49-1.56c-3.65,0-5.35,1.07-6.31,2-2,1.92-2.48,4.36-2.48,7.17a9.91,9.91,0,0,0,9.91,10c2.06,0,3.68-.24,4.78-1.37a5.25,5.25,0,0,0,1-2.31c.05-.3.11-.41.27-.41s.19.19.19.41a29.2,29.2,0,0,1-.6,3.52c-.16.52-.22.57-.71.79a15.91,15.91,0,0,1-4.95.64C138.26,51.61,135.48,50.59,133.32,48.64Z" transform="translate(-18.14 -22.06)"/><path class="cls-1" d="M165.65,30.08c6.18,0,10.79,3.9,10.79,10.3,0,6.15-4.34,11.23-10.95,11.23-7.52,0-10.65-5.85-10.65-10.79A10.63,10.63,0,0,1,165.65,30.08Zm.58,20.48c2.47,0,7.58-1.42,7.58-9.41,0-6.59-4-10.13-8.35-10.13-4.58,0-8,3-8,9C157.45,46.44,161.29,50.56,166.23,50.56Z" transform="translate(-18.14 -22.06)"/><path class="cls-1" d="M188.14,43.31c0,4,.11,5.8.6,6.29s1.15.63,3.3.63c1.45,0,2.66,0,3.32-.82a3.9,3.9,0,0,0,.71-1.65c0-.22.08-.36.25-.36s.16.11.16.42a17.32,17.32,0,0,1-.41,2.74c-.19.63-.27.74-1.73.74-4,0-5.76-.16-7.36-.16-.24,0-1.86.08-2.69.08-.3,0-.44,0-.44-.22s.06-.16.22-.16a4.72,4.72,0,0,0,.83-.11c.55-.11.68-.72.79-1.51.14-1.16.14-3.33.14-6V38.43c0-4.28,0-5-.05-5.93s-.28-1.37-1.18-1.57a5.67,5.67,0,0,0-.94-.08c-.11,0-.22-.05-.22-.16s.14-.22.44-.22c1.24,0,3,.08,3.1.08s2.15-.08,3-.08c.3,0,.44.05.44.22s-.11.16-.22.16a7.31,7.31,0,0,0-.91.08c-.79.14-1,.61-1.07,1.57s-.05,1.65-.05,5.93Z" transform="translate(-18.14 -22.06)"/><path class="cls-1" d="M207.13,43.31c0,4,.11,5.8.61,6.29s1.15.63,3.29.63c1.46,0,2.67,0,3.32-.82a3.8,3.8,0,0,0,.72-1.65c0-.22.08-.36.24-.36s.17.11.17.42a17.32,17.32,0,0,1-.41,2.74c-.19.63-.28.74-1.73.74-4,0-5.77-.16-7.36-.16-.25,0-1.87.08-2.69.08-.3,0-.44,0-.44-.22s.06-.16.22-.16a4.49,4.49,0,0,0,.82-.11c.55-.11.69-.72.8-1.51.14-1.16.14-3.33.14-6V38.43c0-4.28,0-5-.06-5.93s-.27-1.37-1.18-1.57a5.55,5.55,0,0,0-.93-.08c-.11,0-.22-.05-.22-.16s.14-.22.44-.22c1.23,0,3,.08,3.1.08s2.14-.08,3-.08c.3,0,.44.05.44.22s-.12.16-.23.16a7.18,7.18,0,0,0-.9.08c-.8.14-1,.61-1.07,1.57s-.06,1.65-.06,5.93Z" transform="translate(-18.14 -22.06)"/><path class="cls-1" d="M223.82,38.43c0-4.28,0-5,0-5.93s-.27-1.37-1.18-1.57a5.64,5.64,0,0,0-.93-.08c-.11,0-.22-.05-.22-.16s.13-.22.44-.22c1.23,0,3,.08,3.1.08s5.65,0,6.28,0a7,7,0,0,0,1.19-.14c.13,0,.24-.13.38-.13s.11.11.11.24-.14.53-.22,1.3c0,.27-.08,1.48-.14,1.81,0,.13-.08.3-.19.3s-.22-.14-.22-.36a3.14,3.14,0,0,0-.16-1c-.2-.44-.47-.76-1.95-.93-.47-.06-3.46-.08-3.77-.08-.1,0-.16.08-.16.27v7.58c0,.19,0,.27.16.27.36,0,3.74,0,4.37,0s1-.11,1.29-.39.3-.35.41-.35.14.05.14.22-.14.63-.22,1.53c-.05.55-.11,1.57-.11,1.76s0,.52-.19.52-.19-.11-.19-.24a2.81,2.81,0,0,0-.11-.91c-.11-.38-.36-.85-1.43-1-.74-.08-3.46-.14-3.93-.14a.17.17,0,0,0-.19.19v2.42c0,.93,0,4.12,0,4.69.08,1.9.5,2.26,3.19,2.26A7.65,7.65,0,0,0,232,49.9c.71-.3,1-.85,1.24-2,.05-.3.11-.42.24-.42s.17.23.17.42a26.28,26.28,0,0,1-.36,2.66c-.19.71-.41.71-1.48.71-4.15,0-6-.16-6.78-.16-.14,0-1.87.08-2.69.08-.3,0-.44,0-.44-.22s.05-.16.22-.16a4.74,4.74,0,0,0,.82-.11c.55-.11.69-.72.8-1.51.13-1.16.13-3.33.13-6Z" transform="translate(-18.14 -22.06)"/><path class="cls-1" d="M256.35,44.22c0-2.22-.13-2.52-1.23-2.83a5.64,5.64,0,0,0-.93-.08c-.11,0-.22-.05-.22-.16s.13-.22.44-.22c1.23,0,3,.08,3.1.08s1.86-.08,2.69-.08c.3,0,.44,0,.44.22s-.11.16-.22.16a4.68,4.68,0,0,0-.69.08c-.74.14-1,.61-1,1.57s-.06,1.7-.06,2.85v3.08c0,1.23,0,1.29-.36,1.48a13.58,13.58,0,0,1-5.82,1.24c-2.08,0-6-.28-9-2.94a10.74,10.74,0,0,1-3.26-7.83,10.41,10.41,0,0,1,4.58-9,13.46,13.46,0,0,1,7.3-1.73,23.37,23.37,0,0,1,4.2.47,12.72,12.72,0,0,0,2.23.27c.27,0,.33.14.33.25a33.47,33.47,0,0,0-.2,3.9c0,.44-.05.57-.24.57s-.17-.16-.2-.41a4.13,4.13,0,0,0-.57-1.81c-.69-1-2.91-2.22-6.45-2.22a8.77,8.77,0,0,0-5.88,1.81c-1.59,1.26-2.72,3.76-2.72,7a11.23,11.23,0,0,0,2.91,7.61,10,10,0,0,0,7.2,2.94,7.57,7.57,0,0,0,3.13-.58,1,1,0,0,0,.54-1Z" transform="translate(-18.14 -22.06)"/><path class="cls-1" d="M269.72,38.43c0-4.28,0-5-.05-5.93s-.28-1.37-1.18-1.57a5.64,5.64,0,0,0-.93-.08c-.11,0-.22-.05-.22-.16s.13-.22.43-.22c1.24,0,3,.08,3.11.08s5.65,0,6.28,0a7,7,0,0,0,1.18-.14c.14,0,.25-.13.39-.13s.11.11.11.24-.14.53-.22,1.3c0,.27-.08,1.48-.14,1.81,0,.13-.08.3-.19.3s-.22-.14-.22-.36a3.14,3.14,0,0,0-.16-1c-.2-.44-.47-.76-2-.93-.47-.06-3.46-.08-3.77-.08-.11,0-.16.08-.16.27v7.58c0,.19,0,.27.16.27.36,0,3.74,0,4.37,0s1-.11,1.29-.39.3-.35.41-.35.14.05.14.22-.14.63-.22,1.53c-.06.55-.11,1.57-.11,1.76s0,.52-.19.52-.2-.11-.2-.24a3.08,3.08,0,0,0-.1-.91c-.11-.38-.36-.85-1.43-1-.74-.08-3.46-.14-3.93-.14a.17.17,0,0,0-.19.19v2.42c0,.93,0,4.12,0,4.69.08,1.9.49,2.26,3.18,2.26a7.68,7.68,0,0,0,2.64-.31c.71-.3,1-.85,1.24-2,.05-.3.11-.42.24-.42s.17.23.17.42a26.28,26.28,0,0,1-.36,2.66c-.19.71-.41.71-1.48.71-4.15,0-6-.16-6.78-.16-.14,0-1.87.08-2.69.08-.31,0-.44,0-.44-.22s.05-.16.22-.16a4.74,4.74,0,0,0,.82-.11c.55-.11.69-.72.8-1.51.13-1.16.13-3.33.13-6Z" transform="translate(-18.14 -22.06)"/><path class="cls-1" d="M294.86,38.09c3.83,0,6.69,2.42,6.69,6.38a6.68,6.68,0,0,1-6.79,7c-4.66,0-6.6-3.63-6.6-6.69A6.59,6.59,0,0,1,294.86,38.09Zm.36,12.69c1.53,0,4.7-.88,4.7-5.83,0-4.09-2.49-6.28-5.17-6.28-2.85,0-5,1.87-5,5.6C289.78,48.23,292.16,50.78,295.22,50.78Z" transform="translate(-18.14 -22.06)"/><path class="cls-1" d="M305.67,43.26c0-2.65,0-3.13,0-3.67s-.17-.85-.73-1a3.68,3.68,0,0,0-.58,0c-.07,0-.13,0-.13-.1s.08-.14.27-.14c.76,0,1.84.05,1.92.05.34,0,3.79,0,4.18,0a3.38,3.38,0,0,0,.75-.06c.11,0,.17-.11.24-.11s.1.07.1.16-.08.32-.13.8c0,.17,0,.91-.09,1.12s-.05.19-.13.19-.12-.09-.12-.21a2,2,0,0,0-.16-.65,1.29,1.29,0,0,0-1.15-.54L307.25,39c-.11,0-.16.05-.16.19v4.69c0,.1,0,.16.12.16l2.18,0c.29,0,.53,0,.77,0,.4,0,.63-.08.78-.3s.12-.17.18-.17.09.05.09.13-.09.39-.14.95c0,.34-.06,1-.06,1.14s0,.33-.12.33-.12-.07-.12-.16a3.85,3.85,0,0,0-.1-.61,1,1,0,0,0-.89-.61c-.42-.05-2.28-.05-2.57-.05-.08,0-.12,0-.12.15v1.45c0,1.63,0,3,.09,3.69.05.49.15.86.66.93a6.08,6.08,0,0,0,.77.07c.1,0,.13,0,.13.1s-.08.14-.27.14c-.93,0-2,0-2.09,0s-1.16,0-1.67,0c-.18,0-.27,0-.27-.14s0-.1.14-.1a2.31,2.31,0,0,0,.51-.07c.34-.07.42-.44.49-.93.09-.72.09-2.06.09-3.69Z" transform="translate(-18.14 -22.06)"/></svg>