<svg width="177" height="40" viewBox="0 0 177 40" fill="none" xmlns="http://www.w3.org/2000/svg">
<g clip-path="url(#clip0_4254_104)">
<path d="M51.0919 22.7081C53.4126 22.7081 54.9922 24.2375 54.9922 26.4713C54.9922 28.7381 53.4126 30.3 51.125 30.3C48.7839 30.3 47.1476 28.7263 47.1476 26.4713C47.1482 24.2156 48.7285 22.7081 51.0919 22.7081ZM51.104 23.8031C49.6345 23.8031 48.596 24.9319 48.596 26.5363C48.596 28.0981 49.623 29.1925 51.0702 29.1925C52.5289 29.1925 53.545 28.0875 53.545 26.4938C53.545 24.9094 52.5512 23.8031 51.104 23.8031Z" fill="#005D7D"/>
<path d="M57.8128 24.973V28.6968C57.8128 29.6362 57.9146 29.9262 58.2827 30.0074V30.1162C57.7396 30.098 57.5186 30.098 57.2238 30.098C56.9208 30.098 56.7088 30.098 56.1746 30.1162V30.0074C56.5426 29.9262 56.6349 29.6549 56.6349 28.6968V25.5068C56.6349 24.5487 56.533 24.2687 56.1746 24.2055V24.0874H58.4571C59.2402 24.0874 59.6363 24.1599 60.0507 24.3762C60.5932 24.6662 60.8975 25.1812 60.8975 25.8224C60.8975 26.5905 60.4913 27.1143 59.7095 27.3768L61.0911 29.4818C61.3299 29.853 61.44 29.9524 61.652 30.0155V30.1243C61.3299 30.1605 61.0542 30.1787 60.8332 30.1787C60.2806 30.1787 60.0412 30.0437 59.7095 29.5005L58.1076 26.9349L58.163 26.8624C58.2827 26.8799 58.3374 26.8893 58.4393 26.8893C59.1944 26.8893 59.691 26.4912 59.691 25.9043C59.691 25.2812 59.2122 24.9374 58.3743 24.9374C58.1445 24.9368 58.0522 24.9368 57.8128 24.973Z" fill="#005D7D"/>
<path d="M62.1958 24.2055V24.0874H64.3866C65.3251 24.0874 66.0255 24.2587 66.587 24.6299C67.3874 25.163 67.8483 26.0574 67.8483 27.1055C67.8483 28.9949 66.5781 30.1155 64.4236 30.1155H62.1958V30.0068C62.5638 29.9255 62.6561 29.663 62.6561 28.6962V25.5062C62.6561 24.548 62.5542 24.268 62.1958 24.2055ZM63.8333 25.0368V28.4618C63.8333 29.0949 63.9448 29.2112 64.598 29.2112C65.8599 29.2112 66.6418 28.4255 66.6418 27.1418C66.6418 25.8224 65.795 24.9812 64.4688 24.9812C64.2574 24.9818 64.1383 24.9912 63.8333 25.0368Z" fill="#005D7D"/>
<path d="M70.5173 24.973V28.6968C70.5173 29.6362 70.6192 29.9262 70.9878 30.0074V30.1162C70.4447 30.098 70.2232 30.098 69.929 30.098C69.6247 30.098 69.4133 30.098 68.8791 30.1162V30.0074C69.2477 29.9262 69.3401 29.6549 69.3401 28.6968V25.5068C69.3401 24.5487 69.2382 24.2687 68.8791 24.2055V24.0874H71.1623C71.9448 24.0874 72.3414 24.1599 72.7553 24.3762C73.2977 24.6662 73.6021 25.1812 73.6021 25.8224C73.6021 26.5905 73.1971 27.1143 72.414 27.3768L73.7956 29.4818C74.0357 29.853 74.1452 29.9524 74.3578 30.0155V30.1243C74.0357 30.1605 73.7593 30.1787 73.5378 30.1787C72.9858 30.1787 72.7457 30.0437 72.414 29.5005L70.8127 26.9349L70.8681 26.8624C70.9878 26.8799 71.0426 26.8893 71.1444 26.8893C71.8983 26.8893 72.3955 26.4912 72.3955 25.9043C72.3955 25.2812 71.9174 24.9374 71.0801 24.9374C70.8497 24.9368 70.7573 24.9368 70.5173 24.973Z" fill="#005D7D"/>
<path d="M76.5391 24.9818V26.4912H77.5521C78.1684 26.4912 78.4269 26.3737 78.5549 26.0393H78.6657C78.6472 26.4193 78.6472 26.5724 78.6472 26.8887C78.6472 27.2237 78.6472 27.3862 78.6657 27.8012H78.5549C78.4543 27.4943 78.1869 27.3768 77.5706 27.3768H76.5391V28.7324C76.5391 29.1574 76.6314 29.2293 77.1924 29.2293H77.81C78.4817 29.2293 78.7943 29.0855 78.914 28.7324L79.0248 28.7499L78.8777 30.1162H74.9003V29.9987C75.2689 29.9268 75.3606 29.6549 75.3606 28.6874V25.5068C75.3606 24.5305 75.2689 24.2687 74.9003 24.1955V24.0874H78.9057V25.4062H78.7854C78.6472 25.063 78.4269 24.9812 77.7457 24.9812L76.5391 24.9818Z" fill="#005D7D"/>
<path d="M82.5972 24.2055V24.0874H84.7881C85.7272 24.0874 86.4263 24.2587 86.9885 24.6299C87.7888 25.163 88.2498 26.0574 88.2498 27.1055C88.2498 28.9949 86.9783 30.1155 84.8244 30.1155H82.5972V30.0068C82.9659 29.9255 83.0576 29.663 83.0576 28.6962V25.5062C83.0576 24.548 82.9557 24.268 82.5972 24.2055ZM84.2361 25.0368V28.4618C84.2361 29.0949 84.3469 29.2112 85.0001 29.2112C86.2608 29.2112 87.0439 28.4255 87.0439 27.1418C87.0439 25.8224 86.1958 24.9812 84.8702 24.9812C84.6588 24.9818 84.5391 24.9912 84.2361 25.0368Z" fill="#005D7D"/>
<path d="M90.9201 24.9818V26.4912H91.9324C92.55 26.4912 92.8072 26.3737 92.9345 26.0393H93.046C93.0281 26.4193 93.0281 26.5724 93.0281 26.8887C93.0281 27.2237 93.0281 27.3862 93.046 27.8012H92.9345C92.8346 27.4943 92.5672 27.3768 91.9509 27.3768H90.9201V28.7324C90.9201 29.1574 91.0124 29.2293 91.5733 29.2293H92.1896C92.8626 29.2293 93.1746 29.0855 93.2949 28.7324L93.4051 28.7499L93.258 30.1162H89.2812V29.9987C89.6486 29.9268 89.7422 29.6549 89.7422 28.6874V25.5068C89.7422 24.5305 89.6492 24.2687 89.2812 24.1955V24.0874H93.286V25.4062H93.1663C93.0275 25.063 92.8072 24.9812 92.1253 24.9812L90.9201 24.9818Z" fill="#005D7D"/>
<path d="M97.8422 24.0875V25.4063H97.7142C97.4296 25.0263 96.9686 24.8106 96.4255 24.8106C95.9015 24.8106 95.5138 25.1175 95.5138 25.5331C95.5138 25.9219 95.6602 26.0481 96.7662 26.6C97.485 26.9613 97.8256 27.2869 97.9912 27.7656C98.0644 27.9731 98.1007 28.19 98.1007 28.4256C98.1007 29.5456 97.245 30.2688 95.9105 30.2688C95.4221 30.2688 94.9522 30.1781 94.4002 29.9794L94.2805 28.75L94.3996 28.7413C94.7224 29.1575 95.2368 29.3831 95.8455 29.3831C96.4797 29.3831 96.9508 28.995 96.9508 28.4713C96.9508 28.0719 96.7197 27.8106 96.0753 27.4944C95.0337 26.9788 94.7218 26.7263 94.4995 26.2388C94.4174 26.0481 94.3716 25.8319 94.3716 25.605C94.3716 24.6294 95.1623 23.9425 96.2765 23.9425C96.5994 23.9425 96.8387 23.9794 97.2895 24.0963C97.3825 24.1238 97.492 24.1406 97.548 24.1406C97.6028 24.1406 97.6403 24.1319 97.7136 24.0869L97.8422 24.0875Z" fill="#005D7D"/>
<path d="M101.632 24.1543V24.0361L102.093 24.0461C102.315 24.0555 102.517 24.0555 102.701 24.0555C102.876 24.0555 103.068 24.0555 103.262 24.0461L103.742 24.0361V24.1543C103.383 24.218 103.272 24.5161 103.272 25.4561V28.6461C103.272 29.5861 103.374 29.8755 103.742 29.9574V30.0661C103.235 30.0468 103.034 30.0468 102.645 30.0468C102.288 30.0468 102.103 30.0468 101.632 30.0661V29.9574C102.001 29.8755 102.093 29.6049 102.093 28.6461V25.4561C102.093 24.498 101.992 24.218 101.632 24.1543Z" fill="#005D7D"/>
<path d="M105.251 23.7656L109.247 27.905V25.4562C109.247 24.4619 109.145 24.1819 108.758 24.1544V24.0362L109.247 24.0462L109.772 24.0556L110.296 24.0462L110.756 24.0362V24.1544C110.407 24.2181 110.305 24.4981 110.305 25.4562V30.3H110.176L106.19 26.1875V28.6462C106.19 29.6312 106.282 29.9025 106.669 29.9575V30.0662C106.135 30.0469 105.913 30.0469 105.647 30.0469C105.39 30.0469 105.179 30.0469 104.661 30.0662V29.9575C105.03 29.8756 105.123 29.605 105.123 28.6462V23.7656H105.251Z" fill="#005D7D"/>
<path d="M113.316 24.933V26.4236H114.236C114.871 26.4236 115.177 26.3061 115.304 25.9986H115.415V26.2699C115.405 26.4505 115.405 26.8211 115.405 27.0743C115.405 27.3549 115.405 27.4355 115.415 27.7249H115.304C115.138 27.3993 114.909 27.318 114.236 27.318H113.316V28.6468C113.316 29.5868 113.427 29.8761 113.786 29.958V30.0668C113.288 30.0568 113.076 30.0474 112.725 30.0474C112.368 30.0474 112.174 30.0574 111.677 30.0668V29.958C112.035 29.8855 112.138 29.5968 112.138 28.6468V25.4561C112.138 24.5068 112.036 24.218 111.677 24.1449V24.0355H115.644V25.3374H115.534C115.396 25.0124 115.185 24.9324 114.448 24.9324H113.316" fill="#005D7D"/>
<path d="M116.538 24.1543V24.0361L116.998 24.0461C117.22 24.0555 117.421 24.0555 117.606 24.0555C117.781 24.0555 117.974 24.0555 118.168 24.0461L118.647 24.0361V24.1543C118.288 24.218 118.177 24.5161 118.177 25.4561V28.6461C118.177 29.5861 118.278 29.8755 118.647 29.9574V30.0661C118.14 30.0468 117.938 30.0468 117.55 30.0468C117.192 30.0468 117.008 30.0468 116.538 30.0661V29.9574C116.906 29.8755 116.998 29.6049 116.998 28.6461V25.4561C116.998 24.498 116.897 24.218 116.538 24.1543Z" fill="#005D7D"/>
<path d="M121.206 24.9218V28.6461C121.206 29.5861 121.307 29.8755 121.675 29.9574V30.0661C121.131 30.0468 120.911 30.0468 120.617 30.0468C120.312 30.0468 120.1 30.0468 119.567 30.0661V29.9574C119.935 29.8755 120.027 29.6049 120.027 28.6461V25.4561C120.027 24.498 119.926 24.218 119.567 24.1543V24.0361H121.85C122.632 24.0361 123.029 24.1093 123.442 24.3268C123.986 24.6155 124.29 25.1305 124.29 25.7724C124.29 26.5405 123.885 27.0636 123.102 27.3261L124.483 29.4318C124.723 29.8018 124.834 29.9018 125.045 29.9655V30.0743C124.723 30.1099 124.447 30.128 124.226 30.128C123.674 30.128 123.435 29.993 123.102 29.4511L121.5 26.8849L121.555 26.8118C121.675 26.8299 121.73 26.8386 121.831 26.8386C122.587 26.8386 123.084 26.4418 123.084 25.8543C123.084 25.2311 122.606 24.8868 121.767 24.8868C121.537 24.8861 121.445 24.8861 121.206 24.9218Z" fill="#005D7D"/>
<path d="M129.27 28.1405L131.342 23.7293H131.488L132.916 29.1605C133.054 29.6761 133.145 29.8293 133.422 29.9561V30.0649C132.879 30.0455 132.676 30.0455 132.391 30.0455C132.115 30.0455 131.939 30.0455 131.517 30.0649V29.9561C131.701 29.8924 131.783 29.7849 131.783 29.613C131.783 29.5493 131.766 29.4043 131.746 29.3136L131.13 26.4036L129.325 30.2536H129.169L127.355 26.4036L126.721 29.3055C126.673 29.4949 126.654 29.5849 126.654 29.6574C126.654 29.8005 126.747 29.9011 126.921 29.9561V30.0649C126.544 30.0455 126.397 30.0455 126.056 30.0455C125.707 30.0455 125.559 30.0455 125.182 30.0649V29.9561C125.45 29.8655 125.504 29.7749 125.68 29.0874L127.05 23.7286H127.188L129.27 28.1405Z" fill="#005D7D"/>
<path d="M133.939 24.1543V24.0361L134.398 24.0461C134.619 24.0555 134.821 24.0555 135.006 24.0555C135.182 24.0555 135.374 24.0555 135.567 24.0461L136.046 24.0361V24.1543C135.688 24.218 135.578 24.5161 135.578 25.4561V28.6461C135.578 29.5861 135.678 29.8755 136.046 29.9574V30.0661C135.539 30.0468 135.338 30.0468 134.95 30.0468C134.591 30.0468 134.407 30.0468 133.939 30.0661V29.9574C134.306 29.8755 134.398 29.6049 134.398 28.6461V25.4561C134.398 24.498 134.297 24.218 133.939 24.1543Z" fill="#005D7D"/>
<path d="M138.606 24.933V26.4418H139.619C140.235 26.4418 140.493 26.3236 140.621 25.9893H140.733C140.714 26.368 140.714 26.5224 140.714 26.838C140.714 27.173 140.714 27.3349 140.733 27.7511H140.621C140.52 27.4443 140.253 27.3261 139.637 27.3261H138.606V28.6824C138.606 29.1074 138.697 29.1793 139.259 29.1793H139.876C140.548 29.1793 140.861 29.0349 140.98 28.6824L141.091 28.7005L140.945 30.0655H136.966V29.9468C137.335 29.8755 137.426 29.6043 137.426 28.6374V25.4561C137.426 24.4799 137.335 24.218 136.966 24.1449V24.0355H140.972V25.3555H140.852C140.713 25.0124 140.493 24.9318 139.812 24.9318H138.606" fill="#005D7D"/>
<path d="M143.631 24.9218V28.6461C143.631 29.5861 143.734 29.8755 144.102 29.9574V30.0661C143.558 30.0468 143.338 30.0468 143.043 30.0468C142.74 30.0468 142.528 30.0468 141.994 30.0661V29.9574C142.362 29.8755 142.454 29.6049 142.454 28.6461V25.4561C142.454 24.498 142.353 24.218 141.994 24.1543V24.0361H144.277C145.059 24.0361 145.456 24.1093 145.871 24.3268C146.413 24.6155 146.717 25.1305 146.717 25.7724C146.717 26.5405 146.311 27.0636 145.53 27.3261L146.911 29.4318C147.15 29.8018 147.26 29.9018 147.472 29.9655V30.0743C147.15 30.1099 146.874 30.128 146.653 30.128C146.1 30.128 145.86 29.993 145.53 29.4511L143.927 26.8849L143.982 26.8118C144.102 26.8299 144.158 26.8386 144.259 26.8386C145.014 26.8386 145.511 26.4418 145.511 25.8543C145.511 25.2311 145.032 24.8868 144.195 24.8868C143.963 24.8861 143.871 24.8861 143.631 24.9218Z" fill="#005D7D"/>
<path d="M149.653 24.933V26.4418H150.666C151.283 26.4418 151.541 26.3236 151.669 25.9893H151.781C151.762 26.368 151.762 26.5224 151.762 26.838C151.762 27.173 151.762 27.3349 151.781 27.7511H151.669C151.569 27.4443 151.301 27.3261 150.684 27.3261H149.653V28.6824C149.653 29.1074 149.746 29.1793 150.307 29.1793H150.924C151.597 29.1793 151.908 29.0349 152.028 28.6824L152.139 28.7005L151.992 30.0655H148.015V29.9468C148.383 29.8755 148.476 29.6043 148.476 28.6374V25.4561C148.476 24.4799 148.383 24.218 148.015 24.1449V24.0355H152.019V25.3555H151.9C151.762 25.0124 151.541 24.9318 150.859 24.9318H149.653" fill="#005D7D"/>
<path d="M156.577 24.0362V25.3562H156.448C156.162 24.9769 155.702 24.7594 155.16 24.7594C154.634 24.7594 154.247 25.0669 154.247 25.4831C154.247 25.8719 154.395 25.9981 155.5 26.5494C156.218 26.9112 156.558 27.2362 156.725 27.715C156.797 27.9231 156.835 28.1406 156.835 28.375C156.835 29.4956 155.979 30.2187 154.644 30.2187C154.157 30.2187 153.686 30.1275 153.134 29.93L153.014 28.7006L153.134 28.6906C153.457 29.1069 153.972 29.3325 154.58 29.3325C155.215 29.3325 155.685 28.9437 155.685 28.4194C155.685 28.0206 155.454 27.76 154.808 27.4431C153.769 26.9269 153.456 26.675 153.235 26.1862C153.152 25.9969 153.105 25.78 153.105 25.5537C153.105 24.5781 153.898 23.8912 155.011 23.8912C155.333 23.8912 155.573 23.9275 156.025 24.0444C156.118 24.0719 156.227 24.09 156.282 24.09C156.337 24.09 156.375 24.0806 156.448 24.0344H156.577" fill="#005D7D"/>
<path d="M139.252 23.6062H138.571L137.467 22.4399H138.598L139.252 23.6062Z" fill="#005D7D"/>
<path d="M48.7883 33.8075V35.3162H49.8C50.417 35.3162 50.6748 35.1987 50.8041 34.8644H50.9136C50.8964 35.2431 50.8964 35.3981 50.8964 35.7137C50.8964 36.0468 50.8964 36.2106 50.9136 36.6262H50.8041C50.7016 36.3194 50.4354 36.2012 49.8191 36.2012H48.7883V37.5568C48.7883 37.9819 48.8794 38.0544 49.4422 38.0544H50.0579C50.7302 38.0544 51.0428 37.91 51.1632 37.5568L51.2733 37.575L51.1256 38.94H47.1482V38.8225C47.5175 38.75 47.6092 38.4781 47.6092 37.5112V34.33C47.6092 33.3544 47.5169 33.0925 47.1482 33.02V32.9125H51.1536V34.2319H51.0339C50.8964 33.8881 50.6755 33.8069 49.9936 33.8069L48.7883 33.8075Z" fill="#005D7D"/>
<path d="M54.8 33.8156V37.5212C54.8 38.4519 54.9101 38.7506 55.2966 38.8319V38.9406C54.7446 38.9225 54.5141 38.9225 54.2015 38.9225C53.8882 38.9225 53.6762 38.9225 53.1509 38.9406V38.8319C53.5202 38.7506 53.6214 38.4794 53.6214 37.5212V33.8156H53.1611C52.5161 33.8156 52.2589 33.9156 52.1214 34.2219H52.0011L52.1214 32.9119H56.3376L56.456 34.2219H56.3376C56.1892 33.9156 55.932 33.8156 55.2966 33.8156H54.8Z" fill="#005D7D"/>
<path d="M59.8718 33.03V32.9125L60.3315 32.9212C60.5537 32.9312 60.7556 32.9312 60.9402 32.9312C61.1159 32.9312 61.3089 32.9312 61.5018 32.9212L61.9799 32.9125V33.03C61.6221 33.0937 61.5107 33.3912 61.5107 34.3312V37.5212C61.5107 38.4606 61.6119 38.7506 61.9799 38.8319V38.9406C61.4738 38.9225 61.2719 38.9225 60.8848 38.9225C60.5257 38.9225 60.3411 38.9225 59.8718 38.9406V38.8319C60.2405 38.7506 60.3315 38.4794 60.3315 37.5212V34.3312C60.3315 33.3725 60.2309 33.0931 59.8718 33.03Z" fill="#005D7D"/>
<path d="M63.4902 32.6418L67.4867 36.7806V34.3312C67.4867 33.3375 67.3848 33.0568 66.9977 33.03V32.9125L67.4867 32.9212L68.0107 32.9312L68.5359 32.9212L68.9956 32.9125V33.03C68.6461 33.0937 68.5448 33.3731 68.5448 34.3312V39.175H68.415L64.4299 35.0631V37.5218C64.4299 38.5075 64.5216 38.7787 64.9087 38.8325V38.9412C64.3739 38.9231 64.1523 38.9231 63.8862 38.9231C63.629 38.9231 63.4176 38.9231 62.9012 38.9412V38.8325C63.2705 38.7512 63.3628 38.48 63.3628 37.5218V32.6418H63.4902Z" fill="#005D7D"/>
<path d="M71.5538 33.8075V35.2981H72.4758C73.1112 35.2981 73.4155 35.1806 73.5435 34.8737H73.6543V35.145C73.6454 35.325 73.6454 35.6962 73.6454 35.9487C73.6454 36.2294 73.6454 36.31 73.6543 36.6H73.5435C73.378 36.2744 73.1481 36.1931 72.4758 36.1931H71.5538V37.5219C71.5538 38.4612 71.6653 38.7512 72.0244 38.8325V38.9412C71.5265 38.9325 71.3151 38.9231 70.9655 38.9231C70.6071 38.9231 70.4123 38.9331 69.9169 38.9412V38.8325C70.276 38.7606 70.3766 38.4712 70.3766 37.5219V34.3312C70.3766 33.3825 70.276 33.0937 69.9169 33.0212V32.9125H73.8841V34.2137H73.774C73.6358 33.8881 73.4232 33.8075 72.6865 33.8075H71.5538Z" fill="#005D7D"/>
<path d="M74.778 33.03V32.9125L75.2377 32.9212C75.4587 32.9312 75.6605 32.9312 75.8458 32.9312C76.0209 32.9312 76.2138 32.9312 76.4067 32.9212L76.8848 32.9125V33.03C76.527 33.0937 76.4162 33.3912 76.4162 34.3312V37.5212C76.4162 38.4606 76.5175 38.7506 76.8848 38.8319V38.9406C76.3793 38.9225 76.1768 38.9225 75.7897 38.9225C75.4313 38.9225 75.2473 38.9225 74.778 38.9406V38.8319C75.1454 38.7506 75.2377 38.4794 75.2377 37.5212V34.3312C75.2377 33.3725 75.1365 33.0931 74.778 33.03Z" fill="#005D7D"/>
<path d="M79.445 33.7975V37.5212C79.445 38.4606 79.5462 38.7506 79.9142 38.8319V38.9406C79.3705 38.9225 79.1496 38.9225 78.8554 38.9225C78.5511 38.9225 78.3403 38.9225 77.8061 38.9406V38.8319C78.1748 38.7506 78.2665 38.4794 78.2665 37.5212V34.3312C78.2665 33.3731 78.1659 33.0937 77.8061 33.03V32.9125H80.0887C80.8724 32.9125 81.2678 32.9844 81.6823 33.2019C82.2261 33.49 82.5291 34.0062 82.5291 34.6469C82.5291 35.415 82.1242 35.9394 81.341 36.2012L82.722 38.3062C82.9614 38.6775 83.0722 38.7775 83.2842 38.84V38.9481C82.9621 38.9844 82.6857 39.0025 82.4648 39.0025C81.9122 39.0025 81.6734 38.8675 81.341 38.325L79.7391 35.7587L79.7945 35.6856C79.9142 35.7037 79.9696 35.7137 80.0709 35.7137C80.8266 35.7137 81.3232 35.3156 81.3232 34.7287C81.3232 34.105 80.8438 33.7612 80.0065 33.7612C79.7761 33.7619 79.6844 33.7619 79.445 33.7975Z" fill="#005D7D"/>
<path d="M87.5099 37.0156L89.5811 32.6044H89.7288L91.155 38.0369C91.2938 38.5506 91.3855 38.7044 91.6618 38.8313V38.94C91.1181 38.9219 90.915 38.9219 90.6304 38.9219C90.3547 38.9219 90.1796 38.9219 89.7555 38.94V38.8313C89.9395 38.7675 90.023 38.66 90.023 38.4881C90.023 38.4244 90.0051 38.2794 89.9854 38.1888L89.3691 35.2788L87.5647 39.1294H87.4087L85.5948 35.2788L84.9581 38.1806C84.9135 38.3706 84.8938 38.46 84.8938 38.5331C84.8938 38.6769 84.9861 38.7775 85.1612 38.8313V38.94C84.783 38.9219 84.6359 38.9219 84.2959 38.9219C83.947 38.9219 83.7987 38.9219 83.4211 38.94V38.8313C83.6879 38.7406 83.7433 38.6506 83.919 37.9631L85.2904 32.6038H85.4286L87.5099 37.0156Z" fill="#005D7D"/>
<path d="M92.1775 33.03V32.9125L92.6378 32.9212C92.8588 32.9312 93.0612 32.9312 93.2452 32.9312C93.4197 32.9312 93.6132 32.9312 93.8074 32.9212L94.2856 32.9125V33.03C93.9271 33.0937 93.8157 33.3912 93.8157 34.3312V37.5212C93.8157 38.4606 93.917 38.7506 94.2856 38.8319V38.9406C93.7794 38.9225 93.577 38.9225 93.1898 38.9225C92.8308 38.9225 92.6468 38.9225 92.1775 38.9406V38.8319C92.5449 38.7506 92.6378 38.4794 92.6378 37.5212V34.3312C92.6378 33.3725 92.5366 33.0931 92.1775 33.03Z" fill="#005D7D"/>
<path d="M96.8451 33.8075V35.3162H97.8574C98.4738 35.3162 98.7323 35.1987 98.8615 34.8644H98.9723C98.9525 35.2431 98.9526 35.3981 98.9526 35.7137C98.9526 36.0468 98.9525 36.2106 98.9723 36.6262H98.8615C98.7603 36.3194 98.4929 36.2012 97.8753 36.2012H96.8451V37.5568C96.8451 37.9819 96.9368 38.0544 97.4977 38.0544H98.1147C98.7876 38.0544 99.1003 37.91 99.2193 37.5568L99.3301 37.575L99.1837 38.94H95.2069V38.8225C95.5749 38.75 95.6666 38.4781 95.6666 37.5112V34.33C95.6666 33.3544 95.5749 33.0925 95.2069 33.02V32.9125H99.2117V34.2319H99.092C98.9525 33.8881 98.7329 33.8069 98.051 33.8069L96.8451 33.8075Z" fill="#005D7D"/>
<path d="M101.872 33.7975V37.5212C101.872 38.4606 101.973 38.7506 102.341 38.8319V38.9406C101.797 38.9225 101.577 38.9225 101.283 38.9225C100.979 38.9225 100.766 38.9225 100.233 38.9406V38.8319C100.601 38.7506 100.694 38.4794 100.694 37.5212V34.3312C100.694 33.3731 100.593 33.0937 100.233 33.03V32.9125H102.515C103.299 32.9125 103.695 32.9844 104.108 33.2019C104.652 33.49 104.956 34.0062 104.956 34.6469C104.956 35.415 104.551 35.9394 103.769 36.2012L105.15 38.3062C105.389 38.6775 105.5 38.7775 105.711 38.84V38.9481C105.389 38.9844 105.113 39.0025 104.892 39.0025C104.34 39.0025 104.1 38.8675 103.769 38.325L102.165 35.7587L102.22 35.6856C102.341 35.7037 102.396 35.7137 102.498 35.7137C103.253 35.7137 103.751 35.3156 103.751 34.7287C103.751 34.105 103.272 33.7612 102.433 33.7612C102.203 33.7619 102.111 33.7619 101.872 33.7975Z" fill="#005D7D"/>
<path d="M109.79 32.9124V34.2318H109.66C109.375 33.8518 108.915 33.6349 108.371 33.6349C107.846 33.6349 107.46 33.9424 107.46 34.3574C107.46 34.7468 107.606 34.873 108.712 35.4243C109.429 35.7855 109.772 36.1118 109.937 36.5899C110.011 36.7968 110.048 37.0149 110.048 37.2499C110.048 38.3705 109.191 39.0936 107.857 39.0936C107.367 39.0936 106.899 39.0024 106.346 38.8043L106.226 37.5749L106.346 37.5655C106.669 37.9811 107.184 38.2068 107.792 38.2068C108.427 38.2068 108.898 37.8186 108.898 37.2943C108.898 36.8961 108.667 36.6343 108.023 36.318C106.982 35.803 106.669 35.5499 106.448 35.0611C106.364 34.8718 106.319 34.6549 106.319 34.428C106.319 33.4524 107.11 32.7655 108.224 32.7655C108.547 32.7655 108.786 32.8024 109.238 32.9193C109.329 32.9461 109.439 32.9643 109.494 32.9643C109.55 32.9643 109.587 32.9555 109.66 32.9105H109.79" fill="#005D7D"/>
<path d="M131.922 32.9149H133.055L131.95 34.0805H131.268L131.922 32.9149Z" fill="#005D7D"/>
<path d="M112.99 33.03V32.9125H115.181C116.12 32.9125 116.82 33.0837 117.382 33.4544C118.183 33.9881 118.642 34.8818 118.642 35.93C118.642 37.8193 117.371 38.94 115.217 38.94H112.989V38.8312C113.357 38.7494 113.449 38.4887 113.449 37.5219V34.3312C113.45 33.3725 113.349 33.0925 112.99 33.03ZM114.628 33.8612V37.2862C114.628 37.9187 114.739 38.0362 115.393 38.0362C116.654 38.0362 117.437 37.2506 117.437 35.9662C117.437 34.6469 116.59 33.8069 115.265 33.8069C115.053 33.8075 114.932 33.8156 114.628 33.8612Z" fill="#005D7D"/>
<path d="M121.312 33.8075V35.3156H122.325C122.942 35.3156 123.199 35.1987 123.329 34.8644H123.439C123.421 35.2431 123.421 35.3981 123.421 35.7137C123.421 36.0475 123.421 36.2106 123.439 36.6256H123.329C123.227 36.3187 122.96 36.2012 122.344 36.2012H121.312V37.5575C121.312 37.9818 121.405 38.0537 121.965 38.0537H122.583C123.255 38.0537 123.568 37.91 123.687 37.5575L123.798 37.575L123.65 38.94H119.674V38.8225C120.042 38.7494 120.134 38.4787 120.134 37.5119V34.3306C120.134 33.3544 120.042 33.0925 119.674 33.0194V32.9125H123.678V34.2312H123.559C123.42 33.8875 123.199 33.8069 122.518 33.8069L121.312 33.8075Z" fill="#005D7D"/>
<path d="M131.265 37.585L131.117 38.9406H127.369V38.8312C127.738 38.7687 127.832 38.4794 127.832 37.5219V34.3312C127.832 33.3825 127.73 33.0844 127.369 33.03V32.9125L127.832 32.9212C128.071 32.93 128.264 32.93 128.429 32.93C128.595 32.93 128.789 32.93 129.02 32.9212L129.47 32.9125V33.03C129.12 33.0931 129.009 33.3912 129.009 34.3312V37.07C129.009 37.6569 129.02 37.775 129.092 37.8737C129.174 38 129.322 38.0369 129.691 38.0369H130.132C130.712 38.0369 130.989 37.9106 131.144 37.5675L131.265 37.585Z" fill="#005D7D"/>
<path d="M137.73 31.5331C140.05 31.5331 141.63 33.0618 141.63 35.2962C141.63 37.5625 140.05 39.1237 137.763 39.1237C135.421 39.1237 133.785 37.5506 133.785 35.2962C133.785 33.0406 135.366 31.5331 137.73 31.5331ZM137.741 32.6287C136.272 32.6287 135.234 33.7562 135.234 35.3612C135.234 36.9225 136.26 38.0187 137.709 38.0187C139.167 38.0187 140.183 36.9125 140.183 35.3175C140.182 33.7343 139.189 32.6287 137.741 32.6287Z" fill="#005D7D"/>
<path d="M143.402 32.6419L147.395 36.78V34.3312C147.395 33.3369 147.295 33.0569 146.908 33.03V32.9125L147.395 32.9212L147.921 32.93L148.446 32.9212L148.905 32.9125V33.03C148.556 33.0931 148.455 33.3731 148.455 34.3312V39.175H148.326L144.339 35.0637V37.5225C144.339 38.5062 144.432 38.7787 144.818 38.8319V38.9412C144.284 38.9231 144.063 38.9231 143.797 38.9231C143.539 38.9231 143.328 38.9231 142.812 38.9412V38.8312C143.179 38.7494 143.272 38.4794 143.272 37.5219V32.6412L143.402 32.6419Z" fill="#005D7D"/>
<path d="M152.451 33.8156V37.5219C152.451 38.4519 152.562 38.7494 152.948 38.8312V38.9406C152.396 38.9225 152.165 38.9225 151.852 38.9225C151.539 38.9225 151.327 38.9225 150.802 38.9406V38.8312C151.17 38.7494 151.272 38.4794 151.272 37.5219V33.8156H150.812C150.167 33.8156 149.909 33.9144 149.771 34.2231H149.651L149.771 32.9119H153.988L154.108 34.2231H153.988C153.84 33.9144 153.582 33.8156 152.947 33.8156H152.451Z" fill="#005D7D"/>
<path d="M158.575 37.53H156.265L155.943 38.2631C155.887 38.3887 155.859 38.4975 155.859 38.5787C155.859 38.705 155.934 38.7869 156.09 38.8231V38.9406C155.592 38.9225 155.381 38.9225 155.004 38.9225C154.699 38.9225 154.598 38.9225 154.285 38.9406V38.8231C154.506 38.7319 154.58 38.6331 154.81 38.1362L157.388 32.6044H157.545L160.141 38.2081C160.287 38.5419 160.436 38.7231 160.637 38.8225V38.94C160.268 38.9219 160.122 38.9219 159.8 38.9219C159.578 38.9219 159.357 38.9219 159.138 38.9306L158.695 38.9406V38.8231C158.87 38.7956 158.954 38.6969 158.954 38.5519C158.954 38.4794 158.915 38.3337 158.87 38.2175L158.575 37.53ZM158.235 36.635L157.433 34.7375L156.632 36.635H158.235Z" fill="#005D7D"/>
<path d="M162.82 33.7975V37.5219C162.82 38.4606 162.921 38.7494 163.289 38.8312V38.9406C162.746 38.9225 162.525 38.9225 162.23 38.9225C161.927 38.9225 161.715 38.9225 161.182 38.9406V38.8312C161.549 38.7494 161.64 38.4794 161.64 37.5219V34.3312C161.64 33.3731 161.539 33.0931 161.182 33.03V32.9125H163.464C164.246 32.9125 164.642 32.9844 165.057 33.2012C165.599 33.4906 165.904 34.0056 165.904 34.6469C165.904 35.415 165.499 35.9394 164.716 36.2012L166.097 38.3062C166.336 38.6775 166.446 38.7775 166.659 38.84V38.9481C166.336 38.9844 166.061 39.0019 165.839 39.0019C165.287 39.0019 165.048 38.8675 164.716 38.3244L163.114 35.7587L163.17 35.6856C163.289 35.7037 163.344 35.7137 163.445 35.7137C164.201 35.7137 164.698 35.315 164.698 34.7281C164.698 34.105 164.22 33.7619 163.382 33.7619C163.151 33.7625 163.059 33.7625 162.82 33.7975Z" fill="#005D7D"/>
<path d="M167.202 33.03V32.9125L167.662 32.9212C167.883 32.93 168.086 32.93 168.27 32.93C168.445 32.93 168.638 32.93 168.832 32.9212L169.31 32.9125V33.03C168.952 33.0931 168.841 33.3912 168.841 34.3312V37.5219C168.841 38.4606 168.941 38.7494 169.31 38.8312V38.9406C168.803 38.9225 168.601 38.9225 168.216 38.9225C167.855 38.9225 167.672 38.9225 167.202 38.9406V38.8312C167.57 38.7494 167.662 38.4794 167.662 37.5219V34.3312C167.662 33.3725 167.56 33.0925 167.202 33.03Z" fill="#005D7D"/>
<path d="M173.628 32.7681C175.561 32.7681 176.878 34.0418 176.878 35.9037C176.878 37.7924 175.562 39.0943 173.655 39.0943C171.704 39.0943 170.341 37.7837 170.341 35.9037C170.341 34.0237 171.658 32.7681 173.628 32.7681ZM173.636 33.6806C172.413 33.6806 171.547 34.6206 171.547 35.9581C171.547 37.2599 172.404 38.1718 173.609 38.1718C174.824 38.1718 175.671 37.2512 175.671 35.9218C175.671 34.6018 174.844 33.6806 173.636 33.6806Z" fill="#005D7D"/>
<path d="M40.7157 19.8512C40.7157 19.8512 40.7157 23.2838 40.7157 31.4137C40.7157 39.5438 33.9038 39.7019 33.9038 39.7019H6.81259C6.81259 39.7019 0 39.5431 0 31.4131C0 23.2831 0 19.8506 0 19.8506C0 19.8506 0 16.4181 0 8.28813C0 0.158125 6.81259 0 6.81259 0H33.9038C33.9038 0 40.7157 0.15875 40.7157 8.28875C40.7157 16.4188 40.7157 19.8512 40.7157 19.8512Z" fill="#005D7D"/>
<path d="M38.5612 12.9025H35.5808C37.3712 11.9756 38.4759 10.1506 38.4759 7.83062C38.4759 4.48062 36.1061 2.18687 32.6266 2.18687C29.0802 2.18687 26.7111 4.4475 26.7111 7.83062C26.7111 10.1419 27.8559 11.9731 29.701 12.9025H24.6622V4.99999C24.6622 3.275 24.8449 2.77249 25.4746 2.65749V2.44625L24.645 2.4625L23.7008 2.47875L22.7579 2.4625L21.8786 2.44625V2.65749C22.5745 2.70624 22.7579 3.21062 22.7579 4.99999V9.31249L16.4152 2.1825L15.9835 2.185V10.7412C15.9835 12.02 15.8918 12.6181 15.5747 12.9019H11.526C12.0481 12.6656 12.5345 12.3725 12.9643 12.0262L12.9662 12.0256C13.0464 11.9412 13.1298 11.9031 13.2992 11.8712L13.4609 11.7025L11.8469 10.3269L11.8456 10.3256C10.9836 11.3169 9.63504 11.9131 8.27188 11.9131C6.01418 11.9131 4.41163 10.27 4.41163 7.9275C4.41163 5.52062 6.03137 3.82875 8.32346 3.82875C9.67197 3.82875 11.0001 4.42 11.8514 5.4025L13.4609 4.03062L13.2992 3.86187C13.1298 3.83124 13.0471 3.79187 12.9662 3.70812C11.745 2.74125 10.089 2.18562 8.30627 2.18562C4.61792 2.18562 2.15392 4.44624 2.15392 7.82937C2.15392 10.1406 3.34454 11.9719 5.26352 12.9012H2.46972V14.9025H5.43861C3.40311 15.7419 2.15392 17.5987 2.15392 20.0506C2.15392 23.4344 4.60582 25.7925 8.11908 25.7925C11.5496 25.7925 13.9187 23.4512 13.9187 20.0506C13.9187 17.6169 12.6651 15.7469 10.6474 14.9025H15.2583C15.8205 15.0537 15.9828 15.5944 15.9828 17.2219V22.9631C15.9828 24.6881 15.8173 25.175 15.1545 25.3219V25.5169C15.9994 25.4831 16.3311 25.4831 16.9767 25.4831C17.6726 25.4831 18.0381 25.4831 18.9492 25.5169V25.3219C18.2864 25.175 18.1037 24.655 18.1037 22.9631V17.2219C18.1037 15.6237 18.2819 15.0562 18.846 14.9025H21.7844C22.3466 15.0537 22.5083 15.5944 22.5083 17.2219V22.9631C22.5083 24.6881 22.3434 25.175 21.6806 25.3219V25.5169C22.5255 25.4831 22.8572 25.4831 23.5034 25.4831C24.1987 25.4831 24.5635 25.4831 25.4753 25.5169V25.3219C24.8118 25.175 24.6297 24.655 24.6297 22.9631V17.2219C24.6297 15.6237 24.808 15.0562 25.3721 14.9025H29.9958C27.9603 15.7419 26.7111 17.5987 26.7111 20.0506C26.7111 23.4344 29.163 25.7925 32.6762 25.7925C36.1061 25.7925 38.4759 23.4512 38.4759 20.0506C38.4759 17.6169 37.2216 15.7469 35.2039 14.9025H38.5612V12.9025ZM32.6431 3.82937C34.8136 3.82937 36.3047 5.48749 36.3047 7.86249C36.3047 10.2537 34.7805 11.9131 32.5935 11.9131C30.423 11.9131 28.8816 10.27 28.8816 7.9275C28.8816 5.52124 30.4395 3.82937 32.6431 3.82937ZM8.03631 24.1356C5.86519 24.1356 4.3244 22.4925 4.3244 20.15C4.3244 17.7412 5.88239 16.0506 8.08661 16.0506C10.2571 16.0506 11.7482 17.7094 11.7482 20.085C11.7482 22.4762 10.224 24.1356 8.03631 24.1356ZM32.5935 24.1356C30.423 24.1356 28.8816 22.4925 28.8816 20.15C28.8816 17.7412 30.4395 16.0506 32.6431 16.0506C34.8136 16.0506 36.3047 17.7094 36.3047 20.085C36.3047 22.4762 34.7805 24.1356 32.5935 24.1356ZM17.9057 10.7419V6.42062L23.7008 12.9025H18.2972C17.9916 12.6225 17.9057 12.0144 17.9057 10.7419Z" fill="#C5DA82"/>
<path d="M156.577 19.9269H47.1482V20.4788H156.577V19.9269Z" fill="#005D7D"/>
<path d="M53.2598 0.513638V2.11301H53.114C52.597 1.67239 51.9794 1.45114 51.2039 1.45114C49.6765 1.45114 48.6202 2.56489 48.6202 4.17489C48.6202 5.80614 49.6651 6.93176 51.1708 6.93176C51.968 6.93176 52.676 6.66676 53.1815 6.18239L53.3273 6.21489L53.1484 7.69301C52.4856 7.94614 51.8565 8.05676 51.1148 8.05676C48.7667 8.05676 47.1488 6.46926 47.1488 4.18614C47.1488 1.93614 48.7221 0.338013 50.9352 0.338013C51.4408 0.338013 51.9126 0.391763 52.4748 0.546763C52.6314 0.579888 52.7664 0.601763 52.8778 0.601763C52.9567 0.601763 53.0134 0.579888 53.1032 0.513638H53.2598Z" fill="#005D7D"/>
<path d="M57.4225 1.59302C59.3886 1.59302 60.7269 2.88927 60.7269 4.78177C60.7269 6.70302 59.3886 8.02614 57.4505 8.02614C55.4659 8.02614 54.0799 6.69302 54.0799 4.78177C54.0799 2.87052 55.4188 1.59302 57.4225 1.59302ZM57.432 2.52052C56.1867 2.52052 55.3068 3.47614 55.3068 4.83677C55.3068 6.15989 56.1771 7.08864 57.404 7.08864C58.6398 7.08864 59.5013 6.15114 59.5013 4.80052C59.5013 3.45802 58.6577 2.52052 57.432 2.52052Z" fill="#005D7D"/>
<path d="M65.567 6.49051L65.4174 7.86988H61.6068V7.75988C61.9818 7.69488 62.0748 7.40113 62.0748 6.42676V3.18238C62.0748 2.21801 61.9723 1.91488 61.6068 1.85988V1.73926L62.0748 1.74926C62.3186 1.75863 62.5154 1.75863 62.6841 1.75863C62.8516 1.75863 63.0489 1.75863 63.2832 1.74926L63.7416 1.73926V1.85926C63.3857 1.92363 63.2737 2.22676 63.2737 3.18176V5.96613C63.2737 6.56426 63.2832 6.68301 63.3577 6.78488C63.4424 6.91363 63.592 6.95051 63.9658 6.95051H64.4153C65.0055 6.95051 65.2863 6.82238 65.4454 6.47238L65.567 6.49051Z" fill="#005D7D"/>
<path d="M70.5383 6.49051L70.3887 7.86988H66.5781V7.75988C66.9531 7.69488 67.0467 7.40113 67.0467 6.42676V3.18238C67.0467 2.21801 66.9436 1.91488 66.5781 1.85988V1.73926L67.0467 1.74926C67.2899 1.75863 67.4867 1.75863 67.6541 1.75863C67.8235 1.75863 68.0196 1.75863 68.2545 1.74926L68.7129 1.73926V1.85926C68.357 1.92363 68.245 2.22676 68.245 3.18176V5.96613C68.245 6.56426 68.2545 6.68301 68.329 6.78488C68.4137 6.91363 68.5633 6.95051 68.9377 6.95051H69.3865C69.9768 6.95051 70.2575 6.82238 70.4167 6.47238L70.5383 6.49051Z" fill="#005D7D"/>
<path d="M72.8412 2.64926V4.18426H73.8708C74.4979 4.18426 74.7602 4.06488 74.892 3.72551H75.0041C74.9856 4.11113 74.9856 4.26738 74.9856 4.58863C74.9856 4.92926 74.9856 5.09426 75.0041 5.51738H74.892C74.7889 5.20488 74.517 5.08551 73.8899 5.08551H72.8412V6.46363C72.8412 6.89551 72.9348 6.96926 73.5066 6.96926H74.1331C74.8162 6.96926 75.1346 6.82301 75.2568 6.46363L75.3689 6.48176L75.2193 7.86988H71.175V7.74988C71.5494 7.67676 71.643 7.40051 71.643 6.41738V3.18238C71.643 2.18988 71.5494 1.92363 71.175 1.85051V1.73926H75.2473V3.08113H75.1263C74.9856 2.73238 74.7602 2.64926 74.0675 2.64926H72.8412Z" fill="#005D7D"/>
<path d="M82.1191 4.79116V7.54866C81.5855 7.77741 81.3703 7.84178 80.7992 7.93366C80.4433 7.98866 80.097 8.02553 79.7506 8.02553C77.7941 8.02553 76.4462 6.72991 76.4462 4.85491C76.4462 3.87178 76.8581 2.93428 77.5419 2.32803C78.1226 1.81303 78.7777 1.59241 79.6857 1.59241C80.1632 1.59241 80.5375 1.63866 81.0991 1.78553C81.1927 1.81303 81.2678 1.82241 81.3334 1.82241C81.399 1.82241 81.4461 1.80428 81.5117 1.73928H81.6333V3.07241H81.5117C81.0526 2.70491 80.5 2.52053 79.8359 2.52053C78.5434 2.52053 77.6731 3.43991 77.6731 4.80928C77.6731 6.13241 78.5523 7.08803 79.7602 7.08803C80.1441 7.08803 80.5465 7.00491 80.9215 6.83116V5.77428C80.9215 5.22241 80.7808 4.96491 80.4535 4.90116V4.79116H82.1191Z" fill="#005D7D"/>
<path d="M84.7492 2.64926V4.18426H85.7794C86.4066 4.18426 86.6682 4.06488 86.7994 3.72551H86.9121C86.8936 4.11113 86.8936 4.26738 86.8936 4.58863C86.8936 4.92926 86.8936 5.09426 86.9121 5.51738H86.7994C86.6969 5.20488 86.425 5.08551 85.7979 5.08551H84.7492V6.46363C84.7492 6.89551 84.8428 6.96926 85.414 6.96926H86.0417C86.7249 6.96926 87.0432 6.82301 87.1649 6.46363L87.2769 6.48176L87.1273 7.86988H83.083V7.74988C83.4574 7.67676 83.551 7.40051 83.551 6.41738V3.18238C83.551 2.18988 83.4574 1.92363 83.083 1.85051V1.73926H87.1553V3.08113H87.0337C86.8936 2.73238 86.6682 2.64926 85.9761 2.64926H84.7492Z" fill="#005D7D"/>
<path d="M93.5216 1.59302C95.487 1.59302 96.8266 2.88927 96.8266 4.78177C96.8266 6.70302 95.487 8.02614 93.5496 8.02614C91.5657 8.02614 90.1796 6.69302 90.1796 4.78177C90.1796 2.87052 91.5179 1.59302 93.5216 1.59302ZM93.5305 2.52052C92.2858 2.52052 91.4059 3.47614 91.4059 4.83677C91.4059 6.15989 92.2756 7.08864 93.5025 7.08864C94.7377 7.08864 95.5997 6.15114 95.5997 4.80052C95.5997 3.45802 94.7574 2.52052 93.5305 2.52052Z" fill="#005D7D"/>
<path d="M99.183 2.64926V4.16613H100.119C100.766 4.16613 101.074 4.04676 101.205 3.73426H101.317V4.00988C101.308 4.19426 101.308 4.56988 101.308 4.82801C101.308 5.11301 101.308 5.19551 101.317 5.48988H101.205C101.037 5.15926 100.803 5.07613 100.119 5.07613H99.183V6.42738C99.183 7.38301 99.2951 7.67738 99.6606 7.76051V7.87051C99.1557 7.86176 98.9405 7.85238 98.5839 7.85238C98.2191 7.85238 98.0223 7.86238 97.5168 7.87051V7.76051C97.8823 7.68613 97.9854 7.39301 97.9854 6.42738V3.18238C97.9854 2.21801 97.8823 1.92363 97.5168 1.85051V1.73926H101.552V3.06301H101.439C101.299 2.73301 101.084 2.64926 100.334 2.64926H99.183Z" fill="#005D7D"/>
<path d="M104.865 0.183105L109.741 5.23436V2.24498C109.741 1.03248 109.617 0.690606 109.145 0.656856V0.513731L109.741 0.52498L110.381 0.53623L111.021 0.52498L111.583 0.513731V0.656856C111.157 0.734981 111.032 1.07686 111.032 2.24498V8.15686H110.876L106.011 3.13873V6.13873C106.011 7.34186 106.123 7.67123 106.595 7.73748V7.87061C105.945 7.84873 105.674 7.84873 105.348 7.84873C105.033 7.84873 104.775 7.84873 104.146 7.87061V7.73748C104.596 7.63936 104.708 7.30748 104.708 6.13873V0.183105H104.865Z" fill="#005D7D"/>
<path d="M112.042 1.85988V1.73926L112.52 1.74926C112.697 1.75863 112.895 1.75863 113.1 1.75863C113.316 1.75863 113.521 1.75863 113.719 1.74926L114.178 1.73926V1.85926C113.812 1.92363 113.709 2.22676 113.709 3.18176V5.27738C113.709 6.00363 113.775 6.34363 113.971 6.61113C114.197 6.91363 114.599 7.08863 115.057 7.08863C115.563 7.08863 116.022 6.86738 116.209 6.50988C116.369 6.22551 116.407 5.98613 116.407 5.25988V3.18238C116.407 2.21801 116.304 1.92363 115.938 1.85988V1.73926L116.398 1.74926C116.604 1.75863 116.809 1.75863 117.016 1.75863C117.353 1.75863 117.558 1.74926 118.074 1.73988V1.85988C117.708 1.92426 117.596 2.22738 117.596 3.18238V5.28676C117.596 6.36301 117.494 6.77613 117.108 7.21676C116.649 7.75051 115.949 8.02613 115.039 8.02613C114.225 8.02613 113.551 7.78676 113.111 7.35551C112.69 6.92426 112.513 6.44551 112.513 5.65551V3.18238C112.511 2.22676 112.407 1.91426 112.042 1.85988Z" fill="#005D7D"/>
<path d="M120.305 2.64113V6.42738C120.305 7.38301 120.409 7.67738 120.783 7.76051V7.87051C120.231 7.85238 120.006 7.85238 119.706 7.85238C119.399 7.85238 119.183 7.85238 118.639 7.87051V7.76051C119.013 7.67738 119.107 7.40176 119.107 6.42738V3.18238C119.107 2.20801 119.005 1.92363 118.639 1.85988V1.73926H120.961C121.757 1.73926 122.16 1.81301 122.581 2.03363C123.132 2.32863 123.442 2.85176 123.442 3.50426C123.442 4.28551 123.03 4.81926 122.234 5.08551L123.638 7.22613C123.882 7.60363 123.994 7.70551 124.209 7.76926V7.87926C123.882 7.91676 123.6 7.93426 123.375 7.93426C122.814 7.93426 122.57 7.79676 122.234 7.24488L120.603 4.63488L120.66 4.56051C120.781 4.57988 120.838 4.58863 120.941 4.58863C121.709 4.58863 122.214 4.18488 122.214 3.58676C122.214 2.95238 121.727 2.60363 120.874 2.60363C120.643 2.60363 120.549 2.60363 120.305 2.64113Z" fill="#005D7D"/>
<path d="M128.47 1.7393V3.08117H128.338C128.048 2.69492 127.58 2.47492 127.027 2.47492C126.493 2.47492 126.1 2.78742 126.1 3.20992C126.1 3.60555 126.25 3.73367 127.373 4.29367C128.103 4.66242 128.45 4.99242 128.618 5.4793C128.694 5.69055 128.732 5.91055 128.732 6.14992C128.732 7.28992 127.861 8.02492 126.503 8.02492C126.007 8.02492 125.53 7.93305 124.968 7.73055L124.846 6.48055L124.968 6.47117C125.296 6.8943 125.82 7.12367 126.437 7.12367C127.084 7.12367 127.562 6.72867 127.562 6.19617C127.562 5.79242 127.328 5.52492 126.673 5.20367C125.615 4.6793 125.296 4.42242 125.072 3.92555C124.986 3.73242 124.941 3.51305 124.941 3.28242C124.941 2.28992 125.746 1.5918 126.878 1.5918C127.206 1.5918 127.449 1.62867 127.907 1.74805C128.001 1.77492 128.113 1.7943 128.17 1.7943C128.226 1.7943 128.263 1.7843 128.339 1.73805H128.47" fill="#005D7D"/>
<path d="M131.419 2.64926V4.18426H132.448C133.075 4.18426 133.337 4.06488 133.468 3.72551H133.581C133.564 4.11113 133.564 4.26738 133.564 4.58863C133.564 4.92926 133.564 5.09426 133.581 5.51738H133.468C133.364 5.20488 133.094 5.08551 132.467 5.08551H131.419V6.46363C131.419 6.89551 131.512 6.96926 132.083 6.96926H132.709C133.393 6.96926 133.711 6.82301 133.834 6.46363L133.946 6.48176L133.797 7.86988H129.751V7.74988C130.126 7.67676 130.22 7.40051 130.22 6.41738V3.18238C130.22 2.18988 130.126 1.92363 129.751 1.85051V1.73926H133.823V3.08113H133.702C133.563 2.73238 133.338 2.64926 132.645 2.64926H131.419Z" fill="#005D7D"/>
<path d="M138.478 1.7393V3.08117H138.346C138.056 2.69492 137.588 2.47492 137.036 2.47492C136.501 2.47492 136.109 2.78742 136.109 3.20992C136.109 3.60555 136.258 3.73367 137.382 4.29367C138.112 4.66242 138.457 4.99242 138.627 5.4793C138.701 5.69055 138.74 5.91055 138.74 6.14992C138.74 7.28992 137.869 8.02492 136.512 8.02492C136.015 8.02492 135.537 7.93305 134.976 7.73055L134.854 6.48055L134.976 6.47117C135.304 6.8943 135.828 7.12367 136.445 7.12367C137.093 7.12367 137.57 6.72867 137.57 6.19617C137.57 5.79242 137.336 5.52492 136.68 5.20367C135.623 4.6793 135.304 4.42242 135.08 3.92555C134.995 3.73242 134.949 3.51305 134.949 3.28242C134.949 2.28992 135.753 1.5918 136.887 1.5918C137.214 1.5918 137.457 1.62867 137.916 1.74805C138.009 1.77492 138.122 1.7943 138.178 1.7943C138.234 1.7943 138.271 1.7843 138.347 1.73805H138.478" fill="#005D7D"/>
<path d="M50.4908 10.9081C52.4569 10.9081 53.7959 12.2037 53.7959 14.0975C53.7959 16.0181 52.4569 17.3412 50.5189 17.3412C48.5343 17.3412 47.1482 16.0087 47.1482 14.0975C47.1482 12.1862 48.4872 10.9081 50.4908 10.9081ZM50.5004 11.8362C49.255 11.8362 48.3751 12.7912 48.3751 14.1525C48.3751 15.4756 49.2455 16.4037 50.4717 16.4037C51.7076 16.4037 52.569 15.4662 52.569 14.1162C52.569 12.7737 51.7267 11.8362 50.5004 11.8362Z" fill="#005D7D"/>
<path d="M56.2211 11.9649V13.4818H57.157C57.8032 13.4818 58.112 13.3624 58.2432 13.0499H58.3559V13.3256C58.3463 13.5099 58.3463 13.8856 58.3463 14.1437C58.3463 14.4293 58.3463 14.5112 58.3559 14.8056H58.2432C58.0745 14.4749 57.8408 14.3924 57.157 14.3924H56.2211V15.7431C56.2211 16.6987 56.3338 16.9931 56.6986 17.0762V17.1862C56.193 17.1774 55.9772 17.1681 55.6219 17.1681C55.2571 17.1681 55.0604 17.1781 54.5548 17.1862V17.0749C54.919 17.0018 55.0228 16.7074 55.0228 15.7418V12.4987C55.0228 11.5331 54.919 11.2381 54.5548 11.1649V11.0543H58.5896V12.3781H58.4775C58.3368 12.0468 58.1216 11.9643 57.3728 11.9643L56.2211 11.9649Z" fill="#005D7D"/>
<path d="M65.6925 9.65186C68.0514 9.65186 69.6584 11.2075 69.6584 13.4794C69.6584 15.7844 68.0514 17.3725 65.7262 17.3725C63.345 17.3725 61.682 15.7731 61.682 13.4794C61.682 11.1856 63.2883 9.65186 65.6925 9.65186ZM65.7039 10.7669C64.2096 10.7669 63.154 11.9137 63.154 13.5462C63.154 15.1344 64.1988 16.2475 65.6702 16.2475C67.153 16.2475 68.1864 15.1231 68.1864 13.5019C68.1864 11.8906 67.1747 10.7669 65.7039 10.7669Z" fill="#005D7D"/>
<path d="M71.0286 10.7787L75.0913 14.9887V12.4987C75.0913 11.4868 74.9888 11.2012 74.596 11.1743V11.0549L75.0913 11.0649L75.6255 11.0737L76.159 11.0649L76.627 11.0549V11.1743C76.2711 11.2387 76.1679 11.5237 76.1679 12.4987V17.4243H76.0368L71.983 13.2431V15.7424C71.983 16.7449 72.0766 17.0206 72.47 17.0756V17.1856C71.9276 17.1674 71.7028 17.1674 71.431 17.1674C71.1693 17.1674 70.9534 17.1674 70.4294 17.1856V17.0749C70.8038 16.9918 70.8974 16.7162 70.8974 15.7418V10.7787H71.0286Z" fill="#005D7D"/>
<path d="M80.081 11.9737V15.7418C80.081 16.6893 80.1931 16.9918 80.5866 17.0749V17.1849C80.0244 17.1668 79.7907 17.1668 79.4724 17.1668C79.154 17.1668 78.9382 17.1668 78.4046 17.1849V17.0749C78.779 16.9918 78.8821 16.7162 78.8821 15.7418V11.9737H78.4142C77.759 11.9737 77.4961 12.0749 77.356 12.3874H77.235L77.356 11.0543H81.6441L81.7657 12.3874H81.6441C81.4939 12.0749 81.2322 11.9737 80.5866 11.9737H80.081Z" fill="#005D7D"/>
<path d="M86.0347 15.7518H83.6853L83.3574 16.4956C83.3014 16.6243 83.2728 16.7343 83.2728 16.8174C83.2728 16.9468 83.3479 17.0287 83.5071 17.0649V17.1843C83.0015 17.1662 82.7863 17.1662 82.4024 17.1662C82.0936 17.1662 81.9905 17.1662 81.6721 17.1843V17.0649C81.8969 16.9737 81.972 16.8718 82.2057 16.3668L84.8269 10.7418H84.9861L87.6265 16.4406C87.7761 16.7806 87.9257 16.9643 88.132 17.0649V17.1843C87.7576 17.1662 87.6086 17.1662 87.2801 17.1662C87.0553 17.1662 86.8306 17.1662 86.6058 17.1762L86.157 17.1849V17.0656C86.3346 17.0387 86.4187 16.9374 86.4187 16.7906C86.4187 16.7168 86.3811 16.5699 86.3346 16.4506L86.0347 15.7518ZM85.6884 14.8412L84.874 12.9112L84.0597 14.8412H85.6884Z" fill="#005D7D"/>
<path d="M90.5852 11.9556V15.7424C90.5852 16.6981 90.687 16.9924 91.062 17.0756V17.1856C90.51 17.1674 90.2846 17.1674 89.9854 17.1674C89.6766 17.1674 89.4614 17.1674 88.9183 17.1856V17.0749C89.2933 16.9918 89.3863 16.7162 89.3863 15.7418V12.4987C89.3863 11.5231 89.2831 11.2381 88.9183 11.1743V11.0549H91.2397C92.0355 11.0549 92.4379 11.1287 92.8588 11.3493C93.4114 11.6437 93.7209 12.1674 93.7209 12.8206C93.7209 13.6018 93.3089 14.1356 92.5131 14.4012L93.9163 16.5424C94.1608 16.9199 94.2735 17.0212 94.4881 17.0856V17.1956C94.1602 17.2324 93.88 17.2506 93.654 17.2506C93.0925 17.2506 92.8492 17.1124 92.5124 16.5606L90.8831 13.9506L90.9392 13.8774C91.0608 13.8956 91.1174 13.9056 91.2199 13.9056C91.9878 13.9056 92.4933 13.5006 92.4933 12.9031C92.4933 12.2681 92.0063 11.9193 91.1537 11.9193C90.922 11.9187 90.8284 11.9187 90.5852 11.9556Z" fill="#005D7D"/>
<path d="M95.3686 11.1743V11.0549L95.8366 11.0649C96.0613 11.0737 96.2683 11.0737 96.4548 11.0737C96.6325 11.0737 96.8285 11.0737 97.0253 11.0649L97.5136 11.0549V11.1743C97.1475 11.2387 97.0361 11.5418 97.0361 12.4987V15.7418C97.0361 16.6974 97.1393 16.9918 97.5136 17.0749V17.1849C96.9979 17.1668 96.7923 17.1668 96.3994 17.1668C96.034 17.1668 95.8468 17.1668 95.3693 17.1849V17.0749C95.7436 16.9918 95.8372 16.7162 95.8372 15.7418V12.4987C95.8366 11.5237 95.7347 11.2381 95.3686 11.1743Z" fill="#005D7D"/>
<path d="M101.567 10.9081C103.533 10.9081 104.87 12.2037 104.87 14.0975C104.87 16.0181 103.532 17.3412 101.594 17.3412C99.609 17.3412 98.2235 16.0087 98.2235 14.0975C98.2242 12.1862 99.5625 10.9081 101.567 10.9081ZM101.576 11.8362C100.33 11.8362 99.4504 12.7912 99.4504 14.1525C99.4504 15.4756 100.321 16.4037 101.548 16.4037C102.783 16.4037 103.645 15.4662 103.645 14.1162C103.645 12.7737 102.802 11.8362 101.576 11.8362Z" fill="#005D7D"/>
</g>
<defs>
<clipPath id="clip0_4254_104">
<rect width="177" height="40" fill="white"/>
</clipPath>
</defs>
</svg>
