<svg xmlns="http://www.w3.org/2000/svg" width="240.214" height="35" viewBox="0 0 240.214 35"><g transform="translate(-801 -654)"><path d="M175.715,386.149a11.527,11.527,0,0,0-7.734-3.079,11.918,11.918,0,0,0,0,23.836,11.268,11.268,0,0,0,8.012-3.2l2.407,2.723a16.017,16.017,0,0,1-10.418,4.025,15.476,15.476,0,1,1,0-30.94,15.811,15.811,0,0,1,10.3,3.829Z" transform="translate(648.923 274.482)" fill="#00194a"/><path d="M211,380.147h3.789v29.992h-3.552l-16.1-23.2h-.079v23.2h-3.788V380.147h3.552l16.1,23.2H211Z" transform="translate(639.293 274.328)" fill="#00194a"/><path d="M227.992,380.147h8.287a9.889,9.889,0,1,1,0,19.772h-4.5v10.22h-3.789Zm7.5,16.456c4.538,0,7.143-2.21,7.143-6.551s-2.6-6.59-7.143-6.59h-3.709V396.6Z" transform="translate(630.267 274.327)" fill="#00194a"/><path d="M270.523,388.556c-.514-3.552-2.565-5.722-5.762-5.722-4.262,0-5.407,2.8-5.407,4.854,0,2.25,1.421,3.669,4.381,4.775l3.789,1.42c4.775,1.776,6.985,4.578,6.985,8.208,0,4.854-3.867,8.366-9.629,8.366-5.446,0-9.314-2.88-9.787-8.879h3.788c.316,3.275,1.974,5.565,6.2,5.565,3.276,0,5.643-2.092,5.643-4.737,0-2.328-1.933-3.827-4.657-4.893l-3.828-1.5c-4.459-1.737-6.67-4.341-6.67-8.209,0-5.17,4.3-8.287,9.235-8.287,4.973,0,8.84,2.959,9.274,9.037Z" transform="translate(623.606 274.482)" fill="#00194a"/><path d="M304.425,382.744a4.888,4.888,0,0,0-3.28-1.3,5.053,5.053,0,0,0,0,10.107,4.777,4.777,0,0,0,3.4-1.355l1.021,1.156a6.794,6.794,0,0,1-4.418,1.706,6.563,6.563,0,1,1,0-13.12,6.7,6.7,0,0,1,4.368,1.624Z" transform="translate(613.946 274.38)" fill="#626467"/><path d="M316.916,388.314c0-1.438-1.439-1.757-2.61-1.757a5.343,5.343,0,0,0-2.41.6l-.652-1.255a7.953,7.953,0,0,1,3.146-.67c2.092,0,4.032.888,4.032,2.963v5.957h-1.405v-.938a3.541,3.541,0,0,1-2.777,1.139c-2.125,0-3.8-1.188-3.8-3.129,0-1.59,1.355-3,3.782-3a3.963,3.963,0,0,1,2.694.987Zm-2.41,1.239c-1.84,0-2.46.887-2.46,1.74s.619,1.741,2.46,1.741,2.46-.888,2.46-1.741-.62-1.74-2.46-1.74" transform="translate(610.005 273.077)" fill="#626467"/><path d="M329.008,389.084c0-1.3-.536-2.443-2.025-2.443-1.405,0-2.259.954-2.259,2.61v4.9h-1.505v-8.718h1.505v1.021h.034a2.741,2.741,0,0,1,2.392-1.222,3.1,3.1,0,0,1,3.364,3.28v5.639h-1.506Z" transform="translate(606.865 273.077)" fill="#626467"/><path d="M340.984,388.314c0-1.438-1.44-1.757-2.61-1.757a5.341,5.341,0,0,0-2.41.6l-.652-1.255a7.951,7.951,0,0,1,3.146-.67c2.092,0,4.033.888,4.033,2.963v5.957h-1.406v-.938a3.543,3.543,0,0,1-2.778,1.139c-2.125,0-3.8-1.188-3.8-3.129,0-1.59,1.355-3,3.781-3a3.964,3.964,0,0,1,2.695.987Zm-2.41,1.239c-1.84,0-2.46.887-2.46,1.74s.619,1.741,2.46,1.741,2.46-.888,2.46-1.741-.618-1.74-2.46-1.74" transform="translate(604.09 273.077)" fill="#626467"/><path d="M355.011,380.2h1.506v12.717h-1.506v-1.338h-.033a3.821,3.821,0,0,1-3.247,1.539,4.588,4.588,0,0,1-4.6-4.652A4.5,4.5,0,0,1,351.665,384a4.014,4.014,0,0,1,3.313,1.573h.033Zm-3.079,5.2a3.155,3.155,0,1,0,3.079,3.163,3.154,3.154,0,0,0-3.079-3.163" transform="translate(600.988 274.315)" fill="#626467"/><path d="M362.78,380.443a1.054,1.054,0,1,1-1.054,1.054,1.05,1.05,0,0,1,1.054-1.054m-.753,3.815h1.506v8.718h-1.506Z" transform="translate(597.401 274.255)" fill="#626467"/><path d="M372.971,388.314c0-1.438-1.439-1.757-2.61-1.757a5.338,5.338,0,0,0-2.409.6L367.3,385.9a7.951,7.951,0,0,1,3.146-.67c2.092,0,4.033.888,4.033,2.963v5.957h-1.406v-.938a3.543,3.543,0,0,1-2.778,1.139c-2.125,0-3.8-1.188-3.8-3.129,0-1.59,1.355-3,3.782-3a3.962,3.962,0,0,1,2.694.987Zm-2.409,1.239c-1.841,0-2.46.887-2.46,1.74s.619,1.741,2.46,1.741,2.459-.888,2.459-1.741-.619-1.74-2.459-1.74" transform="translate(596.229 273.077)" fill="#626467"/><path d="M385.373,389.084c0-1.3-.536-2.443-2.025-2.443-1.405,0-2.259.954-2.259,2.61v4.9h-1.505v-8.718h1.505v1.021h.034a2.743,2.743,0,0,1,2.392-1.222,3.1,3.1,0,0,1,3.364,3.28v5.639h-1.506Z" transform="translate(593.013 273.077)" fill="#626467"/><path d="M406.516,380.2h1.607v12.718h-1.506l-6.827-9.84h-.033v9.84h-1.606V380.2h1.506l6.828,9.84h.033Z" transform="translate(588.45 274.315)" fill="#626467"/><path d="M419.356,393.2h-.033a2.743,2.743,0,0,1-2.393,1.222,3.094,3.094,0,0,1-3.363-3.28V385.5h1.505v5.071c0,1.306.535,2.443,2.025,2.443,1.406,0,2.259-.953,2.259-2.61v-4.9h1.506v8.719h-1.506Z" transform="translate(584.661 273.012)" fill="#626467"/><path d="M425.966,385.436h1.506v1.238h.033c.753-1.355,1.472-1.44,2.744-1.44v1.589a3.1,3.1,0,0,0-.686-.084c-1.254,0-2.091.871-2.091,2.461v4.953h-1.506Z" transform="translate(581.614 273.077)" fill="#626467"/><path d="M433.981,391.611a1.652,1.652,0,0,0,1.808,1.422c1.355,0,1.723-.736,1.723-1.255,0-.569-.368-.92-1.539-1.238l-1.523-.418a2.159,2.159,0,0,1-1.773-2.242c0-1.439,1.087-2.644,3.112-2.644,2.226,0,3,1.406,3,2.712h-1.407a1.455,1.455,0,0,0-1.622-1.473c-.955,0-1.574.569-1.574,1.255,0,.486.268.853.971,1.054l2.041.585a2.142,2.142,0,0,1,1.825,2.276c0,1.774-1.556,2.711-3.163,2.711-2.042,0-3.23-1.088-3.28-2.745Z" transform="translate(579.989 273.077)" fill="#626467"/><path d="M451.043,392.465a5.016,5.016,0,0,1-3.933,1.891,4.494,4.494,0,0,1-4.753-4.568,4.4,4.4,0,0,1,4.5-4.551c2.693,0,4.568,2.058,4.568,5.137h-7.464a3.028,3.028,0,0,0,3.13,2.577,3.634,3.634,0,0,0,2.794-1.406Zm-1.321-3.33a2.908,2.908,0,0,0-5.757,0Z" transform="translate(577.585 273.077)" fill="#626467"/><path d="M456.829,391.611a1.652,1.652,0,0,0,1.808,1.422c1.355,0,1.723-.736,1.723-1.255,0-.569-.369-.92-1.539-1.238l-1.523-.418a2.16,2.16,0,0,1-1.774-2.242c0-1.439,1.088-2.644,3.113-2.644,2.226,0,3,1.406,3,2.712h-1.406a1.455,1.455,0,0,0-1.622-1.473c-.954,0-1.573.569-1.573,1.255,0,.486.268.853.971,1.054l2.041.585a2.143,2.143,0,0,1,1.825,2.276c0,1.774-1.557,2.711-3.163,2.711-2.042,0-3.23-1.088-3.279-2.745Z" transform="translate(574.374 273.077)" fill="#626467"/><path d="M294.961,404.181h3.478a4.192,4.192,0,1,1,0,8.383h-1.888V416.9h-1.59Zm3.147,6.978c1.9,0,3-.938,3-2.779s-1.093-2.794-3-2.794h-1.557v5.573Z" transform="translate(613.809 268.421)" fill="#626467"/><path d="M306.469,409.417h1.49v1.238h.033c.745-1.355,1.457-1.439,2.716-1.439v1.589a3.048,3.048,0,0,0-.68-.083c-1.242,0-2.07.87-2.07,2.46v4.953h-1.49Z" transform="translate(610.981 267.184)" fill="#626467"/><path d="M316.914,409.216a4.574,4.574,0,0,1,4.67,4.568,4.672,4.672,0,0,1-9.341,0,4.574,4.574,0,0,1,4.67-4.568m-3.08,4.568a3.081,3.081,0,1,0,6.161,0,3.081,3.081,0,1,0-6.161,0" transform="translate(609.561 267.184)" fill="#626467"/><path d="M326.481,406.687h1.491V408.8h1.374v1.322h-1.374v5.355c0,.468.149.636.728.636h.68V417.5c-.215.015-.563.015-.911.015-1.524,0-1.987-.535-1.987-1.873v-5.523h-1.192V408.8h1.192Z" transform="translate(606.356 267.805)" fill="#626467"/><path d="M340.032,416.445a4.948,4.948,0,0,1-3.892,1.891,4.47,4.47,0,0,1-4.7-4.568,4.379,4.379,0,0,1,4.455-4.552c2.666,0,4.521,2.058,4.521,5.137h-7.386a3,3,0,0,0,3.1,2.577,3.582,3.582,0,0,0,2.766-1.405Zm-1.308-3.33a2.874,2.874,0,0,0-5.7,0Z" transform="translate(604.845 267.184)" fill="#626467"/><path d="M350.947,411.492a2.776,2.776,0,0,0-2-.87,2.9,2.9,0,0,0-2.85,3.229,2.856,2.856,0,0,0,4.919,2.193l.878,1.1a4.115,4.115,0,0,1-2.981,1.189,4.393,4.393,0,0,1-4.406-4.535,4.5,4.5,0,0,1,4.421-4.585,4.764,4.764,0,0,1,3.031,1.088Z" transform="translate(601.633 267.184)" fill="#626467"/><path d="M356.369,406.687h1.49V408.8h1.375v1.322H357.86v5.355c0,.468.149.636.729.636h.68V417.5c-.216.015-.564.015-.911.015-1.524,0-1.987-.535-1.987-1.873v-5.523h-1.192V408.8h1.192Z" transform="translate(599.01 267.805)" fill="#626467"/><path d="M363.117,404.424a1.054,1.054,0,1,1-1.055,1.054,1.05,1.05,0,0,1,1.055-1.054m-.753,3.815h1.506v8.718h-1.506Z" transform="translate(597.318 268.361)" fill="#626467"/><path d="M373.175,409.482h1.707l-3.765,8.718h-1.406l-3.765-8.718h1.707l2.761,6.71Z" transform="translate(596.364 267.118)" fill="#626467"/><path d="M386.608,416.445a5.017,5.017,0,0,1-3.932,1.891,4.493,4.493,0,0,1-4.753-4.568,4.4,4.4,0,0,1,4.5-4.552c2.693,0,4.568,2.058,4.568,5.137h-7.463a3.026,3.026,0,0,0,3.129,2.577,3.632,3.632,0,0,0,2.794-1.405Zm-1.321-3.33a2.908,2.908,0,0,0-5.756,0Z" transform="translate(593.42 267.184)" fill="#626467"/><path d="M404.121,407.745a2.46,2.46,0,0,0-2.443-2.426,2.015,2.015,0,0,0-2.293,2.058c0,.954.6,1.556,1.857,2.024l1.606.6c2.026.753,2.963,1.941,2.963,3.481,0,2.058-1.64,3.547-4.083,3.547a3.79,3.79,0,0,1-4.151-3.765h1.607a2.337,2.337,0,0,0,2.626,2.359,2.176,2.176,0,0,0,2.394-2.008c0-.987-.821-1.622-1.975-2.075l-1.622-.635c-1.892-.737-2.828-1.841-2.828-3.482,0-2.192,1.824-3.514,3.915-3.514a3.742,3.742,0,0,1,3.933,3.832Z" transform="translate(588.591 268.487)" fill="#626467"/><path d="M414.674,409.216a4.6,4.6,0,0,1,4.719,4.568,4.722,4.722,0,0,1-9.438,0,4.6,4.6,0,0,1,4.719-4.568m-3.113,4.568a3.113,3.113,0,1,0,6.226,0,3.113,3.113,0,1,0-6.226,0" transform="translate(585.549 267.184)" fill="#626467"/><path d="M430.063,411.492a2.823,2.823,0,0,0-2.025-.87,2.916,2.916,0,0,0-2.878,3.229,2.89,2.89,0,0,0,4.97,2.193l.887,1.1A4.18,4.18,0,0,1,428,418.336a4.414,4.414,0,0,1-4.452-4.535,4.525,4.525,0,0,1,4.468-4.585,4.842,4.842,0,0,1,3.062,1.088Z" transform="translate(582.207 267.184)" fill="#626467"/><path d="M436.385,404.424a1.054,1.054,0,1,1-1.053,1.054,1.051,1.051,0,0,1,1.053-1.054m-.752,3.815h1.505v8.718h-1.505Z" transform="translate(579.312 268.361)" fill="#626467"/><path d="M448.3,416.445a5.018,5.018,0,0,1-3.933,1.891,4.494,4.494,0,0,1-4.753-4.568,4.4,4.4,0,0,1,4.5-4.552c2.693,0,4.568,2.058,4.568,5.137H441.22a3.026,3.026,0,0,0,3.13,2.577,3.635,3.635,0,0,0,2.794-1.405Zm-1.321-3.33a2.908,2.908,0,0,0-5.757,0Z" transform="translate(578.26 267.184)" fill="#626467"/><path d="M453.595,406.687H455.1V408.8h1.389v1.322H455.1v5.355c0,.468.152.636.737.636h.686V417.5c-.217.015-.569.015-.92.015-1.539,0-2.009-.535-2.009-1.873v-5.523h-1.2V408.8h1.2Z" transform="translate(575.12 267.805)" fill="#626467"/><path d="M462.343,418.066l-3.631-8.584h1.707l2.795,6.727,2.828-6.727h1.606l-5.355,12.4H460.72Z" transform="translate(573.566 267.118)" fill="#626467"/></g></svg>