<svg width="165" height="91" viewBox="0 0 165 91" fill="none" xmlns="http://www.w3.org/2000/svg">
<path d="M0.25 60.047C0.25 51.3373 6.93709 45.1052 15.9346 45.1052C20.9289 45.1052 25.0984 46.9216 27.8221 50.2229L23.5299 54.1854C21.59 51.9567 19.1542 50.8015 16.2652 50.8015C10.8578 50.8015 7.01883 54.5987 7.01883 60.047C7.01883 65.4953 10.8578 69.2925 16.2652 69.2925C19.1542 69.2925 21.59 68.1372 23.5299 65.8667L27.8221 69.8292C25.0984 73.1732 20.9289 74.9887 15.8938 74.9887C6.93709 74.9887 0.25 68.7566 0.25 60.047Z" fill="#414042"/>
<path d="M34.3837 45.6003H41.0708V69.0447H55.5584V74.4939H34.3837V45.6003Z" fill="#414042"/>
<path d="M87.8763 45.6003V74.4939H81.1893V62.6473H68.0639V74.4939H61.3768V45.6003H68.0639V56.9928H81.1893V45.6003H87.8763Z" fill="#414042"/>
<path fill-rule="evenodd" clip-rule="evenodd" d="M102.404 68.3022H115.819L118.378 74.4935H125.395L112.476 45.6008H105.871L92.9931 74.4935H99.8446L102.404 68.3022ZM109.132 52.1635L113.714 63.2254H104.551L109.132 52.1635Z" fill="#414042"/>
<path d="M0.25 86.1136C0.25 84.2745 1.65407 82.9331 3.54586 82.9331C4.50584 82.9331 5.34048 83.2619 5.90899 83.9012L5.33139 84.4616C4.85185 83.9548 4.26515 83.7242 3.58128 83.7242C2.1781 83.7242 1.13822 84.7368 1.13822 86.1136C1.13822 87.4905 2.1781 88.5031 3.58128 88.5031C4.26515 88.5031 4.85185 88.2633 5.33139 87.7575L5.90899 88.3169C5.34048 88.9563 4.50584 89.2942 3.53677 89.2942C1.65407 89.2942 0.25 87.9527 0.25 86.1136Z" fill="#28AAE1"/>
<path fill-rule="evenodd" clip-rule="evenodd" d="M8.87733 84.4702C7.46505 84.4702 6.42517 85.4647 6.42517 86.8688C6.42517 88.272 7.46505 89.2764 8.87733 89.2764C10.2896 89.2764 11.3204 88.272 11.3204 86.8688C11.3204 85.4647 10.2896 84.4702 8.87733 84.4702ZM8.87733 85.2168C9.7837 85.2168 10.4585 85.8652 10.4585 86.8688C10.4585 87.8723 9.7837 88.5299 8.87733 88.5299C7.97093 88.5299 7.28706 87.8723 7.28706 86.8688C7.28706 85.8652 7.97093 85.2168 8.87733 85.2168Z" fill="#28AAE1"/>
<rect x="12.5026" y="82.6309" width="0.852798" height="6.59173" fill="#28AAE1"/>
<rect x="14.9819" y="82.6309" width="0.852798" height="6.59173" fill="#28AAE1"/>
<path fill-rule="evenodd" clip-rule="evenodd" d="M17.878 87.153H21.6979C21.707 87.0731 21.7152 86.9669 21.7152 86.8951C21.7152 85.4474 20.747 84.4702 19.3883 84.4702C18.0288 84.4702 17.0252 85.4738 17.0252 86.8688C17.0252 88.2719 18.0378 89.2764 19.5573 89.2764C20.3383 89.2764 20.9868 89.0094 21.4136 88.5126L20.9423 87.9613C20.5962 88.3437 20.134 88.5299 19.5836 88.5299C18.6509 88.5299 17.9843 87.9795 17.878 87.153ZM20.8987 86.54H17.878C17.967 85.7408 18.571 85.1895 19.3883 85.1895C20.2139 85.1895 20.8097 85.749 20.8987 86.54Z" fill="#28AAE1"/>
<path fill-rule="evenodd" clip-rule="evenodd" d="M27.4021 88.5832V84.5145H26.5938V85.2428C26.1942 84.7279 25.5539 84.47 24.8528 84.47C23.4932 84.47 22.4624 85.3854 22.4624 86.7441C22.4624 88.1037 23.4932 89.0273 24.8528 89.0273C25.5276 89.0273 26.1406 88.7876 26.5493 88.2989V88.6722C26.5493 89.7384 26.0425 90.2534 24.9327 90.2534C24.2398 90.2534 23.555 90.0136 23.1199 89.6404L22.7112 90.2979C23.2262 90.7602 24.0972 90.9999 24.959 90.9999C26.5584 90.9999 27.4021 90.2443 27.4021 88.5832ZM24.95 85.2165C25.8917 85.2165 26.5666 85.8295 26.5666 86.7441C26.5666 87.6505 25.8917 88.2817 24.95 88.2817C24 88.2817 23.3243 87.6505 23.3243 86.7441C23.3243 85.8295 24 85.2165 24.95 85.2165Z" fill="#28AAE1"/>
<path fill-rule="evenodd" clip-rule="evenodd" d="M29.4464 87.153H33.2663C33.2754 87.0731 33.2835 86.9669 33.2835 86.8951C33.2835 85.4474 32.3154 84.4702 30.9567 84.4702C29.5972 84.4702 28.5936 85.4738 28.5936 86.8688C28.5936 88.2719 29.6062 89.2764 31.1248 89.2764C31.9067 89.2764 32.5551 89.0094 32.982 88.5126L32.5107 87.9613C32.1646 88.3437 31.7024 88.5299 31.152 88.5299C30.2193 88.5299 29.5527 87.9795 29.4464 87.153ZM32.4671 86.54H29.4464C29.5354 85.7408 30.1394 85.1895 30.9567 85.1895C31.7823 85.1895 32.378 85.749 32.4671 86.54Z" fill="#28AAE1"/>
<path fill-rule="evenodd" clip-rule="evenodd" d="M38.8731 84.4702C37.4609 84.4702 36.421 85.4647 36.421 86.8688C36.421 88.272 37.4609 89.2764 38.8731 89.2764C40.2854 89.2764 41.3162 88.272 41.3162 86.8688C41.3162 85.4647 40.2854 84.4702 38.8731 84.4702ZM38.8731 85.2168C39.7795 85.2168 40.4543 85.8652 40.4543 86.8688C40.4543 87.8723 39.7795 88.5299 38.8731 88.5299C37.9667 88.5299 37.2828 87.8723 37.2828 86.8688C37.2828 85.8652 37.9667 85.2168 38.8731 85.2168Z" fill="#28AAE1"/>
<path d="M43.4577 84.106V84.5147H44.8254V85.2167H43.4759V89.2228H42.623V85.2167H41.8229V84.5147H42.623V84.0969C42.623 83.1823 43.1734 82.5784 44.177 82.5784C44.5412 82.5784 44.8972 82.6665 45.137 82.8536L44.879 83.502C44.701 83.3685 44.4703 83.2795 44.2215 83.2795C43.7156 83.2795 43.4577 83.5638 43.4577 84.106Z" fill="#28AAE1"/>
<path d="M48.1492 83.0044H49.0374V88.45H52.4041V89.2229H48.1492V83.0044Z" fill="#28AAE1"/>
<path fill-rule="evenodd" clip-rule="evenodd" d="M55.8524 87.3399C57.469 87.3399 58.4462 86.5225 58.4462 85.172C58.4462 83.8215 57.469 83.0042 55.8524 83.0042H53.4266V89.2226H54.3158V87.3399H55.8524ZM55.8252 83.777C56.9623 83.777 57.558 84.2838 57.558 85.172C57.558 86.0602 56.9623 86.567 55.8252 86.567H54.3158V83.777H55.8252Z" fill="#28AAE1"/>
<path d="M65.101 83.0044V89.2229H64.3726L60.6418 84.5856V89.2229H59.7526V83.0044H60.4819L64.2128 87.6417V83.0044H65.101Z" fill="#28AAE1"/>
<path d="M66.2482 88.7254L66.6033 88.0506C67.0029 88.3349 67.6432 88.5392 68.2562 88.5392C69.0463 88.5392 69.3751 88.2994 69.3751 87.8989C69.3751 86.8418 66.3989 87.7572 66.3989 85.8827C66.3989 85.039 67.1545 84.4705 68.3625 84.4705C68.9755 84.4705 69.6685 84.6303 70.0772 84.8964L69.713 85.5721C69.2861 85.296 68.8157 85.1988 68.3534 85.1988C67.6078 85.1988 67.2426 85.474 67.2426 85.8473C67.2426 86.9571 70.2279 86.0516 70.2279 87.8817C70.2279 88.7345 69.4459 89.2767 68.1936 89.2767C67.4116 89.2767 66.6387 89.036 66.2482 88.7254Z" fill="#28AAE1"/>
<path fill-rule="evenodd" clip-rule="evenodd" d="M77.4161 89.2228V86.3802C77.4161 85.0923 76.6877 84.4702 75.399 84.4702C74.6443 84.4702 73.9422 84.6836 73.4536 85.0742L73.8096 85.7135C74.1738 85.4029 74.7424 85.2077 75.3018 85.2077C76.1455 85.2077 76.5633 85.6255 76.5633 86.3447V86.5137H75.2128C73.8096 86.5137 73.321 87.1349 73.321 87.8905C73.321 88.7079 73.9958 89.2764 75.0621 89.2764C75.7995 89.2764 76.3235 89.0276 76.6078 88.6007V89.2228H77.4161ZM76.5633 87.1267V87.7842C76.3499 88.3255 75.844 88.6189 75.2037 88.6189C74.5552 88.6189 74.1647 88.3255 74.1647 87.8551C74.1647 87.4555 74.4045 87.1267 75.2482 87.1267H76.5633Z" fill="#28AAE1"/>
<path d="M83.4668 86.5134V89.2226H82.6139V86.6106C82.6139 85.687 82.1517 85.2338 81.3434 85.2338C80.437 85.2338 79.8512 85.776 79.8512 86.7977V89.2226H78.9984V84.5145H79.8158V85.2256C80.1618 84.7452 80.7658 84.47 81.5123 84.47C82.6584 84.47 83.4668 85.1275 83.4668 86.5134Z" fill="#28AAE1"/>
<path fill-rule="evenodd" clip-rule="evenodd" d="M89.5175 89.2228V82.6311H88.6647V85.2249C88.2732 84.7191 87.6874 84.4702 87.0208 84.4702C85.644 84.4702 84.6404 85.4293 84.6404 86.8688C84.6404 88.3083 85.644 89.2764 87.0208 89.2764C87.7138 89.2764 88.3178 89.0094 88.7001 88.4763V89.2228H89.5175ZM87.0917 85.2168C87.989 85.2168 88.6738 85.8652 88.6738 86.8688C88.6738 87.8723 87.989 88.5299 87.0917 88.5299C86.1862 88.5299 85.5023 87.8723 85.5023 86.8688C85.5023 85.8652 86.1862 85.2168 87.0917 85.2168Z" fill="#28AAE1"/>
<path d="M98.9974 83.0044V89.2229H98.1091V86.451H94.5381V89.2229H93.649V83.0044H94.5381V85.6781H98.1091V83.0044H98.9974Z" fill="#28AAE1"/>
<path d="M100.358 86.1136C100.358 84.2745 101.761 82.9331 103.654 82.9331C104.613 82.9331 105.448 83.2619 106.017 83.9012L105.439 84.4616C104.96 83.9548 104.373 83.7242 103.689 83.7242C102.286 83.7242 101.246 84.7368 101.246 86.1136C101.246 87.4905 102.286 88.5031 103.689 88.5031C104.373 88.5031 104.96 88.2633 105.439 87.7575L106.017 88.3169C105.448 88.9563 104.613 89.2942 103.644 89.2942C101.761 89.2942 100.358 87.9527 100.358 86.1136Z" fill="#28AAE1"/>
<path fill-rule="evenodd" clip-rule="evenodd" d="M107.794 87.6682H111.099L111.783 89.2231H112.716L109.891 83.0046H109.011L106.196 89.2231H107.11L107.794 87.6682ZM109.447 83.9101L110.789 86.9571H108.106L109.447 83.9101Z" fill="#28AAE1"/>
<path d="M112.877 88.7254L113.232 88.0506C113.632 88.3349 114.272 88.5392 114.885 88.5392C115.675 88.5392 116.004 88.2994 116.004 87.8989C116.004 86.8418 113.028 87.7572 113.028 85.8827C113.028 85.039 113.783 84.4705 114.991 84.4705C115.604 84.4705 116.297 84.6303 116.706 84.8964L116.342 85.5721C115.915 85.296 115.445 85.1988 114.982 85.1988C114.236 85.1988 113.871 85.474 113.871 85.8473C113.871 86.9571 116.857 86.0516 116.857 87.8817C116.857 88.7345 116.075 89.2767 114.822 89.2767C114.04 89.2767 113.268 89.036 112.877 88.7254Z" fill="#28AAE1"/>
<path fill-rule="evenodd" clip-rule="evenodd" d="M122.33 84.4702C120.918 84.4702 119.878 85.4647 119.878 86.8688C119.878 88.272 120.918 89.2764 122.33 89.2764C123.743 89.2764 124.773 88.272 124.773 86.8688C124.773 85.4647 123.743 84.4702 122.33 84.4702ZM122.33 85.2168C123.237 85.2168 123.912 85.8652 123.912 86.8688C123.912 87.8723 123.237 88.5299 122.33 88.5299C121.424 88.5299 120.74 87.8723 120.74 86.8688C120.74 85.8652 121.424 85.2168 122.33 85.2168Z" fill="#28AAE1"/>
<path d="M126.915 84.106V84.5147H128.283V85.2167H126.933V89.2228H126.08V85.2167H125.28V84.5147H126.08V84.0969C126.08 83.1823 126.631 82.5784 127.634 82.5784C127.998 82.5784 128.355 82.6665 128.594 82.8536L128.336 83.502C128.158 83.3685 127.928 83.2795 127.679 83.2795C127.173 83.2795 126.915 83.5638 126.915 84.106Z" fill="#28AAE1"/>
<path fill-rule="evenodd" clip-rule="evenodd" d="M132.264 87.6682H135.569L136.252 89.2231H137.185L134.361 83.0046H133.481L130.665 89.2231H131.58L132.264 87.6682ZM133.917 83.9101L135.258 86.9571H132.575L133.917 83.9101Z" fill="#28AAE1"/>
<rect x="137.986" y="82.6309" width="0.852829" height="6.59173" fill="#28AAE1"/>
<path fill-rule="evenodd" clip-rule="evenodd" d="M142.962 89.2764C144.338 89.2764 145.342 88.3083 145.342 86.8688C145.342 85.4293 144.338 84.4702 142.962 84.4702C142.295 84.4702 141.708 84.7191 141.318 85.2249V82.6311H140.465V89.2228H141.282V88.4763C141.664 89.0094 142.269 89.2764 142.962 89.2764ZM142.89 85.2168C143.796 85.2168 144.48 85.8652 144.48 86.8688C144.48 87.8723 143.796 88.5299 142.89 88.5299C141.993 88.5299 141.309 87.8723 141.309 86.8688C141.309 85.8652 141.993 85.2168 142.89 85.2168Z" fill="#28AAE1"/>
<path fill-rule="evenodd" clip-rule="evenodd" d="M146.942 87.153H150.762C150.771 87.0731 150.78 86.9669 150.78 86.8951C150.78 85.4474 149.811 84.4702 148.452 84.4702C147.093 84.4702 146.089 85.4738 146.089 86.8688C146.089 88.2719 147.102 89.2764 148.621 89.2764C149.402 89.2764 150.052 89.0094 150.478 88.5126L150.007 87.9613C149.66 88.3437 149.199 88.5299 148.648 88.5299C147.715 88.5299 147.048 87.9795 146.942 87.153ZM149.963 86.54H146.942C147.031 85.7408 147.635 85.1895 148.452 85.1895C149.278 85.1895 149.874 85.749 149.963 86.54Z" fill="#28AAE1"/>
<path d="M154.494 84.4702V85.2967C154.423 85.2876 154.361 85.2876 154.299 85.2876C153.383 85.2876 152.815 85.8471 152.815 86.8779V89.2228H151.962V84.5147H152.779V85.3049C153.082 84.7545 153.668 84.4702 154.494 84.4702Z" fill="#28AAE1"/>
<path d="M158.386 88.9476C158.128 89.1701 157.737 89.2764 157.355 89.2764C156.405 89.2764 155.863 88.7524 155.863 87.8015V85.2167H155.063V84.5147H155.863V83.4839H156.715V84.5147H158.066V85.2167H156.715V87.7661C156.715 88.2728 156.981 88.5571 157.453 88.5571C157.702 88.5571 157.941 88.4772 158.119 88.3346L158.386 88.9476Z" fill="#28AAE1"/>
<path fill-rule="evenodd" clip-rule="evenodd" d="M163.148 89.2228V86.3802C163.148 85.0923 162.419 84.4702 161.131 84.4702C160.376 84.4702 159.674 84.6836 159.185 85.0742L159.541 85.7135C159.905 85.4029 160.474 85.2077 161.033 85.2077C161.877 85.2077 162.295 85.6255 162.295 86.3447V86.5137H160.944C159.541 86.5137 159.053 87.1349 159.053 87.8905C159.053 88.7079 159.727 89.2764 160.794 89.2764C161.531 89.2764 162.055 89.0276 162.339 88.6007V89.2228H163.148ZM162.295 87.1267V87.7842C162.081 88.3255 161.576 88.6189 160.935 88.6189C160.287 88.6189 159.896 88.3255 159.896 87.8551C159.896 87.4555 160.136 87.1267 160.98 87.1267H162.295Z" fill="#28AAE1"/>
<path d="M109.632 20.0685V33.4473C128.104 33.4473 143.079 18.4728 143.079 0H129.7C129.7 11.0837 120.715 20.0685 109.632 20.0685Z" fill="#662D91"/>
<path d="M129.7 53.5161H143.079C143.079 35.0433 128.104 20.0688 109.632 20.0688V33.4476C120.715 33.4476 129.7 42.4324 129.7 53.5161Z" fill="#939598"/>
<path d="M163.148 33.4476V20.0688C144.675 20.0688 129.7 35.0433 129.7 53.5161H143.079C143.079 42.4324 152.064 33.4476 163.148 33.4476Z" fill="#003E7E"/>
<path d="M143.079 0H129.7C129.7 18.4728 144.675 33.4473 163.148 33.4473V20.0685C152.064 20.0685 143.079 11.0837 143.079 0Z" fill="#28AAE1"/>
<path d="M129.7 0C129.7 6.00957 127.055 11.3979 122.87 15.0762L132.81 24.1118C139.139 18.0269 143.079 9.47345 143.079 0H129.7Z" fill="#662D91"/>
</svg>
