<svg viewBox="0 0 538.0088915 93" xmlns="http://www.w3.org/2000/svg"><g fill="#0f2185"><path d="m156.5409483 29.3653004c-1.3928031 1.3925737-3.5966341 1.4151118-5.0990199.1415345-1.3394441-1.1354511-2.7162752-2.103699-4.1314245-2.9033466-2.3248843-1.3139748-4.7037391-1.9720001-7.1324129-1.9720001-3.3378696 0-6.322855.6061305-8.9549561 1.8204674-2.6321012 1.2143369-4.882257 2.8334527-6.7546192 4.8573476-1.8723622 2.0259706-3.2880507 4.3508549-4.251217 6.9829561-.9590148 2.6321012-1.4405979 5.3638402-1.4405979 8.1952172 0 2.8334527.4815832 5.5672676 1.4405979 8.1972929.9631664 2.6321012 2.3788548 4.9590612 4.251217 6.9808803 1.8723622 2.0259706 4.1225181 3.6430107 6.7546192 4.8573476 2.6321012 1.2143369 5.6170865 1.8204674 8.9549561 1.8204674 2.8313769 0 5.4634781-.5791453 7.8921519-1.7436632 1.3987082-.6694672 2.6803727-1.5158769 3.8442004-2.5388327 1.4709756-1.2929259 3.730177-1.0945276 5.0641529.3393255l6.8232995 7.3341721c1.5400192 1.6553232 1.2344882 4.2571588-.593769 5.5872827-.96616.7029167-1.9893712 1.3532309-3.0692433 1.9507476-2.3788548 1.3160506-4.7826191 2.3788548-7.2112929 3.1884128-2.4286738.8074821-4.7577097 1.3887032-6.9829561 1.745739-2.2252464.3528842-4.1474275.5293263-5.7665434.5293263-5.4634781 0-10.6238909-.9091958-15.4812385-2.7317391-4.8573476-1.8204674-9.0587456-4.4006739-12.6000426-7.7406192-3.541297-3.3399454-6.3477645-7.3607498-8.423554-12.0665647-2.071638-4.7058149-3.1095327-9.9409562-3.1095327-15.7095753s1.0378948-11.0037604 3.1095327-15.7095753c2.0757896-4.7058149 4.882257-8.7266193 8.423554-12.0665647s7.742695-5.9201518 12.6000426-7.7406192c4.8573476-1.8225432 10.0177604-2.7317391 15.4812385-2.7317391 4.6539202 0 9.3369014.8863621 14.0406405 2.6549348 3.5086086 1.3223088 6.6938286 3.2197874 9.5573829 5.6941588 1.6122137 1.3930992 1.6477054 3.8958204.1409363 5.4023414l-7.3761025 7.3748873z"/><path d="m178.6441557 10.0594456h9.8766764c2.0509385 0 3.7135526 1.6626142 3.7135526 3.7135526v7.6700773h.3030653c1.6191159-3.4375075 4.2221559-6.4992971 7.8174235-9.183293 3.5911159-2.6798443 8.423554-4.0208044 14.4931627-4.0208044 11.4335033 0 19.0226077 4.5024304 22.7672628 13.5072689 2.6320586-4.6519096 5.9201251-8.0666114 9.8683005-10.2441277 3.9440001-2.1754275 8.6518909-3.2631412 14.115369-3.2631412 4.8573476 0 8.9549561.8095579 12.2928257 2.4286738 3.3420212 1.6191159 6.0488508 3.846438 8.1204887 6.677815 2.0757896 2.8334527 3.570358 6.1464129 4.4795539 9.9409562.9091958 3.7945433 1.3658695 7.8693182 1.3658695 12.2201731v39.6953585c0 2.0509385-1.6626142 3.7135526-3.7135526 3.7135526h-10.7858722c-2.0509385 0-3.7135526-1.6626142-3.7135526-3.7135526v-37.5718258c0-2.2231706-.2034274-4.3757644-.6102821-6.4494781-.4027032-2.0737138-1.1126232-3.8941812-2.1214569-5.4655539-1.0129853-1.5672211-2.3788548-2.8085433-4.1017602-3.7177391-1.7187537-.9112716-3.9440001-1.3658695-6.6757392-1.3658695-2.8355285 0-5.2392928.5314021-7.2112929 1.5921306-1.9720001 1.0628043-3.5911159 2.4826443-4.8573476 4.251217-1.2662316 1.7706485-2.1754275 3.7945433-2.7317391 6.0716844-.5563116 2.2750653-.8344674 4.5791918-.8344674 6.9061518v35.7492825c0 2.0509385-1.6626142 3.7135526-3.7135526 3.7135526h-10.7858722c-2.0509385 0-3.7135526-1.6626142-3.7135526-3.7135526v-39.6953585c0-4.5542823-.9631664-8.1703077-2.8853475-10.8543036-1.9221811-2.6798443-5.1105939-4.0208044-9.5610867-4.0208044-3.0348043 0-5.5921771.5064927-7.663815 1.5174022-2.0757896 1.0129853-3.7945433 2.3788548-5.1604128 4.0976086-1.3658695 1.7229053-2.3539454 3.6949054-2.9600759 5.9201518-.6102821 2.2273222-.9133474 4.5522065-.9133474 6.9808803v36.0544236c0 2.0509385-1.6626142 3.7135526-3.7135526 3.7135526h-10.7858722c-2.0509385 0-3.7135526-1.6626142-3.7135526-3.7135526v-65.4289564c0-2.0509385 1.6626142-3.7135526 3.7135526-3.7135526z"/><path d="m302.8057888 10.0594456h10.7900238c2.0509385 0 3.7135526 1.6626142 3.7135526 3.7135526v7.8216099h.3030653c2.021819-4.2491412 4.9071665-7.5371919 8.6518909-9.8662277 3.7405728-2.3248843 8.0416087-3.4894022 12.8989563-3.4894022 1.1126232 0 2.2003369.1017137 3.2631412.3030653.1050169.0201009.2102769.0406679.3157802.0617051 1.7206377.3430924 2.9473609 1.8842918 2.9473609 3.6388021v10.0431571c0 2.3389257-2.1270409 4.042931-4.4314283 3.6424663-.0146609-.0025478-.0293189-.005088-.0439739-.0076204-1.469659-.2511705-2.910257-.3798695-4.3259454-.3798695-4.251217 0-7.663815.7867242-10.2460972 2.3539454-2.5781306 1.5692969-4.5542823 3.3648549-5.9201518 5.3887497s-2.2750653 4.0477896-2.7317391 6.0696087c-.4566737 2.0259706-.680859 3.5433728-.680859 4.5542823v35.2946846c0 2.0509385-1.6626142 3.7135526-3.7135526 3.7135526h-10.7900238c-2.0509385 0-3.7135526-1.6626142-3.7135526-3.7135526v-65.4289567c0-2.0509385 1.6626142-3.7135526 3.7135526-3.7135526z"/><path d="m368.0920736 18.3124082c0-1.5568422.2657011-2.9829096.799179-4.2761265.5334779-1.2911411 1.272459-2.4058401 2.219019-3.3420212.94656-.9382569 2.0467285-1.6627074 3.2984296-2.1754275 1.2537769-.51272 2.6092675-.7701179 4.0685475-.7701179 2.071638 0 3.9211665.483659 5.5485855 1.4509769s2.8645896 2.3560211 3.7135875 4.172337l-2.3664001.8573011c-.4753558-.9278779-1.0773348-1.677238-1.8059369-2.2480801-.7306779-.5729179-1.5298569-.996379-2.3975369-1.272459s-1.745739-.4151579-2.6321012-.4151579c-1.4011579 0-2.6673896.325899-3.8028465.9776969-1.1333811.6497221-2.021819 1.5776001-2.663238 2.781558-.641419 1.2018822-.9610906 2.6217222-.9610906 4.2595202 0 1.6170401.3196716 3.028577.9610906 4.2304591.641419 1.2039579 1.5298569 2.1359875 2.663238 2.7960885 1.1354569.6621769 2.4016885.9922274 3.8028465.9922274.90712 0 1.8038611-.1473811 2.692299-.444219.8884379-.2947621 1.716678-.7742695 2.4847201-1.4343706.7701179-.6601011 1.4011579-1.5236295 1.8951959-2.5885096l2.3664001.82824c-.8884379 2.0903201-2.1608969 3.6430107-3.817377 4.6601475-1.6564801 1.0150611-3.5496001 1.5236295-5.681436 1.5236295-1.4592801 0-2.8147706-.2573979-4.0685475-.7701179-1.2517011-.51272-2.3518696-1.2413222-3.2984296-2.189958-.94656-.94656-1.6855411-2.0654106-2.219019-3.3565517-.5334779-1.2932169-.799179-2.7089054-.799179-4.2470654z"/><path d="m398.1245969 28.8761012c-1.4011579 0-2.6590864-.3113684-3.7717096-.9320295-1.114699-.6227369-1.9886064-1.4987201-2.6196464-2.6341769-.63104-1.1333811-.94656-2.4701896-.94656-4.0083496 0-1.558918.325899-2.910257.9756211-4.054017.6517979-1.14376 1.5402358-2.0259706 2.663238-2.6487075 1.1250779-.6206611 2.387158-.9320295 3.7883159-.9320295 1.3990822 0 2.6673896.3113684 3.8007707.9320295 1.1354569.6227369 2.0280464 1.4987201 2.6777685 2.6341769.6517979 1.1333811.9776969 2.4701896.9776969 4.0083496 0 1.558918-.3321263 2.910257-.9922274 4.054017s-1.5630695 2.0259706-2.7068296 2.6487075c-1.14376.6206611-2.426598.9320295-3.846438.9320295zm-.0290611-2.544918c.7888 0 1.5277811-.1826695 2.219019-.5480084.6891621-.3632632 1.2579285-.9216506 1.7000716-1.6710106.444219-.74936.6663284-1.706299.6663284-2.870817 0-1.14376-.2117305-2.0861685-.6351916-2.8251496-.4255369-.7389811-.9818485-1.2911411-1.6730864-1.6564801s-1.430219-.5480084-2.219019-.5480084c-.7680421 0-1.4841895.1826695-2.1442906.5480084-.6621769.365339-1.1998064.9216506-1.6128885 1.6710106-.4151579.74936-.6206611 1.706299-.6206611 2.870817 0 1.14376.2013516 2.0861685.6061305 2.8251496.4027032.7389811.9320295 1.2932169 1.5817516 1.6564801.6517979.365339 1.3617179.5480084 2.1318359.5480084z"/><path d="m409.0702352 13.8743701h2.544918l.1785179 1.982379c.4130821-.51272.8925895-.9424085 1.4343706-1.2869895.5417811-.3445811 1.1333811-.5874484 1.7748001-.7244506.641419-.1390779 1.3077474-.128699 1.9969095.0290611v2.6341769c-.6497221-.15776-1.2807622-.1785179-1.8931201-.0601979s-1.1582906.3694905-1.6419495.7555874c-.483659.3840211-.8718316.8925895-1.1686695 1.5236295s-.444219 1.390779-.444219 2.2771411v7.663815h-2.781558v-14.7941521z"/><path d="m419.8124461 13.8743701h2.544918l.1785179 1.716678c.47328-.6123579 1.0731832-1.0856379 1.8038611-1.4198401.7306779-.3362779 1.5381601-.5044169 2.426598-.5044169 1.14376 0 2.1359874.2428674 2.9746064.7244506.8365432.483659 1.4883411 1.1998064 1.9512422 2.1463664s.6953895 2.1297601.6953895 3.5496001v8.581314h-2.781558v-8.226354c0-1.3804001-.2906105-2.4307496-.8718316-3.1510485-.5832969-.7182232-1.4260674-1.0794106-2.5303875-1.0794106-1.14376 0-2.032198.3694905-2.663238 1.1105474-.63104.7389811-.94656 1.8287706-.94656 3.2693685v8.0768971h-2.781558v-14.7941521z"/><path d="m442.8308764 28.8761012c-1.4198401 0-2.6777685-.3300505-3.7717096-.9922274-1.0939411-.6601011-1.953318-1.5713727-2.573979-2.7358906-.6206611-1.1645179-.9320295-2.495099-.9320295-3.9958949 0-1.4385222.3051411-2.7213601.917499-3.846438.6102821-1.1230021 1.4530527-2.0114401 2.5303875-2.6611622 1.0731832-.6517979 2.2916717-.9776969 3.6533896-.9776969 1.3804001 0 2.6030401.3009895 3.6679201.9029685 1.0669558.601979 1.8951959 1.4405979 2.4867959 2.5158569s.8759832 2.3124296.8573011 3.7115117c0 .23664-.0103789.4795074-.0290611.7265263-.0207579.247019-.0498189.5168716-.089259.8137095h-10.9477141c.0601979.7888.2823074 1.4841895.6663284 2.0861685s.878059 1.0690316 1.480038 1.4053095c.5999032.3342021 1.2869895.5023411 2.0550317.5023411.986 0 1.8453769-.1930484 2.573979-.5770695.7306779-.3840211 1.2433979-.9029685 1.5381601-1.5526906l2.426598.8573011c-.5916 1.2039579-1.4551285 2.140139-2.5885096 2.8106191-1.1333811.67048-2.4411285 1.0067579-3.9211665 1.0067579zm3.788316-8.936274c0-.70992-.1785179-1.351339-.5334779-1.9221811-.35496-.5729179-.8323916-1.0212885-1.4343706-1.3471874-.601979-.325899-1.2766106-.4878105-2.0259706-.4878105-.6725558 0-1.2869895.1619116-1.8495285.4878105-.562539.325899-1.035819.7701179-1.4198401 1.3305811-.3860969.562539-.6268884 1.2101853-.7265263 1.9387874z"/><path d="m453.0686705 13.8743701h2.544918l.1785179 1.982379c.4130821-.51272.8925895-.9424085 1.4343706-1.2869895.5417811-.3445811 1.1333811-.5874484 1.7748001-.7244506.641419-.1390779 1.3077474-.128699 1.9969095.0290611v2.6341769c-.6497221-.15776-1.2807622-.1785179-1.8931201-.0601979s-1.1582906.3694905-1.6419495.7555874c-.483659.3840211-.8718316.8925895-1.1686695 1.5236295s-.444219 1.390779-.444219 2.2771411v7.663815h-2.781558v-14.7941521z"/><path d="m465.4673615 23.9938442c.1370021.5916.3736421 1.0545011.70992 1.390779.3342021.3342021.7348295.5770695 1.1977306.7244506s.9507116.2221095 1.4634316.2221095c.8884379 0 1.5796758-.1785179 2.071638-.5334779.4940379-.35496.7410569-.799179.7410569-1.3305811 0-.4545979-.1536084-.8137095-.4587495-1.0794106-.3072169-.2677769-.70992-.4795074-1.2143369-.6372674-.5023411-.15776-1.0399706-.3051411-1.6128885-.444219-.51272-.1370021-1.0690316-.2947621-1.6710106-.47328-.601979-.1764421-1.1645179-.4172337-1.6855411-.7244506-.523099-.3051411-.9527874-.6995411-1.2869895-1.1832-.3362779-.483659-.5044169-1.1001685-.5044169-1.8495285 0-.8884379.2407916-1.6606316.7244506-2.3228085.483659-.6601011 1.154139-1.1728211 2.0135159-1.5381601.8573011-.365339 1.8287706-.5480084 2.9144085-.5480084 1.26208 0 2.3705517.2719284 3.3274907.8137095.956939.5438569 1.6523285 1.3575664 2.0861685 2.4411285l-2.5137811.82824c-.1390779-.3736421-.365339-.680859-.680859-.917499s-.6767074-.3985516-1.0794106-.4878105c-.404779-.0892589-.8054063-.1328505-1.1998064-.1328505-.74936 0-1.3700211.1473811-1.864059.444219-.4919621.2947621-.7389811.7306779-.7389811 1.3015201 0 .31552.07888.5770695.23664.7846485s.3798695.3736421.6663284.5023411c.2843832.128699.6248127.2428674 1.0192127.3404295.3944.0996379.8199369.207579 1.272459.325899.5916.1764421 1.193579.3694905 1.8059369.5770695.6102821.207579 1.1728211.4691284 1.6855411.7825727.51272.3175958.9278779.7306779 1.2433979 1.2433979s.483659 1.14376.5023411 1.8931201c0 .8697558-.2407916 1.637798-.7244506 2.308278s-1.1645179 1.1998064-2.0405011 1.5838274c-.878059.3840211-1.9201053.5770695-3.1219875.5770695-1.4613558 0-2.702678-.325899-3.728118-.9776969-1.0275158-.6497221-1.716678-1.6564801-2.071638-3.018198l2.5158569-.8863621z"/><path d="m478.9579178 13.8743701v-4.1432759h2.8126948v4.1432759h3.6969812v2.4847201h-3.6969812v7.279794c0 .90712.1805937 1.548539.5459327 1.9221811.365339.3757179.82824.5874484 1.390779.6372674.562539.0498189 1.1499874.0332126 1.7602695-.0456674v2.3975369c-.8074821.1785179-1.6025095.2324884-2.3809306.1619116-.7804969-.0685011-1.480038-.2906105-2.100699-.6642527-.6227369-.3757179-1.114699-.9216506-1.480038-1.6419495-.365339-.720299-.5480084-1.6440253-.5480084-2.7670275v-7.279794h-2.1297601v-2.4847201h2.1297601z"/><path d="m495.05359 28.8761012c-1.4011579 0-2.6590864-.3113684-3.7717096-.9320295-1.114699-.6227369-1.9886064-1.4987201-2.6196464-2.6341769-.63104-1.1333811-.94656-2.4701896-.94656-4.0083496 0-1.558918.325899-2.910257.9756211-4.054017.6517979-1.14376 1.5402358-2.0259706 2.663238-2.6487075 1.1250779-.6206611 2.387158-.9320295 3.7883159-.9320295 1.3990822 0 2.6673896.3113684 3.8007707.9320295 1.1354569.6227369 2.0280464 1.4987201 2.6777685 2.6341769.6517979 1.1333811.9776969 2.4701896.9776969 4.0083496 0 1.558918-.3321263 2.910257-.9922274 4.054017s-1.5630695 2.0259706-2.7068296 2.6487075c-1.14376.6206611-2.426598.9320295-3.846438.9320295zm-.029061-2.544918c.7888 0 1.5277811-.1826695 2.219019-.5480084.6891621-.3632632 1.2579285-.9216506 1.7000716-1.6710106.444219-.74936.6663284-1.706299.6663284-2.870817 0-1.14376-.2117305-2.0861685-.6351916-2.8251496-.4255369-.7389811-.9818485-1.2911411-1.6730864-1.6564801s-1.430219-.5480084-2.219019-.5480084c-.7680421 0-1.4841895.1826695-2.1442906.5480084-.6621769.365339-1.1998064.9216506-1.6128885 1.6710106-.4151579.74936-.6206611 1.706299-.6206611 2.870817 0 1.14376.2013516 2.0861685.6061305 2.8251496.4027032.7389811.9320295 1.2932169 1.5817516 1.6564801.6517979.365339 1.3617179.5480084 2.1318359.5480084z"/><path d="m506.0013041 13.8743701h2.544918l.1785179 1.716678c.47328-.6123579 1.0731832-1.0856379 1.8038611-1.4198401.7306779-.3362779 1.5381601-.5044169 2.426598-.5044169 1.14376 0 2.1359874.2428674 2.9746064.7244506.8365432.483659 1.4883411 1.1998064 1.9512422 2.1463664s.6953895 2.1297601.6953895 3.5496001v8.581314h-2.781558v-8.226354c0-1.3804001-.2906105-2.4307496-.8718316-3.1510485-.5832969-.7182232-1.4260674-1.0794106-2.5303875-1.0794106-1.14376 0-2.032198.3694905-2.663238 1.1105474-.63104.7389811-.94656 1.8287706-.94656 3.2693685v8.0768971h-2.781558v-14.7941521z"/><path d="m529.0197345 28.8761012c-1.4198401 0-2.6777685-.3300505-3.7717096-.9922274-1.0939411-.6601011-1.953318-1.5713727-2.573979-2.7358906-.6206611-1.1645179-.9320295-2.495099-.9320295-3.9958949 0-1.4385222.3051411-2.7213601.917499-3.846438.6102821-1.1230021 1.4530527-2.0114401 2.5303875-2.6611622 1.0731832-.6517979 2.2916717-.9776969 3.6533896-.9776969 1.3804001 0 2.6030401.3009895 3.6679201.9029685 1.0669558.601979 1.8951959 1.4405979 2.4867959 2.5158569s.8759832 2.3124296.8573011 3.7115117c0 .23664-.0103789.4795074-.0290611.7265263-.0207579.247019-.0498189.5168716-.089259.8137095h-10.9477141c.0601979.7888.2823074 1.4841895.6663284 2.0861685s.878059 1.0690316 1.480038 1.4053095c.5999032.3342021 1.2869895.5023411 2.0550317.5023411.986 0 1.8453769-.1930484 2.573979-.5770695.7306779-.3840211 1.2433979-.9029685 1.5381601-1.5526906l2.426598.8573011c-.5916 1.2039579-1.4551285 2.140139-2.5885096 2.8106191-1.1333811.67048-2.4411285 1.0067579-3.9211665 1.0067579zm3.7883159-8.936274c0-.70992-.1785179-1.351339-.5334779-1.9221811-.35496-.5729179-.8323916-1.0212885-1.4343706-1.3471874-.601979-.325899-1.2766106-.4878105-2.0259706-.4878105-.6725558 0-1.2869895.1619116-1.8495285.4878105-.562539.325899-1.035819.7701179-1.4198401 1.3305811-.3860969.562539-.6268884 1.2101853-.7265263 1.9387874z"/><path d="m372.2042127 55.7907885h-2.9580001v-20.7122282h3.254838l7.3669771 16.7765312 7.3379161-16.7765312h3.225777v20.7122282h-2.9289391v-14.97267l-6.5698739 14.97267h-2.1588211l-6.5698739-14.97267v14.97267z"/><path d="m401.319237 55.9983675c-1.4198401 0-2.6777685-.3300505-3.7717096-.9922274-1.0939411-.6601011-1.953318-1.5713727-2.573979-2.7358906-.6206611-1.1645179-.9320295-2.495099-.9320295-3.9958949 0-1.4385222.3051411-2.7213601.917499-3.846438.6102821-1.1230021 1.4530527-2.0114401 2.5303875-2.6611622 1.0731832-.6517979 2.2916717-.9776969 3.6533896-.9776969 1.3804001 0 2.6030401.3009895 3.6679201.9029685 1.0669558.601979 1.8951959 1.4405979 2.4867959 2.5158569s.8759832 2.3124296.8573011 3.7115117c0 .23664-.0103789.4795074-.0290611.7265263-.0207579.247019-.0498189.5168716-.089259.8137095h-10.9477141c.0601979.7888.2823074 1.4841895.6663284 2.0861685s.878059 1.0690316 1.480038 1.4053095c.5999032.3342021 1.2869895.5023411 2.0550317.5023411.986 0 1.8453769-.1930484 2.573979-.5770695.7306779-.3840211 1.2433979-.9029685 1.5381601-1.5526906l2.426598.8573011c-.5916 1.2039579-1.4551285 2.140139-2.5885096 2.8106191-1.1333811.67048-2.4411285 1.0067579-3.9211665 1.0067579zm3.7883159-8.936274c0-.70992-.1785179-1.351339-.5334779-1.9221811-.35496-.5729179-.8323916-1.0212885-1.4343706-1.3471874-.601979-.325899-1.2766106-.4878105-2.0259706-.4878105-.6725558 0-1.2869895.1619116-1.8495285.4878105-.562539.325899-1.035819.7701179-1.4198401 1.3305811-.3860969.562539-.6268884 1.2101853-.7265263 1.9387874z"/><path d="m422.7123241 43.5124933-.325899.0871832v-9.1127161h2.8106191v21.3038282h-2.5428422l-.207579-2.219019c-.4940379.67048-1.1603664 1.2433979-1.9969095 1.716678-.838619.47328-1.8599074.70992-3.0638654.70992-1.3409601 0-2.5096296-.31552-3.5060086-.94656s-1.7748001-1.519478-2.337339-2.663238c-.562539-1.14376-.8427706-2.4764169-.8427706-3.9958949 0-1.5174022.2802316-2.8500591.8427706-3.9938191s1.3409601-2.0301222 2.337339-2.663238c.996379-.63104 2.1650485-.94656 3.5060086-.94656 1.2828379 0 2.3726275.2615495 3.2693685.7846485.8988169.523099 1.5838274 1.1686695 2.0571074 1.9387874zm-9.0234572 4.8801813c0 1.519478.3944 2.742118 1.1832 3.6699959s1.8433011 1.390779 3.1655791 1.390779c.8074821 0 1.5381601-.1972 2.189958-.5916.6497221-.3944 1.1728211-.9714695 1.5672211-1.7312085s.5916-1.6710106.5916-2.7379664c0-1.06488-.1972-1.9720001-.5916-2.7213601s-.917499-1.3264295-1.5672211-1.7312085c-.6517979-.4027032-1.3824758-.6061305-2.189958-.6061305-1.30152 0-2.3518696.4629011-3.1510485 1.390779-.799179.9278779-1.1977306 2.150518-1.1977306 3.6679201z"/><path d="m431.2915623 38.3935963c-.5314021 0-.9756211-.1785179-1.3305811-.5334779s-.5334779-.7888-.5334779-1.3015201c0-.5334779.1785179-.9818485.5334779-1.3471874.35496-.3632632.799179-.5459327 1.3305811-.5459327.51272 0 .9527874.1826695 1.3181264.5459327.3632632.365339.5459327.8137095.5459327 1.3471874 0 .51272-.1826695.94656-.5459327 1.3015201-.365339.35496-.8054063.5334779-1.3181264.5334779zm-1.41984 2.6030401h2.8106191v14.7941521h-2.8106191z"/><path d="m443.6902533 55.9983675c-1.4219158 0-2.6736169-.3217474-3.7592549-.9610906-1.0835621-.641419-1.9284085-1.5257053-2.5283117-2.6487075-.601979-1.1250779-.9029685-2.4369769-.9029685-3.935697 0-1.519478.3051411-2.8500591.917499-3.9938191.6102821-1.14376 1.4592801-2.0425769 2.544918-2.692299 1.0835621-.6517979 2.3456422-.9776969 3.7862401-.9776969 1.519478 0 2.8562864.35496 4.0104254 1.06488 1.1520632.70992 1.9865306 1.666859 2.4992506 2.870817l-2.5158569.8884379c-.2947621-.6912379-.7929516-1.2433979-1.4924927-1.6585559-.7016169-.4130821-1.4945685-.6206611-2.3830064-.6206611-.90712 0-1.6855411.2117305-2.337339.6372674-.6497221.4234611-1.154139 1.0150611-1.509099 1.7748001s-.5314021 1.6523285-.5314021 2.6777685c0 1.5381601.3944 2.7608001 1.1832 3.6679201s1.8536801 1.3617179 3.1946401 1.3617179c.8884379 0 1.6813895-.1972 2.3830064-.5916.6995411-.3944 1.2267916-.9361811 1.5817516-1.627419l2.4867959.8863621c-.5542358 1.1852758-1.4219158 2.1276843-2.6051159 2.8272254-1.1832.6995411-2.5241601 1.0503495-4.0228802 1.0503495z"/><path d="m462.7439256 55.7907885-.23664-2.1608969c-.4545979.7514358-1.0420464 1.3285053-1.7602695 1.7312085-.720299.404779-1.6523285.6082063-2.7960885.6082063-1.0669558 0-1.9740759-.1743663-2.7234359-.5189474s-1.3264295-.82824-1.7312085-1.4489011c-.4027032-.6227369-.6061305-1.3471874-.6061305-2.1754275 0-1.2433979.4629011-2.2729896 1.390779-3.0929264.9278779-.8178611 2.268838-1.3264295 4.0249559-1.5236295l4.2013981-.47328v-1.154139c0-.63104-.2573979-1.1686695-.7701179-1.6108127-.51272-.444219-1.2517011-.6663284-2.219019-.6663284-.90712 0-1.677238.2117305-2.308278.6351916-.63104.4255369-1.0545011 1.0503495-1.272459 1.8785895l-2.4847201-.8863621c.3736421-1.30152 1.1105474-2.3186569 2.2044885-3.0472591 1.0939411-.7306779 2.4203706-1.0960169 3.9792886-1.0960169 1.8536801 0 3.265217.4649769 4.2304591 1.390779.9673179.9278779 1.4509769 2.150518 1.4509769 3.6699959v9.9409562h-2.573979zm-.23664-6.7753771-4.054017.5023411c-.86768.11832-1.519478.3611874-1.953318.7244506-.43384.365339-.6497221.8448463-.6497221 1.4364464 0 .55216.2117305 1.0109095.6351916 1.3762485.4234611.3632632 1.0212885.5459327 1.7893306.5459327.9486358 0 1.7374359-.1764421 2.3684759-.5314021s1.0980927-.8531495 1.4053095-1.4945685c.3051411-.641419.4587495-1.3866274.4587495-2.2335496v-.325899z"/><path d="m469.3117238 34.4869603h2.781558v21.3038282h-2.781558z"/><path d="m384.5426486 82.9130721-5.2587534-8.6383982c.3371861-.0756366.6861782-.1401158.9847027-.2522084.917499-.3445811 1.6606316-.8199369 2.2335496-1.4219158.5708421-.5999032.986-1.2662316 1.2433979-1.9969095.2553221-.7286021.3840211-1.4675832.3840211-2.219019 0-1.14376-.2615495-2.179579-.7846485-3.1053812-.523099-.9278779-1.311899-1.6730864-2.3664001-2.2356253-1.0565769-.5604632-2.4016885-.8427706-4.0394865-.8427706h-7.6928761v20.7122282h2.9580001v-8.3737351h4.0822996l4.9141723 8.3737351h3.3420212zm-12.3384931-18.2254323h4.734876c1.4592801 0 2.5241601.3342021 3.1967159 1.0046821.6684042.67048 1.0046821 1.5692969 1.0046821 2.692299 0 .7306779-.1473811 1.3720969-.444219 1.9242569-.2947621.55216-.74936.9818485-1.3596422 1.2869895-.6123579.3051411-1.4011579.4587495-2.3684759.4587495h-4.763937v-7.3669771z"/><path d="m394.276083 83.1206338c-1.4198401 0-2.6777685-.3300505-3.7717096-.9922274-1.0939411-.6601011-1.953318-1.5713727-2.573979-2.7358906-.6206611-1.1645179-.9320295-2.495099-.9320295-3.9958949 0-1.4385222.3051411-2.7213601.917499-3.846438.6102821-1.1230021 1.4530527-2.0114401 2.5303875-2.6611622 1.0731832-.6517979 2.2916717-.9776969 3.6533896-.9776969 1.3804001 0 2.6030401.3009895 3.6679201.9029685 1.0669558.601979 1.8951959 1.4405979 2.4867959 2.5158569s.8759832 2.3124296.8573011 3.7115117c0 .23664-.0103789.4795074-.0290611.7265263-.0207579.247019-.0498189.5168716-.089259.8137095h-10.9477141c.0601979.7888.2823074 1.4841895.6663284 2.0861685s.878059 1.0690316 1.480038 1.4053095c.5999032.3342021 1.2869895.5023411 2.0550317.5023411.986 0 1.8453769-.1930484 2.573979-.5770695.7306779-.3840211 1.2433979-.9029685 1.5381601-1.5526906l2.426598.8573011c-.5916 1.2039579-1.4551285 2.140139-2.5885096 2.8106191-1.1333811.67048-2.4411285 1.0067579-3.9211665 1.0067579zm3.788316-8.9362741c0-.70992-.1785179-1.351339-.5334779-1.9221811-.35496-.5729179-.8323916-1.0212885-1.4343706-1.3471874-.601979-.325899-1.2766106-.4878105-2.0259706-.4878105-.6725558 0-1.2869895.1619116-1.8495285.4878105-.562539.325899-1.035819.7701179-1.4198401 1.3305811-.3860969.562539-.6268884 1.2101853-.7265263 1.9387874z"/><path d="m410.847111 83.1206338c-1.4219158 0-2.6736169-.3217474-3.7592549-.9610906-1.0835621-.641419-1.9284085-1.5257053-2.5283117-2.6487075-.601979-1.1250779-.9029685-2.4369769-.9029685-3.935697 0-1.519478.3051411-2.8500591.917499-3.9938191.6102821-1.14376 1.4592801-2.0425769 2.544918-2.692299 1.0835621-.6517979 2.3456422-.9776969 3.7862401-.9776969 1.519478 0 2.8562864.35496 4.0104254 1.06488 1.1520632.70992 1.9865306 1.666859 2.4992506 2.870817l-2.5158569.8884379c-.2947621-.6912379-.7929516-1.2433979-1.4924927-1.6585559-.7016169-.4130821-1.4945685-.6206611-2.3830064-.6206611-.90712 0-1.6855411.2117305-2.337339.6372674-.6497221.4234611-1.154139 1.0150611-1.509099 1.7748001s-.5314021 1.6523285-.5314021 2.6777685c0 1.5381601.3944 2.7608001 1.1832 3.6679201s1.8536801 1.3617179 3.1946401 1.3617179c.8884379 0 1.6813895-.1972 2.3830064-.5916.6995411-.3944 1.2267916-.9361811 1.5817516-1.627419l2.4867959.8863621c-.5542358 1.1852758-1.4219158 2.1276843-2.6051159 2.8272254-1.1832.6995411-2.5241601 1.0503495-4.0228802 1.0503495z"/><path d="m420.8773261 68.1189027h2.544918l.1785179 1.982379c.4130821-.51272.8925895-.9424085 1.4343706-1.2869895.5417811-.3445811 1.1333811-.5874484 1.7748001-.7244506.641419-.1390779 1.3077474-.128699 1.9969095.0290611v2.6341769c-.6497221-.15776-1.2807622-.1785179-1.8931201-.0601979s-1.1582906.3694905-1.6419495.7555874c-.483659.3840211-.8718316.8925895-1.1686695 1.5236295s-.444219 1.390779-.444219 2.2771411v7.663815h-2.781558v-14.7941521z"/><path d="m443.9850154 82.9130548h-2.5428422l-.207579-1.745739c-.47328.63104-1.0711074 1.114699-1.7914064 1.4489011-.720299.3362779-1.5236295.5044169-2.4099917.5044169-1.14376 0-2.140139-.2407916-2.989137-.7244506-.8489979-.483659-1.5049474-1.193579-1.9678485-2.1318359-.4629011-.9361811-.6953895-2.1048506-.6953895-3.5060086v-8.6394361h2.8106191v8.2844761c0 1.3617179.2823074 2.3975369.8448463 3.107457.5604632.70992 1.4136127 1.06488 2.5594485 1.06488 1.1230021 0 2.0052127-.365339 2.6466317-1.0939411.641419-.7306779.9631664-1.8163159.9631664-3.254838v-8.108034h2.7794822v14.7941521z"/><path d="m450.0795336 65.5158626c-.5314021 0-.9756211-.1785179-1.3305811-.5334779s-.5334779-.7888-.5334779-1.3015201c0-.5334779.1785179-.9818485.5334779-1.3471874.35496-.3632632.799179-.5459327 1.3305811-.5459327.51272 0 .9527874.1826695 1.3181264.5459327.3632632.365339.5459327.8137095.5459327 1.3471874 0 .51272-.1826695.94656-.5459327 1.3015201-.365339.35496-.8054063.5334779-1.3181264.5334779zm-1.4198401 2.6030401h2.8106191v14.7941521h-2.8106191z"/><path d="m457.0915507 68.1189027v-4.1432759h2.8126948v4.1432759h3.6969812v2.4847201h-3.6969812v7.279794c0 .90712.1805937 1.548539.5459327 1.9221811.365339.3757179.82824.5874484 1.390779.6372674.562539.0498189 1.1499874.0332126 1.7602695-.0456674v2.3975369c-.8074821.1785179-1.6025095.2324884-2.3809306.1619116-.7804969-.0685011-1.480038-.2906105-2.100699-.6642527-.6227369-.3757179-1.114699-.9216506-1.480038-1.6419495-.365339-.720299-.5480084-1.6440253-.5480084-2.7670275v-7.279794h-2.1297601v-2.4847201h2.1297601z"/><path d="m466.7086837 68.1189027h2.544918l.1785179 1.716678c.47328-.5916 1.06488-1.0607285 1.7748001-1.4053095.70992-.3466569 1.509099-.5189474 2.3954611-.5189474 1.0067579 0 1.9201053.2221095 2.7379664.6663284.8178611.444219 1.4655074 1.1001685 1.9387874 1.9678485.4919621-.86768 1.1915032-1.5236295 2.100699-1.9678485.90712-.444219 1.903499-.6663284 2.9870612-.6663284 1.1250779 0 2.1152296.2428674 2.9746064.7244506.8573011.483659 1.5236295 1.1998064 1.9969095 2.1463664s.70992 2.1297601.70992 3.5496001v8.581314h-2.8106191v-8.226354c0-1.3804001-.2968379-2.4307496-.8884379-3.1510485-.5916-.7182232-1.4385222-1.0794106-2.544918-1.0794106-1.1230021 0-2.0114401.3757179-2.6611622 1.1250779-.6517979.74936-.9776969 1.8433011-.9776969 3.2838991v8.0478361h-2.8106191v-8.226354c0-1.3804001-.27608-2.4307496-.82824-3.1510485-.55216-.7182232-1.3804001-1.0794106-2.4847201-1.0794106-1.1250779 0-1.9969095.3757179-2.6196464 1.1250779-.6206611.74936-.9320295 1.8433011-.9320295 3.2838991v8.0478361h-2.781558v-14.7941521z"/><path d="m499.462567 83.1206338c-1.4198401 0-2.6777685-.3300505-3.7717096-.9922274-1.0939411-.6601011-1.953318-1.5713727-2.573979-2.7358906-.6206611-1.1645179-.9320295-2.495099-.9320295-3.9958949 0-1.4385222.3051411-2.7213601.917499-3.846438.6102821-1.1230021 1.4530527-2.0114401 2.5303875-2.6611622 1.0731832-.6517979 2.2916717-.9776969 3.6533896-.9776969 1.3804001 0 2.6030401.3009895 3.6679201.9029685 1.0669558.601979 1.8951959 1.4405979 2.4867959 2.5158569s.8759832 2.3124296.8573011 3.7115117c0 .23664-.0103789.4795074-.0290611.7265263-.0207579.247019-.0498189.5168716-.089259.8137095h-10.9477141c.0601979.7888.2823074 1.4841895.6663284 2.0861685s.878059 1.0690316 1.480038 1.4053095c.5999032.3342021 1.2869895.5023411 2.0550317.5023411.986 0 1.8453769-.1930484 2.573979-.5770695.7306779-.3840211 1.2433979-.9029685 1.5381601-1.5526906l2.426598.8573011c-.5916 1.2039579-1.4551285 2.140139-2.5885096 2.8106191-1.1333811.67048-2.4411285 1.0067579-3.9211665 1.0067579zm3.788316-8.9362741c0-.70992-.1785179-1.351339-.5334779-1.9221811-.35496-.5729179-.8323916-1.0212885-1.4343706-1.3471874-.601979-.325899-1.2766106-.4878105-2.0259706-.4878105-.6725558 0-1.2869895.1619116-1.8495285.4878105-.562539.325899-1.035819.7701179-1.4198401 1.3305811-.3860969.562539-.6268884 1.2101853-.7265263 1.9387874z"/><path d="m509.7003611 68.1189027h2.544918l.1785179 1.716678c.47328-.6123579 1.0731832-1.0856379 1.8038611-1.4198401.7306779-.3362779 1.5381601-.5044169 2.426598-.5044169 1.14376 0 2.1359874.2428674 2.9746064.7244506.8365432.483659 1.4883411 1.1998064 1.9512422 2.1463664s.6953895 2.1297601.6953895 3.5496001v8.581314h-2.781558v-8.226354c0-1.3804001-.2906105-2.4307496-.8718316-3.1510485-.5832969-.7182232-1.4260674-1.0794106-2.5303875-1.0794106-1.14376 0-2.032198.3694905-2.663238 1.1105474-.63104.7389811-.94656 1.8287706-.94656 3.2693685v8.0768971h-2.781558v-14.7941521z"/><path d="m527.2449344 68.1189027v-4.1432759h2.8126948v4.1432759h3.6969812v2.4847201h-3.6969812v7.279794c0 .90712.1805937 1.548539.5459327 1.9221811.365339.3757179.82824.5874484 1.390779.6372674.562539.0498189 1.1499874.0332126 1.7602695-.0456674v2.3975369c-.8074821.1785179-1.6025095.2324884-2.3809306.1619116-.7804969-.0685011-1.480038-.2906105-2.100699-.6642527-.6227369-.3757179-1.114699-.9216506-1.480038-1.6419495-.365339-.720299-.5480084-1.6440253-.5480084-2.7670275v-7.279794h-2.1297601v-2.4847201h2.1297601z"/><path d="m47.0541418 58.5543213-41.4131363-23.8571051c-3.33165-1.9190719-4.4774885-6.1765263-2.5573787-9.5092142 1.918034-3.33165 6.1775642-4.4774885 9.5092142-2.5573787l20.5119624 11.8164597-.0228337-23.6723594c-.0031137-3.8454091 3.1832134-6.9696465 7.0340367-6.9696465s6.8883164 3.1128205 6.892468 6.9571917l.0456675 47.7920525z"/></g><path d="m5.6646363 58.369373c-3.3285365 1.924265-4.4650355 6.1837955-2.5397351 9.5133649 1.9273758 3.3295789 6.1848284 4.4650402 9.5144002 2.538695l20.4880944-11.8548614.0228344 23.6723651c.0041508 3.8443696 3.114923 6.9559863 6.965538 6.9559863 3.8506102 0 6.964078-3.1240692 6.9609673-6.9684388l-.0226245-23.6721791-20.9007218-12.0404041-20.4887528 11.8554721z" fill="#f04b57"/><path d="m74.5167797 58.3024633-20.5119594-11.8164589 20.489125-11.8548614c3.3285388-1.9263404 4.4650402-6.1858709 2.5397351-9.514405-1.9273758-3.3285341-6.184826-4.4650331-9.514405-2.5397328l-20.4881803 11.8554363.0230443 24.121811 20.5108048 11.8168835c3.3511538 1.9239692 7.5915808.7725152 9.509214-2.5573786 1.9199138-3.3338443.774271-7.5911801-2.5573786-9.5112942z" fill="#ffd400"/><path d="m47.054091 58.554261h.000069v.000033h-.000069z" fill="#0f2185" transform="matrix(.44722869 -.89441964 .89441964 .44722869 -26.361926 74.453259)"/></svg>