<svg id="Layer_1" data-name="Layer 1" xmlns="http://www.w3.org/2000/svg" viewBox="0 0 646.62 143.02"><defs><style>.cls-1{fill:#c3002f}.cls-2{fill:#001970}.cls-3{fill:#fff}</style></defs><path d="M252.2.23h1.31v138.6h-1.31zM284.06 6a8 8 0 0 1 5.36 2 .7.7 0 0 0 1 0l3.1-3.23a.73.73 0 0 0 0-1.11A13.36 13.36 0 0 0 283.86 0a14.32 14.32 0 1 0 0 28.63 13.61 13.61 0 0 0 9.66-3.86.79.79 0 0 0 0-1.07l-3.1-3.3a.79.79 0 0 0-1 0 8.34 8.34 0 0 1-5.32 1.91 7.88 7.88 0 0 1-7.84-8.07 7.93 7.93 0 0 1 7.8-8.24M319.24 0A14.25 14.25 0 0 0 305 14.36a14.3 14.3 0 0 0 28.59 0A14.3 14.3 0 0 0 319.24 0m0 22.28a8 8 0 1 1 7.95-7.92 8 8 0 0 1-7.95 7.92M362.66 22.39h-9.59V1.16a.78.78 0 0 0-.75-.76h-4.74a.74.74 0 0 0-.75.76v26.32a.74.74 0 0 0 .75.75h15.08a.75.75 0 0 0 .76-.75v-4.33a.76.76 0 0 0-.76-.76M388.63 0a14.25 14.25 0 0 0-14.27 14.36 14.3 14.3 0 0 0 28.59 0A14.29 14.29 0 0 0 388.63 0m0 22.28a8 8 0 1 1 8-7.92 8 8 0 0 1-8 7.92M432.46 17c3.46-1.4 5.88-4.34 5.88-8a8.64 8.64 0 0 0-8.66-8.6h-11.89a.75.75 0 0 0-.76.76v26.32a.74.74 0 0 0 .76.75h4.73a.79.79 0 0 0 .76-.75V17.34H426l5.68 10.54a.72.72 0 0 0 .64.35h5.28a.75.75 0 0 0 .68-1.15zm-3.3-4.7h-5.88V6.09h5.88a3 3 0 0 1 3 3 3.19 3.19 0 0 1-3 3.18M502.51.4h-9.7a.75.75 0 0 0-.72.76v26.32a.74.74 0 0 0 .72.75h9.7a13.92 13.92 0 1 0 0-27.83m-.4 22h-3.82V6.25h3.82a7.73 7.73 0 0 1 7.75 8 7.75 7.75 0 0 1-7.75 8.08M543.2 0a14.25 14.25 0 0 0-14.28 14.36 14.3 14.3 0 0 0 28.59 0A14.29 14.29 0 0 0 543.2 0m0 22.28a8 8 0 1 1 7.95-7.92 8 8 0 0 1-7.95 7.92M465.81.44a.8.8 0 0 0-.67-.44h-.4a.81.81 0 0 0-.68.44l-12.45 26.75a.7.7 0 0 0 .68 1h4.37a1.29 1.29 0 0 0 1.43-.95l1.43-3.18h10.84l1.42 3.14c.41.86.57 1 1.39 1h4.41a.7.7 0 0 0 .68-1zm-4.51 18.94l3.62-8.33 3.65 8.33zM269.51 70.09v-2.64h2.3V53.6h-2.3v-2.67h8.29a14.37 14.37 0 0 1 4 .46c3.81 1.1 6.21 4.48 6.21 9.12s-2.24 7.8-5.94 9a12.88 12.88 0 0 1-4.23.56zm5.83-2.83h2.32a8.42 8.42 0 0 0 3.13-.49c2.24-.89 3.57-3.15 3.57-6.26s-1.41-5.42-3.7-6.31a8.12 8.12 0 0 0-3-.44h-2.32zM291.87 58a6.67 6.67 0 0 1 5.05-2 5.64 5.64 0 0 1 4.5 1.87 6.77 6.77 0 0 1 1.58 4.67v1.16h-9.53a4 4 0 0 0 4.13 3.83 6.6 6.6 0 0 0 3.51-1.11l.49-.35 1.32 2.43-.7.54a8.92 8.92 0 0 1-1.89.87 8.55 8.55 0 0 1-3 .51 7.24 7.24 0 0 1-5.33-2.08 7.67 7.67 0 0 1-.13-10.34zm7.64 3.64a2.77 2.77 0 0 0-2.68-3 3.36 3.36 0 0 0-3.32 3zM304.69 72.93h2V59.49c0-.41-.19-.6-.59-.6h-1.54v-2.56h3.53c1.14 0 1.7.43 1.7 1.29v.71h.05a3.42 3.42 0 0 1 .62-.82 5.14 5.14 0 0 1 3.79-1.51 5.46 5.46 0 0 1 4.42 2 7.87 7.87 0 0 1 1.68 5.21 7.57 7.57 0 0 1-1.78 5.24 5.74 5.74 0 0 1-4.51 2 5.05 5.05 0 0 1-3.59-1.45l-.38-.49a8.05 8.05 0 0 1 .08 1.19v3.27h2v2.56h-7.43zm6.24-6.64a3 3 0 0 0 2.51 1.24c2 0 3.45-1.65 3.45-4.27S315.52 59 313.47 59 310 60.4 310 63.29a4.91 4.91 0 0 0 .93 3zM323.86 62.78a7.89 7.89 0 0 1 2-.76 13 13 0 0 1 3.67-.43h.86v-.46c0-1.59-.84-2.37-2.54-2.37a7.34 7.34 0 0 0-3.37 1l-.51.35-1.27-2.38a6.9 6.9 0 0 1 .67-.45 11.24 11.24 0 0 1 4.81-1.28c3.7 0 5.67 1.89 5.67 5.43v5.51a.52.52 0 0 0 .59.59h1.24v2.56h-3.23c-1.19 0-1.76-.59-1.76-1.45v-.17l.08-.7a3.8 3.8 0 0 1-.62.92 4.68 4.68 0 0 1-3.73 1.73 4.93 4.93 0 0 1-3.24-1.08 3.8 3.8 0 0 1-1.32-3.11 4 4 0 0 1 2-3.45zm3.4 5.07a2.72 2.72 0 0 0 2.24-1.16 4.06 4.06 0 0 0 .95-2.56v-.46h-.57a10 10 0 0 0-2.81.38 2 2 0 0 0-1.81 1.95 1.86 1.86 0 0 0 2 1.85zM337.28 70.09v-2.56h2v-8a.52.52 0 0 0-.6-.6h-1.53v-2.6h3.59c1.21 0 1.83.56 1.83 1.67v.81l-.05.86h.05a4.71 4.71 0 0 1 4.37-3.53h.63v3.38a6.75 6.75 0 0 0-.84-.06 3.43 3.43 0 0 0-3 1.46 6.13 6.13 0 0 0-1 3.56v3h2v2.56zM350.43 58.89h-2.11v-2.56h2.22v-3.75h3.32v3.75H357v2.56h-3.13v5.81a2.48 2.48 0 0 0 2.75 2.67h.62v2.81a6.41 6.41 0 0 1-1.05.08 7.14 7.14 0 0 1-2.86-.51c-1.54-.6-2.89-1.89-2.89-4.67zM359 70.09v-2.56h2v-8.07c0-.38-.19-.57-.59-.57h-1.54v-2.56h3.59c1.21 0 1.81.51 1.81 1.54v.62l-.06.59h.06A5.46 5.46 0 0 1 369 56a3.62 3.62 0 0 1 3.84 3h.05a5.38 5.38 0 0 1 4.78-3c2.94 0 4.42 1.76 4.42 5.24v6.29h2v2.56h-5.42v-8.2c0-1.81-.41-2.76-1.89-2.76a2.94 2.94 0 0 0-2.59 1.44 6 6 0 0 0-.92 3.45v3.51h2v2.56h-5.39v-8.2c0-1.76-.38-2.76-1.87-2.76a2.92 2.92 0 0 0-2.61 1.52 6.41 6.41 0 0 0-.92 3.53v3.35h2v2.56zM387.34 58a6.67 6.67 0 0 1 5.05-2 5.64 5.64 0 0 1 4.5 1.87 6.77 6.77 0 0 1 1.62 4.67l-.08 1.16h-9.53a4 4 0 0 0 4.1 3.83 6.57 6.57 0 0 0 3.51-1.11l.49-.35 1.32 2.43-.7.54a8.92 8.92 0 0 1-1.89.87 8.47 8.47 0 0 1-3 .51 7.26 7.26 0 0 1-5.37-2.08 7.67 7.67 0 0 1-.02-10.34zm7.66 3.67a2.76 2.76 0 0 0-2.68-3 3.36 3.36 0 0 0-3.32 3zM400.49 70.09v-2.56h2v-8a.52.52 0 0 0-.6-.6h-1.54v-2.6H404c1.19 0 1.78.51 1.78 1.54v.62l-.05.59h.05a5.54 5.54 0 0 1 5.05-3.08c3.07 0 4.61 1.76 4.61 5.24v6.29h2v2.56H412v-8.15c0-1.83-.57-2.81-2.19-2.81a3.45 3.45 0 0 0-2.81 1.44 5.31 5.31 0 0 0-1.08 3.34v3.62h2v2.56zM420.44 58.89h-2.1v-2.56h2.21v-3.75h3.32v3.75H427v2.56h-3.13v5.81a2.48 2.48 0 0 0 2.75 2.67h.62v2.81a6.41 6.41 0 0 1-1.05.08 7.17 7.17 0 0 1-2.86-.51c-1.54-.6-2.89-1.89-2.89-4.67zM437.4 68.39a6.81 6.81 0 0 1-2.19-5.18 6.73 6.73 0 0 1 2.19-5.16 8.06 8.06 0 0 1 10.74 0 6.68 6.68 0 0 1 2.21 5.16 6.83 6.83 0 0 1-2.18 5.18 8.16 8.16 0 0 1-10.77 0zm2.48-2.08a4.13 4.13 0 0 0 5.8 0 4.61 4.61 0 0 0 0-6.18 3.86 3.86 0 0 0-2.89-1.21 4 4 0 0 0-2.91 1.21 4.61 4.61 0 0 0 0 6.18zM452.25 70.09v-2.56h2v-8.64h-2.13v-2.56h2.13v-.62a5 5 0 0 1 1.35-3.7 4.56 4.56 0 0 1 1.4-.81 6.41 6.41 0 0 1 2.67-.51l1.41.1v2.76a4.89 4.89 0 0 0-1.06-.08c-1.54 0-2.32.73-2.32 2.16v.7h3.11v2.56h-3.11v8.64h2.3v2.56zM269.51 99.09v-2.64h2.3V82.6h-2.3v-2.67H278a13 13 0 0 1 3.64.4 5 5 0 0 1 3.54 5.13 5.27 5.27 0 0 1-3.62 5.32 2.25 2.25 0 0 1 1 1l2.21 4a1.41 1.41 0 0 0 1.3.62h.62v2.64h-2.24c-1.54 0-2.05-.32-2.68-1.43L279 92.72c-.43-.75-.78-1-1.86-1h-1.76v4.7h2.22v2.64zm5.83-10.17h3.19a2.85 2.85 0 0 0 3.07-3.16 2.56 2.56 0 0 0-1.51-2.65 5.25 5.25 0 0 0-2.16-.35h-2.59zM290.14 87a6.67 6.67 0 0 1 5.05-2 5.64 5.64 0 0 1 4.5 1.87 6.77 6.77 0 0 1 1.62 4.67l-.08 1.16h-9.53a4 4 0 0 0 4.13 3.83 6.57 6.57 0 0 0 3.51-1.11l.49-.35 1.32 2.43-.7.54a8.92 8.92 0 0 1-1.89.87 8.47 8.47 0 0 1-3 .51 7.26 7.26 0 0 1-5.37-2.08 7.7 7.7 0 0 1-.05-10.34zm7.64 3.64a2.76 2.76 0 0 0-2.67-3 3.35 3.35 0 0 0-3.32 3zM305.37 101a7.77 7.77 0 0 0 3.8.92c2.3 0 3.89-1.08 3.89-3.46v-.86l.05-.73h-.05a4.3 4.3 0 0 1-3.83 1.91 5.62 5.62 0 0 1-4.54-2 7.56 7.56 0 0 1-1.64-5 7.41 7.41 0 0 1 1.62-4.78 5.49 5.49 0 0 1 4.48-2 4.71 4.71 0 0 1 4.26 2.08 2.69 2.69 0 0 1 0-.46c0-.75.51-1.29 1.57-1.29h3.42v2.56h-1.32c-.4 0-.59.19-.59.54v9.83c0 4.72-3.67 6.5-7.26 6.5a10.57 10.57 0 0 1-4.92-1.19zm7.77-9.15q0-4-3.4-4c-2.05 0-3.24 1.48-3.24 3.83s1.3 4.19 3.46 4.19c1.83.07 3.18-1.09 3.18-3.98zM321.67 87.89h-2.13v-2.56h5.56v8.26c0 1.81.54 2.78 2.16 2.78a3.24 3.24 0 0 0 2.74-1.46 5.76 5.76 0 0 0 1.06-3.45v-3.57H329v-2.56h5.54V96c0 .41.18.6.59.6h1.32v2.53H333c-1.19 0-1.78-.51-1.78-1.54v-1.24h-.06a4.64 4.64 0 0 1-1.27 1.68 5.48 5.48 0 0 1-3.75 1.35c-3 0-4.51-1.76-4.51-5.24zM339 82.49h-2.13v-2.56h5.53V94.5c0 1.33.33 1.89 1.41 1.89h.64v2.75a9.23 9.23 0 0 1-1.24.08 4.79 4.79 0 0 1-3.07-.94c-.76-.65-1.14-1.84-1.14-3.54zM347.81 91.78a7.89 7.89 0 0 1 2-.76 13 13 0 0 1 3.67-.43h.86v-.46c0-1.59-.84-2.37-2.54-2.37a7.34 7.34 0 0 0-3.37 1l-.51.35-1.27-2.38a5.84 5.84 0 0 1 .67-.45 11.24 11.24 0 0 1 4.81-1.28c3.7 0 5.67 1.89 5.67 5.43v5.51a.52.52 0 0 0 .59.59h1.24v2.56h-3.24c-1.18 0-1.75-.59-1.75-1.45v-.17l.08-.7h-.05a3.8 3.8 0 0 1-.62.92 4.68 4.68 0 0 1-3.73 1.73 4.93 4.93 0 0 1-3.24-1.08 3.8 3.8 0 0 1-1.32-3.11 4 4 0 0 1 2.05-3.45zm3.4 5.07a2.72 2.72 0 0 0 2.24-1.16 4.06 4.06 0 0 0 .95-2.56v-.46h-.57a10 10 0 0 0-2.81.38 2 2 0 0 0-1.81 1.95 1.86 1.86 0 0 0 2 1.85zM362.63 87.89h-2.1v-2.56h2.21v-3.75h3.32v3.75h3.13v2.56h-3.13v5.81a2.48 2.48 0 0 0 2.75 2.67h.62v2.81a6.24 6.24 0 0 1-1.05.08 7.2 7.2 0 0 1-2.86-.51c-1.54-.6-2.89-1.89-2.89-4.67zM373.11 97.39a6.81 6.81 0 0 1-2.19-5.18 6.73 6.73 0 0 1 2.19-5.16 8.06 8.06 0 0 1 10.74 0 6.66 6.66 0 0 1 2.22 5.16 6.81 6.81 0 0 1-2.19 5.18 8.16 8.16 0 0 1-10.77 0zm2.48-2.08a4.14 4.14 0 0 0 5.81 0 4.64 4.64 0 0 0 0-6.18 3.89 3.89 0 0 0-2.89-1.21 4 4 0 0 0-2.92 1.21 4.64 4.64 0 0 0 0 6.18zM388 99.09v-2.56h2v-8a.52.52 0 0 0-.6-.6h-1.53v-2.6h3.59c1.21 0 1.83.56 1.83 1.67v.81l-.05.86h.05a4.71 4.71 0 0 1 4.37-3.53h.62v3.38a6.44 6.44 0 0 0-.83-.06 3.43 3.43 0 0 0-3 1.46 6.13 6.13 0 0 0-1 3.56v3h2v2.56zM400.22 101.31a3.25 3.25 0 0 0 2.08.65 2.44 2.44 0 0 0 2.42-1.6l.38-.86-4.72-11.61h-1.65v-2.56h6.78v2.56h-1.62l2.51 7a5.52 5.52 0 0 1 .27 1.21v.22h.08a6.38 6.38 0 0 1 .37-1.43l2.49-7h-1.59v-2.56h6.5v2.56H413l-5.07 13a5.46 5.46 0 0 1-5.45 3.88 7 7 0 0 1-3-.7l-.38-.24zM421.36 99.09v-2.64h1.75l5.75-16.52h4l5.75 16.52h1.76v2.64h-7.21v-2.64h1.89l-1.19-3.59h-6l-1.19 3.59h1.89v2.64zm7.29-9h4.42l-1.81-5.43a9.52 9.52 0 0 1-.32-1.46v-.21h-.08a8.93 8.93 0 0 1-.35 1.67zM443.77 101a7.77 7.77 0 0 0 3.8.92c2.3 0 3.89-1.08 3.89-3.46v-.86l.05-.73h-.05a4.3 4.3 0 0 1-3.83 1.91 5.62 5.62 0 0 1-4.54-2 7.56 7.56 0 0 1-1.64-5 7.41 7.41 0 0 1 1.62-4.78 5.49 5.49 0 0 1 4.48-2 4.71 4.71 0 0 1 4.26 2.08h.05a2.69 2.69 0 0 1-.05-.46c0-.75.51-1.29 1.57-1.29h3.42v2.56h-1.32c-.4 0-.59.19-.59.54v9.83c0 4.72-3.67 6.5-7.26 6.5a10.57 10.57 0 0 1-4.92-1.19zm7.77-9.15q0-4-3.4-4c-2.05 0-3.24 1.48-3.24 3.83s1.3 4.19 3.46 4.19c1.83.07 3.18-1.09 3.18-3.98zM460.24 87a6.67 6.67 0 0 1 5.05-2 5.64 5.64 0 0 1 4.5 1.87 6.77 6.77 0 0 1 1.62 4.67l-.08 1.16h-9.53a4 4 0 0 0 4.13 3.83 6.57 6.57 0 0 0 3.51-1.11l.49-.35 1.32 2.43-.7.54a8.92 8.92 0 0 1-1.89.87 8.51 8.51 0 0 1-3 .51 7.24 7.24 0 0 1-5.37-2.08 7.67 7.67 0 0 1-.05-10.34zm7.64 3.64a2.76 2.76 0 0 0-2.68-3 3.36 3.36 0 0 0-3.32 3zM473.39 99.09v-2.56h2v-8c0-.41-.18-.6-.59-.6h-1.54v-2.6h3.62c1.19 0 1.78.51 1.78 1.54v1.21a5.54 5.54 0 0 1 5.07-3.08c3.07 0 4.61 1.76 4.61 5.24v6.29h2v2.56h-5.4v-8.15c0-1.83-.57-2.81-2.19-2.81a3.45 3.45 0 0 0-2.86 1.44 5.31 5.31 0 0 0-1.08 3.34v3.62h2v2.56zM493.72 87.08A7.35 7.35 0 0 1 499 85a10.93 10.93 0 0 1 2.48.3 5.62 5.62 0 0 1 2.19 1.08 2.35 2.35 0 0 1 1 1.92v1.89h-3v-.92c0-.87-1.27-1.35-2.56-1.35-2.49 0-4.05 1.67-4.05 4.24a4.14 4.14 0 0 0 1.24 3.21 4.34 4.34 0 0 0 3.08 1.16 7.06 7.06 0 0 0 4.29-1.67l1.21 2.43a8.77 8.77 0 0 1-5.69 2.13 7.81 7.81 0 0 1-5.37-2 6.62 6.62 0 0 1-2.22-5.21 6.94 6.94 0 0 1 2.12-5.13zM506.73 99.09v-2.56h2v-8.64h-2.13v-2.56h5.56v11.2h2v2.56zm2-16.11v-3h3.46v3zM517.56 87a6.67 6.67 0 0 1 5.05-2 5.64 5.64 0 0 1 4.5 1.87 6.77 6.77 0 0 1 1.62 4.67l-.08 1.16h-9.53a4 4 0 0 0 4.13 3.83 6.57 6.57 0 0 0 3.51-1.11l.49-.35 1.32 2.43-.7.54a8.92 8.92 0 0 1-1.89.87 8.51 8.51 0 0 1-3 .51 7.24 7.24 0 0 1-5.37-2.08 7.67 7.67 0 0 1-.05-10.34zm7.64 3.64a2.76 2.76 0 0 0-2.68-3 3.36 3.36 0 0 0-3.32 3zM530.41 94.5h2.92v.81c0 .9 1.18 1.44 2.69 1.44s2.35-.52 2.35-1.41a1.3 1.3 0 0 0-.89-1.24c-.19-.11-.73-.32-1-.43s-1-.35-1.27-.46a10.61 10.61 0 0 1-2.91-1.38 3.31 3.31 0 0 1-1.43-2.89 3.22 3.22 0 0 1 1.62-3 7.19 7.19 0 0 1 3.8-1 8 8 0 0 1 3.38.73 2.32 2.32 0 0 1 1.59 2.14v1.75h-2.94v-.78c0-.68-.81-1.14-2-1.14s-2 .41-2 1.24a1.24 1.24 0 0 0 .44 1 6.17 6.17 0 0 0 2.45 1.12 10.29 10.29 0 0 1 3 1.35 3.1 3.1 0 0 1 1.54 2.88 3.51 3.51 0 0 1-1.65 3.11 7.34 7.34 0 0 1-4.1 1.08c-2.51 0-5.59-1.11-5.59-3.32zM271.75 125.36h-1.36v-1.3h5.92c4.45 0 7.41 2.71 7.41 7.37s-3 7.39-7.41 7.39H273c-.9 0-1.28-.38-1.28-1.28zm1.93 12.16h2.48c3.64 0 6-2.14 6-6.09s-2.42-6.07-6-6.07h-2.94v11.7a.41.41 0 0 0 .46.46zM286.24 130a.42.42 0 0 0-.46-.46h-.88v-1.24h1.49c.9 0 1.28.38 1.28 1.28v7.58a.41.41 0 0 0 .46.46h.87v1.24h-1.49c-.9 0-1.28-.38-1.28-1.28zm0-5.9h1.39v1.81h-1.43zM290.59 130a.66.66 0 0 0-.73-.48h-.19v-1.24h.56c1 0 1.33.21 1.68 1.16l2.54 6.59c.19.52.36 1.24.36 1.24s.17-.72.36-1.24l2.54-6.59c.36-.95.67-1.16 1.66-1.16h.63v1.24h-.19a.66.66 0 0 0-.74.48l-3.44 8.84H294zM302 130a.42.42 0 0 0-.46-.46h-.88v-1.24h1.49c.9 0 1.28.38 1.28 1.28v7.58a.41.41 0 0 0 .46.46h.88v1.24h-1.49c-.9 0-1.28-.38-1.28-1.28zm0-5.9h1.39v1.81H302zM306.53 136.24a4.31 4.31 0 0 0 3.25 1.6c1.18 0 2.23-.57 2.23-1.68 0-2.31-5.92-1.89-5.92-5.3 0-1.91 1.64-2.85 3.76-2.85 1.07 0 3.21.42 3.21 1.91v.9h-1.34v-.5c0-.78-1.14-1.07-1.83-1.07-1.47 0-2.35.5-2.35 1.53 0 2.37 5.92 1.83 5.92 5.33 0 1.77-1.6 3-3.7 3a5.07 5.07 0 0 1-4.05-1.84zM316.06 130a.42.42 0 0 0-.46-.46h-.88v-1.24h1.49c.9 0 1.28.38 1.28 1.28v7.58a.41.41 0 0 0 .46.46h.89v1.24h-1.5c-.9 0-1.28-.38-1.28-1.28zm0-5.9h1.39v1.81H316zM325.6 128a5.53 5.53 0 1 1-5.57 5.48 5.47 5.47 0 0 1 5.57-5.48zm0 9.78a4.16 4.16 0 0 0 4.09-4.3 4.11 4.11 0 1 0-8.21 0 4.16 4.16 0 0 0 4.14 4.31zM333.64 130a.42.42 0 0 0-.46-.46h-.88v-1.24h1.47c.88 0 1.28.38 1.28 1.18v.48a7.26 7.26 0 0 1 0 .76 4.47 4.47 0 0 1 4.2-2.67c2.62 0 3.54 1.49 3.54 4.09v5a.41.41 0 0 0 .47.46h.88v1.24h-1.49c-.9 0-1.28-.38-1.28-1.28v-5.06c0-1.66-.26-3.13-2.29-3.13a4 4 0 0 0-3.84 3 5 5 0 0 0-.17 1.42v5.06h-1.43zM356.28 128a5.53 5.53 0 1 1-5.57 5.48 5.47 5.47 0 0 1 5.57-5.48zm0 9.78a4.16 4.16 0 0 0 4.09-4.3 4.11 4.11 0 1 0-8.21 0 4.16 4.16 0 0 0 4.14 4.31zM364.34 129.46H363v-1.2h1.32v-.38c0-3.48 2.46-3.92 3.63-3.92a4.79 4.79 0 0 1 .66 0v1.28a2.73 2.73 0 0 0-.51 0c-.8 0-2.35.29-2.35 2.64v.38h2.69v1.2h-2.69v9.36h-1.43zM376.44 125.36h-1.37v-1.3h6.24a4.28 4.28 0 0 1 4.55 4.45 4.32 4.32 0 0 1-4.55 4.52h-3.4v5.79h-1.47zm4.68 6.37a3 3 0 0 0 3.23-3.22 3 3 0 0 0-3.21-3.15h-3.23v6.37zM388 130a.42.42 0 0 0-.46-.46h-.89v-1.24h1.47c.88 0 1.28.36 1.28 1.2v1.51a3.6 3.6 0 0 1 3.34-2.81 3 3 0 0 1 .57.06v1.41a3 3 0 0 0-.53 0 3.38 3.38 0 0 0-3.06 2.73 7 7 0 0 0-.3 2.06v4.45H388zM399.94 128a5.53 5.53 0 1 1-5.57 5.48 5.47 5.47 0 0 1 5.57-5.48zm0 9.78a4.16 4.16 0 0 0 4.09-4.3 4.11 4.11 0 1 0-8.21 0 4.16 4.16 0 0 0 4.18 4.31zM408 129.46h-1.32v-1.2H408v-.38c0-3.48 2.46-3.92 3.63-3.92a4.54 4.54 0 0 1 .65 0v1.28a2.68 2.68 0 0 0-.5 0c-.8 0-2.35.29-2.35 2.64v.38h2.69v1.2h-2.69v9.36H408zM418.39 128c2.92 0 4.44 2.25 4.44 4.87 0 .25-.05.71-.05.71h-8.1a4 4 0 0 0 4.09 4.2 4.71 4.71 0 0 0 3.17-1.3l.7 1.07a6 6 0 0 1-3.93 1.51 5.34 5.34 0 0 1-5.52-5.52 5.16 5.16 0 0 1 5.2-5.54zm3 4.45c-.08-2.18-1.42-3.25-3-3.25a3.63 3.63 0 0 0-3.63 3.25zM425.07 136.24a4.31 4.31 0 0 0 3.26 1.6c1.17 0 2.22-.57 2.22-1.68 0-2.31-5.92-1.89-5.92-5.3 0-1.91 1.64-2.85 3.76-2.85 1.07 0 3.21.42 3.21 1.91v.9h-1.34v-.5c0-.78-1.13-1.07-1.83-1.07-1.47 0-2.35.5-2.35 1.53 0 2.37 5.92 1.83 5.92 5.33 0 1.77-1.59 3-3.69 3a5.07 5.07 0 0 1-4.05-1.84zM434.1 136.24a4.31 4.31 0 0 0 3.26 1.6c1.17 0 2.22-.57 2.22-1.68 0-2.31-5.92-1.89-5.92-5.3 0-1.91 1.64-2.85 3.76-2.85 1.07 0 3.21.42 3.21 1.91v.9h-1.34v-.5c0-.78-1.13-1.07-1.83-1.07-1.47 0-2.35.5-2.35 1.53 0 2.37 5.92 1.83 5.92 5.33 0 1.77-1.59 3-3.69 3a5.1 5.1 0 0 1-4.06-1.84zM443.64 130a.42.42 0 0 0-.47-.46h-.88v-1.24h1.49c.91 0 1.28.38 1.28 1.28v7.58a.41.41 0 0 0 .47.46h.88v1.24h-1.49c-.91 0-1.28-.38-1.28-1.28zm-.05-5.9H445v1.81h-1.39zM453.17 128a5.53 5.53 0 1 1-5.56 5.48 5.47 5.47 0 0 1 5.56-5.48zm0 9.78a4.15 4.15 0 0 0 4.09-4.3 4.1 4.1 0 1 0-8.2 0 4.16 4.16 0 0 0 4.13 4.31zM461.21 130a.42.42 0 0 0-.46-.46h-.88v-1.24h1.47c.88 0 1.28.38 1.28 1.18v.48a7.26 7.26 0 0 1 0 .76 4.48 4.48 0 0 1 4.2-2.67c2.62 0 3.55 1.49 3.55 4.09v5a.41.41 0 0 0 .46.46h.88v1.24h-1.49c-.9 0-1.28-.38-1.28-1.28v-5.06c0-1.66-.25-3.13-2.29-3.13a4 4 0 0 0-3.84 3 5 5 0 0 0-.17 1.42v5.06h-1.43zM473.37 136.24a4.31 4.31 0 0 0 3.26 1.6c1.17 0 2.22-.57 2.22-1.68 0-2.31-5.92-1.89-5.92-5.3 0-1.91 1.64-2.85 3.76-2.85 1.07 0 3.21.42 3.21 1.91v.9h-1.34v-.5c0-.78-1.14-1.07-1.83-1.07-1.47 0-2.35.5-2.35 1.53 0 2.37 5.92 1.83 5.92 5.33 0 1.77-1.59 3-3.69 3a5.08 5.08 0 0 1-4.06-1.84zM493.78 132.31h.59v-.12c0-2.21-.8-3-2.73-3-.52 0-2.06.14-2.06.92v.67h-1.36v-1c0-1.47 2.52-1.78 3.44-1.78 3.34 0 4.14 1.78 4.14 4.05v5.06a.41.41 0 0 0 .46.46h.88v1.24h-1.45c-.9 0-1.26-.4-1.26-1.26v-.77a3.73 3.73 0 0 1-3.5 2.28c-1.77 0-3.59-1-3.59-3.12-.02-3.5 4.66-3.63 6.44-3.63zm-2.64 5.55c2 0 3.23-2.1 3.23-3.93v-.48h-.61c-1.66 0-5 0-5 2.41a2.1 2.1 0 0 0 2.38 2zM499.2 130a.42.42 0 0 0-.46-.46h-.88v-1.24h1.47c.88 0 1.28.38 1.28 1.18v.48a7.26 7.26 0 0 1 0 .76 4.48 4.48 0 0 1 4.2-2.67c2.62 0 3.55 1.49 3.55 4.09v5a.4.4 0 0 0 .46.46h.88v1.24h-1.49c-.9 0-1.28-.38-1.28-1.28v-5.06c0-1.66-.25-3.13-2.29-3.13a4 4 0 0 0-3.84 3 5 5 0 0 0-.17 1.42v5.06h-1.43zM515.56 128a3.72 3.72 0 0 1 3.44 2 6.29 6.29 0 0 1 0-.8v-3.42a.42.42 0 0 0-.46-.46h-.88v-1.24h1.49c.9 0 1.28.38 1.28 1.28v11.78a.41.41 0 0 0 .46.46h.88v1.24h-1.47c-.88 0-1.25-.4-1.25-1.17a5.32 5.32 0 0 1 0-.68 3.84 3.84 0 0 1-3.64 2.1c-2.83 0-4.6-2.26-4.6-5.54s1.98-5.55 4.75-5.55zm3.49 5.52c0-2.14-1.1-4.24-3.36-4.24-1.87 0-3.41 1.57-3.41 4.24s1.37 4.26 3.34 4.26c1.77.01 3.43-1.25 3.43-4.25zM535.89 123.81a7.46 7.46 0 0 1 7.51 7.54 7.52 7.52 0 1 1-15 0 7.45 7.45 0 0 1 7.49-7.54zm0 13.88a6.13 6.13 0 0 0 6-6.34 6 6 0 1 0-12 0 6.12 6.12 0 0 0 6 6.34zM550.38 128c1.19 0 3.76.5 3.76 2.25v.94h-1.35v-.61c0-.88-1.53-1.3-2.41-1.3a4.24 4.24 0 0 0 0 8.48 4.67 4.67 0 0 0 3.4-1.49l.67 1.07a5.55 5.55 0 0 1-4.13 1.72 5.34 5.34 0 0 1-5.55-5.52 5.41 5.41 0 0 1 5.61-5.54zM561.26 128c1.19 0 3.75.5 3.75 2.25v.94h-1.34v-.61c0-.88-1.53-1.3-2.41-1.3a4.24 4.24 0 0 0 0 8.48 4.67 4.67 0 0 0 3.4-1.49l.67 1.07a5.59 5.59 0 0 1-4.14 1.72 5.34 5.34 0 0 1-5.54-5.52 5.41 5.41 0 0 1 5.61-5.54zM567.51 130a.42.42 0 0 0-.46-.46h-.88v-1.24h1.49c.9 0 1.28.38 1.28 1.24v5.1c0 1.66.28 3.13 2.31 3.13 2.4 0 3.89-2.12 3.89-4.41v-5.06h1.42v8.86a.41.41 0 0 0 .47.46h.88v1.24h-1.45c-.88 0-1.28-.38-1.28-1.17v-.49a6.94 6.94 0 0 1 0-.75 4.51 4.51 0 0 1-4.12 2.66c-2.5 0-3.55-1.34-3.55-4.09zM580 130a.42.42 0 0 0-.46-.46h-.88v-1.24h1.44c.91 0 1.26.38 1.26 1.11v.72A3.79 3.79 0 0 1 585 128c2.83 0 4.6 2.27 4.6 5.54s-2 5.52-4.73 5.52a3.74 3.74 0 0 1-3.46-2h-.05a7.8 7.8 0 0 1 .05.92v5H580zm4.74 7.85c1.87 0 3.41-1.57 3.41-4.26s-1.37-4.24-3.34-4.24c-1.77 0-3.43 1.26-3.43 4.26.01 2.08 1.17 4.2 3.37 4.2zM597.61 132.31h.58v-.12c0-2.21-.79-3-2.73-3-.52 0-2.05.14-2.05.92v.67H592v-1c0-1.47 2.52-1.78 3.45-1.78 3.33 0 4.13 1.78 4.13 4.05v5.06a.41.41 0 0 0 .46.46h.96v1.24h-1.45c-.91 0-1.26-.4-1.26-1.26v-.77a3.75 3.75 0 0 1-3.51 2.28c-1.76 0-3.59-1-3.59-3.12-.05-3.5 4.59-3.63 6.42-3.63zm-2.61 5.55c2 0 3.23-2.1 3.23-3.93v-.48h-.6c-1.66 0-5 0-5 2.41a2.1 2.1 0 0 0 2.37 2zM603.15 129.46h-1.39v-1.2h1.41v-2.92h1.41v2.92h2.64v1.2h-2.64v5.37c0 2.48 1.57 2.8 2.37 2.8a2 2 0 0 0 .48 0v1.28a3.38 3.38 0 0 1-.6 0c-1.22 0-3.68-.4-3.68-3.93zM610 130a.42.42 0 0 0-.46-.46h-.88v-1.24h1.49c.9 0 1.28.38 1.28 1.28v7.58a.41.41 0 0 0 .46.46h.89v1.24h-1.49c-.91 0-1.29-.38-1.29-1.28zm0-5.9h1.39v1.81H610zM619.49 128a5.53 5.53 0 1 1-5.57 5.48 5.47 5.47 0 0 1 5.57-5.48zm0 9.78a4.15 4.15 0 0 0 4.09-4.3 4.11 4.11 0 1 0-8.21 0 4.16 4.16 0 0 0 4.14 4.31zM627.53 130a.42.42 0 0 0-.46-.46h-.88v-1.24h1.47c.88 0 1.28.38 1.28 1.18v.48a7.26 7.26 0 0 1 0 .76 4.48 4.48 0 0 1 4.2-2.67c2.62 0 3.55 1.49 3.55 4.09v5a.4.4 0 0 0 .46.46h.85v1.24h-1.49c-.9 0-1.28-.38-1.28-1.28v-5.06c0-1.66-.25-3.13-2.29-3.13a4 4 0 0 0-3.84 3 5 5 0 0 0-.17 1.42v5.06h-1.43zM639.69 136.24a4.31 4.31 0 0 0 3.25 1.6c1.18 0 2.23-.57 2.23-1.68 0-2.31-5.92-1.89-5.92-5.3 0-1.91 1.64-2.85 3.76-2.85 1.07 0 3.21.42 3.21 1.91v.9h-1.34v-.5c0-.78-1.14-1.07-1.83-1.07-1.47 0-2.35.5-2.35 1.53 0 2.37 5.92 1.83 5.92 5.33 0 1.77-1.6 3-3.7 3a5.07 5.07 0 0 1-4-1.84z"/><path class="cls-1" d="M236.36 51.09v-1.47a49.5 49.5 0 0 0-99 0v1.47l49.54 20.09z"/><path class="cls-2" d="M186.9 74.18l-.52-.22-48.76-19.8a49.49 49.49 0 0 0 98.56 0z"/><path class="cls-3" d="M163 77.85a.31.31 0 0 1 .3-.32h4.06a5.83 5.83 0 1 1 0 11.66h-4.06a.31.31 0 0 1-.3-.31zm4.2 8.88a3.38 3.38 0 0 0 0-6.75h-1.6v6.75zM181.42 77.36a6 6 0 1 1-6 6 6 6 0 0 1 6-6zm0 9.33a3.33 3.33 0 1 0-3.32-3.31 3.34 3.34 0 0 0 3.32 3.31zM190.43 77.85a.32.32 0 0 1 .32-.32h5a3.62 3.62 0 0 1 3.63 3.6 3.67 3.67 0 0 1-2.46 3.35l2.28 4.23a.31.31 0 0 1-.29.48h-2.21a.32.32 0 0 1-.27-.15l-2.21-4.41h-1.15v4.25a.33.33 0 0 1-.32.31h-2a.31.31 0 0 1-.32-.31zm5.08 4.66a1.33 1.33 0 0 0 1.27-1.33 1.28 1.28 0 0 0-1.27-1.27h-2.46v2.6zM201.1 88.76l5.21-11.21a.35.35 0 0 1 .28-.19h.17a.34.34 0 0 1 .28.19l5.22 11.21a.29.29 0 0 1-.28.43h-1.85c-.3 0-.44-.1-.59-.41l-.6-1.32h-4.53l-.6 1.33a.61.61 0 0 1-.6.4h-1.83a.29.29 0 0 1-.28-.43zm6.84-3.57l-1.26-2.75-1.25 2.75zM193.65 55.94a12.41 12.41 0 0 0-.85-2.62 8.38 8.38 0 0 1-.61-1.84 10 10 0 0 0-.26-3 7.38 7.38 0 0 0 2.41-.31 3 3 0 0 0 1.77-1.83 3.23 3.23 0 0 0-.17-2.75 33.67 33.67 0 0 1-2.52-4.82 3 3 0 0 0-2.11-1.77 3.33 3.33 0 0 0 0-2.49.87.87 0 0 1 .06-.62 1.79 1.79 0 0 0 .13-.68 9.83 9.83 0 0 0-.61-2.73 4.68 4.68 0 0 0-.75-2.33 5.62 5.62 0 0 0-3.34-2.38 2.25 2.25 0 0 0-1.68.21 3.53 3.53 0 0 0-.95.23 4.26 4.26 0 0 0-2.59 3.24 9 9 0 0 1-.55 1.84 4.59 4.59 0 0 0-.43 1.71 7.59 7.59 0 0 0 .11 1.35 1.53 1.53 0 0 1 0 .64c-.05.12-.15.34 0 .35h-.23a2.73 2.73 0 0 0-2.19.66 2.2 2.2 0 0 0-1.52 1.93 22.43 22.43 0 0 0 .44 4c.06.4.11.7.12.81s.31 3.94 1.39 4.74c.32.23.68.51.94.71 0 .56 0 1.54.12 2.12a3.56 3.56 0 0 1 0 1.17 26.63 26.63 0 0 0-1.17 5.38.87.87 0 0 0 .11.41.93.93 0 0 0 .28.31 20.59 20.59 0 0 0 .48 4.83l2.11.75a18.45 18.45 0 0 1-.73-6.19.86.86 0 0 0-.31-.76 36.27 36.27 0 0 1 .94-4 3.67 3.67 0 0 0 .12-2.14c-.08-.61-.1-1.89-.1-2.34a.9.9 0 0 0-.35-.69s-.73-.56-1.23-.91a13.25 13.25 0 0 1-.75-3.47c0-.11-.06-.5-.15-1a23.87 23.87 0 0 1-.41-3.56.41.41 0 0 1 .35-.41.93.93 0 0 0 .66-.42c.07-.11.38-.15.73-.13a4.53 4.53 0 0 0 .54 0c1-.09 1.37-1 1.62-1.58a2.46 2.46 0 0 0 .07-1.41 8.26 8.26 0 0 1-.09-1.09 3.36 3.36 0 0 1 .31-1.11 10.55 10.55 0 0 0 .64-2.17 2.47 2.47 0 0 1 1.55-1.94 1.38 1.38 0 0 1 .44-.09h.25a3.29 3.29 0 0 0 .55-.21 1.87 1.87 0 0 1 .39 0 3.89 3.89 0 0 1 2.08 1.63 3 3 0 0 1 .43 1.5.94.94 0 0 0 .07.34 6.6 6.6 0 0 1 .5 2.36 2.53 2.53 0 0 0-.06 1.71 1.65 1.65 0 0 1-.39 1.84.89.89 0 0 0-.29 1 .92.92 0 0 0 .8.62c.72 0 1.79.37 1.94.83a34.12 34.12 0 0 0 2.7 5.2 1.55 1.55 0 0 1 0 1.24 1.21 1.21 0 0 1-.66.76 11.18 11.18 0 0 1-2.92.13.91.91 0 0 0-.86.35.86.86 0 0 0-.11.9 9.21 9.21 0 0 1 .54 3.34 6 6 0 0 0 .72 2.73 11.5 11.5 0 0 1 .74 2.22c.16 1.15-.67 5.3-1.07 6.74a11 11 0 0 0-.24 1.61l1.93-.69c0-.19.06-.35.09-.47.15-.69 1.34-5.69 1.08-7.49zM213.84 44.58c0-1.19-.09-3.41-.84-4.21s-4.28-2.41-4.8-2.62c-.85-.35-.88-1.24-.49-2s1.63-3.81.2-5.94a3.18 3.18 0 0 0-4.88-.53c-1.14 1-.76 4.3-.42 5.63s1.25 2.55 1.29 3.51c0 1.19-2.21 2.54-3.54 3.53s-1.42 1.68-1.12 6.93-.56 6.56-.56 6.56a18.56 18.56 0 0 0-1.42 6.71l15.54-5.6c.13-.34.26-.68.4-1 .94-2.21.6-9.78.64-10.97zM172.4 52.49c.48-.09 2.89.37 3.19-1a8.43 8.43 0 0 0-.43-4.49 9.79 9.79 0 0 1-.55-3.38 2.87 2.87 0 0 0-1.08-2.37c-.77-.44-1.93-.46-3.66-1.34s-1.71-1.8-1.46-2.76 1.23-2.93 1.24-4.09-.3-3.67-2.56-4.27a3.35 3.35 0 0 0-4.08 3 13.14 13.14 0 0 0 .78 4.39 4 4 0 0 1-.12 2.46 2.9 2.9 0 0 1-2 1.43c-.58.08-3.42.64-3.45 3.2 0 0 .2 4.34.52 6s1.17 3.24 1.12 4.11c0 .24-.12 1-.24 2L173 60.06c-.33-2.18-1-7.49-.6-7.57z"/><path class="cls-3" d="M216.28 29.66a1.39 1.39 0 0 1-1.14-.58 35.68 35.68 0 0 0-58.28 0 1.4 1.4 0 0 1-2.28-1.62 38.48 38.48 0 0 1 62.83 0 1.39 1.39 0 0 1-.32 1.94 1.37 1.37 0 0 1-.81.26z"/><path d="M43.48 80.64a52.32 52.32 0 0 1-4.14-6l-.22-.32c-.91-1.65-1.77-3.33-2.53-5.07-.21-.52-.43-1-.63-1.57a49.56 49.56 0 0 1-3.36-20.62A48.63 48.63 0 0 1 39 25.3a1.39 1.39 0 0 1 .12-.32c1.06-1.7 2.14-3.37 3.34-5-.55-1-1.14-2-1.78-3.19-3.92-7-5.9-10.34-9.84-16.81C26.89 6.6 24.92 10 21 17.1c-3.93 6.9-5.88 10.41-9.73 17.77a62.7 62.7 0 0 1 8-1.64c-.82 2-1.23 3-2.05 5.06C12.56 47.54 8.12 57 3.94 66.42a64.71 64.71 0 0 1 8.31-2.55C8 74.08 4 84.29 0 94.6c21.66-7.48 39.36-7.58 61.07-.19A50.9 50.9 0 0 1 48.55 86a48.66 48.66 0 0 1-5.07-5.36z" fill="#245d38"/><path d="M82.23 25.68a24 24 0 0 0-18.53 8.69l-.12.14a24.11 24.11 0 0 0-5.48 15.3v.68l14.63-12.75 10 8.71 10-8.71 13.66 11.92a23.65 23.65 0 0 0-1.86-9.13 24 24 0 0 0-22.3-14.85z" fill="#ffd100"/><path class="cls-1" d="M39 25.3a48.63 48.63 0 0 0-6.4 21.76A49.56 49.56 0 0 0 36 67.68c.2.53.42 1 .63 1.57l18.88-16.49c0-.33-.08-.67-.11-1 0-.6-.07-1.23-.07-1.94a26.9 26.9 0 0 1 6.15-17.12l.12-.14a26.88 26.88 0 0 1 45.45 6.9q10-4.06 20-8.07c.44-.19.57-.32.34-.83-.81-1.89-1.76-3.76-2.75-5.6-.09-.16-.19-.31-.28-.44Q110.85 2.81 85.36.44a45.06 45.06 0 0 0-14.49 1.13A49 49 0 0 0 43.08 19.2c-.22.26-.41.54-.62.81-1.2 1.6-2.28 3.27-3.34 5a1.39 1.39 0 0 0-.12.29z"/><path d="M72.73 37.74L58.12 50.49c0 .36 0 .71.05 1a24.09 24.09 0 0 0 3.4 10.74c.41.67.76 1.18 1.09 1.64l20-17.47z" fill="#7a853b"/><path d="M59.23 63.78a27.07 27.07 0 0 1-3.72-11L36.59 69.25c.76 1.74 1.62 3.42 2.53 5.07l.22.32a52.32 52.32 0 0 0 4.14 6l.73-.63 16.36-14.26-.08-.1c-.39-.53-.79-1.13-1.26-1.87z" fill="#6d3a5d"/><path class="cls-2" d="M126.8 67.81q-9.81-4-19.63-7.92a26.53 26.53 0 0 1-2.81 5.21 26.89 26.89 0 0 1-43.78.64L44.21 80l-.73.63A48.66 48.66 0 0 0 48.55 86a50.9 50.9 0 0 0 12.52 8.38A49.57 49.57 0 0 0 80.61 99a46.45 46.45 0 0 0 15-1.92 49.26 49.26 0 0 0 24.1-15.7c.43-.5.84-1 1.25-1.55a57.42 57.42 0 0 0 3.68-5.47 51.84 51.84 0 0 0 2.63-5.36c.06-.19.12-.31.16-.41l.06-.16-.06-.25c-.1-.18-.29-.18-.63-.37z"/><path d="M82.71 46.45l19.16 16.71.28.24a22.89 22.89 0 0 0 2.44-4.54 23.84 23.84 0 0 0 1.76-9v-.15L92.69 37.74z" fill="#35647e"/><path class="cls-2" d="M82.71 46.45l-20 17.47.07.09a24.11 24.11 0 0 0 39.34-.48l.08-.13-.28-.24z"/><path d="M111.4 93.94h-1.06a.13.13 0 0 1-.13-.13v-.57a.13.13 0 0 1 .13-.13h3a.13.13 0 0 1 .14.13v.57a.13.13 0 0 1-.14.13h-1.06v3.9a.13.13 0 0 1-.13.13h-.64a.14.14 0 0 1-.14-.13zM115.35 93.15a.11.11 0 0 1 .12-.11h.11a.13.13 0 0 1 .12.07l1.53 3.28 1.53-3.28a.12.12 0 0 1 .12-.07h.12a.11.11 0 0 1 .12.11l.82 4.66a.12.12 0 0 1-.13.16h-.63a.15.15 0 0 1-.13-.1l-.41-2.63-1.22 2.76a.13.13 0 0 1-.12.07h-.13a.13.13 0 0 1-.12-.07l-1.22-2.73-.4 2.63a.13.13 0 0 1-.12.1h-.63c-.09 0-.14-.06-.13-.16z"/></svg>