<?xml version="1.0" encoding="UTF-8" standalone="no"?>
<!DOCTYPE svg PUBLIC "-//W3C//DTD SVG 1.1//EN" "http://www.w3.org/Graphics/SVG/1.1/DTD/svg11.dtd">
<svg width="100%" height="100%" viewBox="0 0 1813 700" version="1.1" xmlns="http://www.w3.org/2000/svg" xmlns:xlink="http://www.w3.org/1999/xlink" xml:space="preserve" xmlns:serif="http://www.serif.com/" style="fill-rule:evenodd;clip-rule:evenodd;stroke-miterlimit:10;">
    <g transform="matrix(8.33333,0,0,8.33333,680.226,412.926)">
        <path d="M0,0L132.08,0" style="fill:none;fill-rule:nonzero;stroke:rgb(0,42,92);stroke-width:0.77px;"/>
    </g>
    <g transform="matrix(8.33333,0,0,8.33333,681.985,513.093)">
        <path d="M0,-0.001C0.395,-3.845 2.029,-6.04 4.834,-6.04C7.128,-6.04 8.383,-4.687 8.234,-1.997L6.682,-1.997C6.765,-3.812 6.155,-4.72 4.719,-4.72C2.822,-4.72 1.831,-3.037 1.518,-0.001C1.188,3.036 1.831,4.719 3.729,4.719C5.164,4.719 5.973,3.811 6.254,1.996L7.805,1.996C7.392,4.686 5.858,6.039 3.564,6.039C0.759,6.039 -0.413,3.844 0,-0.001" style="fill:rgb(0,42,92);fill-rule:nonzero;"/>
    </g>
    <g transform="matrix(8.33333,0,0,8.33333,760.5,513.093)">
        <path d="M0,-0.001C0.395,-3.845 2.177,-6.04 5.032,-6.04C7.903,-6.04 9.223,-3.845 8.828,-0.001C8.414,3.844 6.633,6.039 3.761,6.039C0.907,6.039 -0.414,3.844 0,-0.001M7.31,-0.001C7.623,-3.037 6.831,-4.72 4.9,-4.72C2.986,-4.72 1.831,-3.037 1.518,-0.001C1.187,3.036 1.996,4.719 3.91,4.719C5.841,4.719 6.979,3.036 7.31,-0.001" style="fill:rgb(0,42,92);fill-rule:nonzero;"/>
    </g>
    <g transform="matrix(8.33333,0,0,8.33333,854.407,561.219)">
        <path d="M0,-11.551L1.518,-11.551L3.333,-2.129L7.128,-11.551L8.646,-11.551L7.425,0L6.056,0L6.914,-8.201L3.547,0L2.656,0L1.007,-8.201L0.149,0L-1.221,0L0,-11.551Z" style="fill:rgb(0,42,92);fill-rule:nonzero;"/>
    </g>
    <g transform="matrix(8.33333,0,0,8.33333,999.873,528.077)">
        <path d="M0,-3.597C-0.248,-1.172 -1.881,0.396 -4.471,0.396L-5.758,0.396L-6.137,3.977L-7.59,3.977L-6.369,-7.574L-3.63,-7.574C-1.039,-7.574 0.265,-6.023 0,-3.597M-1.518,-3.597C-1.353,-5.198 -2.112,-6.303 -3.712,-6.303L-5.065,-6.303L-5.626,-0.891L-4.274,-0.891C-2.672,-0.891 -1.683,-1.996 -1.518,-3.597" style="fill:rgb(0,42,92);fill-rule:nonzero;"/>
    </g>
    <g transform="matrix(8.33333,0,0,8.33333,1052.69,482.697)">
        <path d="M0,7.294L-3.928,7.294L-4.72,9.422L-6.254,9.422L-1.568,-2.128L-0.396,-2.128L1.847,9.422L0.329,9.422L0,7.294ZM-0.215,6.023L-1.205,-0.049L-3.45,6.023L-0.215,6.023Z" style="fill:rgb(0,42,92);fill-rule:nonzero;"/>
    </g>
    <g transform="matrix(8.33333,0,0,8.33333,1125.28,464.959)">
        <path d="M0,11.551L-1.716,7.97L-3.316,7.97L-3.696,11.551L-5.148,11.551L-3.927,0L-1.189,0C1.403,0 2.706,1.551 2.442,3.977C2.261,5.792 1.288,7.129 -0.265,7.69L1.667,11.551L0,11.551ZM-1.832,6.683C-0.23,6.683 0.759,5.578 0.924,3.977C1.089,2.376 0.329,1.271 -1.27,1.271L-2.624,1.271L-3.185,6.683L-1.832,6.683Z" style="fill:rgb(0,42,92);fill-rule:nonzero;"/>
    </g>
    <g transform="matrix(8.33333,0,0,8.33333,1200.49,482.697)">
        <path d="M0,7.294L-3.928,7.294L-4.72,9.422L-6.254,9.422L-1.568,-2.128L-0.396,-2.128L1.848,9.422L0.33,9.422L0,7.294ZM-0.215,6.023L-1.205,-0.049L-3.45,6.023L-0.215,6.023Z" style="fill:rgb(0,42,92);fill-rule:nonzero;"/>
    </g>
    <g transform="matrix(8.33333,0,0,8.33333,1253.14,549.799)">
        <path d="M0,-8.811L-2.657,-8.811L-2.508,-10.181L4.257,-10.181L4.109,-8.811L1.435,-8.811L0.363,1.37L-1.073,1.37L0,-8.811Z" style="fill:rgb(0,42,92);fill-rule:nonzero;"/>
    </g>
    <g transform="matrix(8.33333,0,0,8.33333,1300.85,561.219)">
        <path d="M0,-11.551L1.452,-11.551L0.231,0L-1.221,0L0,-11.551Z" style="fill:rgb(0,42,92);fill-rule:nonzero;"/>
    </g>
    <g transform="matrix(8.33333,0,0,8.33333,1324.91,561.219)">
        <path d="M0,-11.551L1.534,-11.551L3.052,-2.409L6.518,-11.551L8.052,-11.551L3.415,0L2.194,0L0,-11.551Z" style="fill:rgb(0,42,92);fill-rule:nonzero;"/>
    </g>
    <g transform="matrix(8.33333,0,0,8.33333,1403.97,561.219)">
        <path d="M0,-11.551L5.512,-11.551L5.363,-10.247L1.304,-10.247L0.909,-6.469L4.968,-6.469L4.835,-5.165L0.776,-5.165L0.364,-1.304L4.423,-1.304L4.291,0L-1.221,0L0,-11.551Z" style="fill:rgb(0,42,92);fill-rule:nonzero;"/>
    </g>
    <g transform="matrix(8.33333,0,0,8.33333,692.02,697.153)">
        <path d="M0,-11.551L5.512,-11.551L5.363,-10.247L1.304,-10.247L0.908,-6.468L4.968,-6.468L4.835,-5.164L0.776,-5.164L0.363,-1.304L4.423,-1.304L4.291,0L-1.221,0L0,-11.551Z" style="fill:rgb(0,42,92);fill-rule:nonzero;"/>
    </g>
    <g transform="matrix(8.33333,0,0,8.33333,756.646,697.153)">
        <path d="M0,-11.551L3.003,-11.551C5.874,-11.551 7.342,-9.306 6.981,-5.776C6.617,-2.293 4.604,0 1.667,0L-1.221,0L0,-11.551ZM1.848,-1.304C3.828,-1.304 5.165,-2.855 5.478,-5.776C5.775,-8.697 4.769,-10.247 2.788,-10.247L1.304,-10.247L0.363,-1.304L1.848,-1.304Z" style="fill:rgb(0,42,92);fill-rule:nonzero;"/>
    </g>
    <g transform="matrix(8.33333,0,0,8.33333,826.772,633.762)">
        <path d="M0,3.927L0.842,-3.944L2.31,-3.944L1.485,3.812C1.303,5.577 2.079,6.551 3.365,6.551C4.669,6.551 5.643,5.577 5.824,3.812L6.65,-3.944L8.119,-3.944L7.277,3.927C7.012,6.468 5.428,7.871 3.217,7.871C1.007,7.871 -0.265,6.468 0,3.927" style="fill:rgb(0,42,92);fill-rule:nonzero;"/>
    </g>
    <g transform="matrix(8.33333,0,0,8.33333,903.36,649.031)">
        <path d="M0,-0.001C0.395,-3.846 2.029,-6.04 4.834,-6.04C7.128,-6.04 8.382,-4.687 8.234,-1.998L6.682,-1.998C6.765,-3.812 6.154,-4.72 4.719,-4.72C2.821,-4.72 1.831,-3.037 1.518,-0.001C1.187,3.035 1.831,4.718 3.729,4.718C5.164,4.718 5.972,3.811 6.253,1.996L7.805,1.996C7.392,4.686 5.857,6.039 3.564,6.039C0.759,6.039 -0.414,3.844 0,-0.001" style="fill:rgb(0,42,92);fill-rule:nonzero;"/>
    </g>
    <g transform="matrix(8.33333,0,0,8.33333,1027.67,618.626)">
        <path d="M0,7.295L-3.928,7.295L-4.72,9.423L-6.254,9.423L-1.568,-2.128L-0.396,-2.128L1.847,9.423L0.329,9.423L0,7.295ZM-0.215,6.024L-1.205,-0.048L-3.45,6.024L-0.215,6.024Z" style="fill:rgb(0,42,92);fill-rule:nonzero;"/>
    </g>
    <g transform="matrix(8.33333,0,0,8.33333,1080.32,685.745)">
        <path d="M0,-8.813L-2.657,-8.813L-2.509,-10.182L4.257,-10.182L4.109,-8.813L1.435,-8.813L0.363,1.369L-1.073,1.369L0,-8.813Z" style="fill:rgb(0,42,92);fill-rule:nonzero;"/>
    </g>
    <g transform="matrix(8.33333,0,0,8.33333,1128.02,697.153)">
        <path d="M0,-11.551L1.453,-11.551L0.232,0L-1.221,0L0,-11.551Z" style="fill:rgb(0,42,92);fill-rule:nonzero;"/>
    </g>
    <g transform="matrix(8.33333,0,0,8.33333,1150.43,649.031)">
        <path d="M0,-0.001C0.395,-3.846 2.178,-6.04 5.032,-6.04C7.904,-6.04 9.224,-3.846 8.828,-0.001C8.415,3.844 6.633,6.039 3.762,6.039C0.908,6.039 -0.413,3.844 0,-0.001M7.31,-0.001C7.624,-3.037 6.831,-4.72 4.901,-4.72C2.987,-4.72 1.831,-3.037 1.518,-0.001C1.188,3.035 1.996,4.718 3.91,4.718C5.841,4.718 6.98,3.035 7.31,-0.001" style="fill:rgb(0,42,92);fill-rule:nonzero;"/>
    </g>
    <g transform="matrix(8.33333,0,0,8.33333,1244.34,697.153)">
        <path d="M0,-11.551L1.37,-11.551L4.686,-2.508L5.643,-11.551L6.981,-11.551L5.759,0L4.39,0L1.039,-8.795L0.115,0L-1.221,0L0,-11.551Z" style="fill:rgb(0,42,92);fill-rule:nonzero;"/>
    </g>
    <g transform="matrix(8.33333,0,0,8.33333,1341.14,630.05)">
        <path d="M0,4.554L1.485,4.554C1.337,6.088 1.98,6.996 3.3,6.996C4.423,6.996 5.182,6.253 5.297,5.198C5.397,4.24 5.017,3.531 3.927,3.036L2.591,2.409C1.188,1.732 0.611,0.726 0.759,-0.759C0.958,-2.574 2.376,-3.762 4.306,-3.762C6.486,-3.762 7.425,-2.541 7.195,-0.33L5.692,-0.33C5.842,-1.699 5.297,-2.442 4.159,-2.442C3.086,-2.442 2.36,-1.8 2.244,-0.776C2.145,0.181 2.656,0.742 3.68,1.238L4.968,1.881C6.418,2.607 6.947,3.597 6.798,5.099C6.601,6.98 5.148,8.316 3.168,8.316C0.858,8.316 -0.248,6.963 0,4.554" style="fill:rgb(0,42,92);fill-rule:nonzero;"/>
    </g>
    <g transform="matrix(8.33333,0,0,8.33333,1420.61,697.153)">
        <path d="M0,-11.551L5.512,-11.551L5.363,-10.247L1.304,-10.247L0.909,-6.468L4.968,-6.468L4.835,-5.164L0.776,-5.164L0.363,-1.304L4.423,-1.304L4.291,0L-1.221,0L0,-11.551Z" style="fill:rgb(0,42,92);fill-rule:nonzero;"/>
    </g>
    <g transform="matrix(8.33333,0,0,8.33333,1517.96,600.897)">
        <path d="M0,11.551L-1.716,7.97L-3.316,7.97L-3.695,11.551L-5.148,11.551L-3.927,0L-1.188,0C1.403,0 2.706,1.551 2.442,3.977C2.262,5.792 1.288,7.128 -0.264,7.69L1.667,11.551L0,11.551ZM-1.832,6.683C-0.23,6.683 0.759,5.578 0.924,3.977C1.089,2.376 0.33,1.27 -1.27,1.27L-2.623,1.27L-3.184,6.683L-1.832,6.683Z" style="fill:rgb(0,42,92);fill-rule:nonzero;"/>
    </g>
    <g transform="matrix(8.33333,0,0,8.33333,1549.04,697.153)">
        <path d="M0,-11.551L1.534,-11.551L3.052,-2.409L6.518,-11.551L8.052,-11.551L3.415,0L2.194,0L0,-11.551Z" style="fill:rgb(0,42,92);fill-rule:nonzero;"/>
    </g>
    <g transform="matrix(8.33333,0,0,8.33333,1628.09,697.153)">
        <path d="M0,-11.551L1.452,-11.551L0.231,0L-1.221,0L0,-11.551Z" style="fill:rgb(0,42,92);fill-rule:nonzero;"/>
    </g>
    <g transform="matrix(8.33333,0,0,8.33333,1650.5,649.031)">
        <path d="M0,-0.001C0.395,-3.846 2.03,-6.04 4.834,-6.04C7.128,-6.04 8.383,-4.687 8.234,-1.998L6.682,-1.998C6.765,-3.812 6.155,-4.72 4.719,-4.72C2.822,-4.72 1.832,-3.037 1.518,-0.001C1.188,3.035 1.832,4.718 3.729,4.718C5.164,4.718 5.973,3.811 6.254,1.996L7.805,1.996C7.392,4.686 5.858,6.039 3.564,6.039C0.759,6.039 -0.413,3.844 0,-0.001" style="fill:rgb(0,42,92);fill-rule:nonzero;"/>
    </g>
    <g transform="matrix(8.33333,0,0,8.33333,1739.06,697.153)">
        <path d="M0,-11.551L5.512,-11.551L5.362,-10.247L1.303,-10.247L0.908,-6.468L4.967,-6.468L4.835,-5.164L0.775,-5.164L0.362,-1.304L4.422,-1.304L4.29,0L-1.221,0L0,-11.551Z" style="fill:rgb(0,42,92);fill-rule:nonzero;"/>
    </g>
    <g transform="matrix(8.33333,0,0,8.33333,79.075,2.22167)">
        <path d="M0,28.098C-5.941,28.098 -9.489,24.594 -9.489,18.726L-9.489,0L-8.514,0L-8.514,18.726C-8.514,23.984 -5.331,27.123 0,27.123C5.332,27.123 8.515,23.984 8.515,18.726L8.515,0L9.49,0L9.49,18.726C9.49,24.594 5.942,28.098 0,28.098" style="fill:rgb(0,42,92);fill-rule:nonzero;"/>
    </g>
    <g transform="matrix(8.33333,0,0,8.33333,270.742,79.3133)">
        <path d="M0,18.808C-5.173,18.808 -8.927,14.853 -8.927,9.404C-8.927,3.955 -5.173,0 0,0C5.173,0 8.928,3.955 8.928,9.404C8.928,14.853 5.173,18.808 0,18.808M0,1.026C-4.602,1.026 -7.943,4.566 -7.943,9.444C-7.943,14.277 -4.602,17.785 0,17.785C4.603,17.785 7.944,14.26 7.944,9.404C7.944,4.55 4.603,1.026 0,1.026" style="fill:rgb(0,42,92);fill-rule:nonzero;"/>
    </g>
    <g transform="matrix(8.33333,0,0,8.33333,401.769,19.8358)">
        <path d="M0,25.476L-0.974,25.476L-0.974,11.191L-5.123,11.191L-5.123,10.215L-0.974,10.215L-0.974,5.812C-0.974,1.847 0.474,0 3.583,0C4.414,0 5.439,0.253 6.019,0.601L6.066,0.629L6.066,1.679L5.919,1.587C5.325,1.215 4.408,0.975 3.583,0.975C1.811,0.975 0,1.531 0,5.654L0,10.215L6.066,10.215L6.066,11.191L0,11.191L0,25.476Z" style="fill:rgb(0,42,92);fill-rule:nonzero;"/>
    </g>
    <g transform="matrix(8.33333,0,0,8.33333,534.83,2.23583)">
        <path d="M0,27.587L-0.975,27.587L-0.975,0.973L-7.395,0.973L-7.395,0L6.457,0L6.457,0.973L0,0.973L0,27.587Z" style="fill:rgb(0,42,92);fill-rule:nonzero;"/>
    </g>
    <g transform="matrix(8.33333,0,0,8.33333,681.978,34.5175)">
        <path d="M0,3.993L3.432,3.993C3.432,4.983 3.976,5.594 4.901,5.594C5.644,5.594 6.056,5.247 6.056,4.637C6.056,4.109 5.743,3.828 4.968,3.531L2.673,2.689C1.023,2.079 0.198,0.973 0.198,-0.577C0.198,-2.723 1.914,-4.142 4.719,-4.142C7.525,-4.142 9.356,-2.739 9.356,-0.445L5.924,-0.445C5.924,-1.303 5.478,-1.798 4.686,-1.798C4.043,-1.798 3.647,-1.468 3.647,-0.924C3.647,-0.462 3.96,-0.165 4.918,0.198L7.03,1.007C8.763,1.683 9.488,2.789 9.488,4.34C9.488,6.683 7.69,8.135 4.851,8.135C1.832,8.135 0,6.584 0,3.993" style="fill:rgb(0,42,92);fill-rule:nonzero;"/>
    </g>
    <g transform="matrix(8.33333,0,0,8.33333,766.129,51.15)">
        <path d="M0,0.001C0,-3.581 2.606,-6.138 6.402,-6.138C9.999,-6.138 12.343,-4.372 12.623,-1.336L8.993,-1.336C8.762,-2.392 7.838,-3.085 6.418,-3.085C4.637,-3.085 3.58,-1.896 3.58,0.001C3.58,1.898 4.637,3.087 6.418,3.087C7.838,3.087 8.762,2.393 8.993,1.337L12.623,1.337C12.343,4.374 9.999,6.139 6.402,6.139C2.606,6.139 0,3.582 0,0.001" style="fill:rgb(0,42,92);fill-rule:nonzero;"/>
    </g>
    <g transform="matrix(8.33333,0,0,8.33333,881.762,99.285)">
        <path d="M0,-11.551L3.432,-11.551L3.432,-7.161L6.65,-7.161L6.65,-11.551L10.082,-11.551L10.082,0L6.65,0L6.65,-4.307L3.432,-4.307L3.432,0L0,0L0,-11.551Z" style="fill:rgb(0,42,92);fill-rule:nonzero;"/>
    </g>
    <g transform="matrix(8.33333,0,0,8.33333,976.772,51.15)">
        <path d="M0,0.001C0,-3.283 2.36,-6.138 6.369,-6.138C10.379,-6.138 12.739,-3.283 12.739,0.001C12.739,3.284 10.379,6.139 6.369,6.139C2.36,6.139 0,3.284 0,0.001M9.158,0.001C9.174,-1.649 8.234,-3.069 6.369,-3.069C4.521,-3.069 3.58,-1.649 3.58,0.001C3.58,1.651 4.521,3.07 6.369,3.07C8.234,3.07 9.174,1.651 9.158,0.001" style="fill:rgb(0,42,92);fill-rule:nonzero;"/>
    </g>
    <g transform="matrix(8.33333,0,0,8.33333,1089.25,51.15)">
        <path d="M0,0.001C0,-3.283 2.36,-6.138 6.369,-6.138C10.379,-6.138 12.739,-3.283 12.739,0.001C12.739,3.284 10.379,6.139 6.369,6.139C2.36,6.139 0,3.284 0,0.001M9.158,0.001C9.174,-1.649 8.234,-3.069 6.369,-3.069C4.521,-3.069 3.58,-1.649 3.58,0.001C3.58,1.651 4.521,3.07 6.369,3.07C8.234,3.07 9.174,1.651 9.158,0.001" style="fill:rgb(0,42,92);fill-rule:nonzero;"/>
    </g>
    <g transform="matrix(8.33333,0,0,8.33333,1206.53,99.285)">
        <path d="M0,-11.551L3.432,-11.551L3.432,-2.954L7.36,-2.954L7.36,0L0,0L0,-11.551Z" style="fill:rgb(0,42,92);fill-rule:nonzero;"/>
    </g>
    <g transform="matrix(8.33333,0,0,8.33333,1307.59,65.0417)">
        <path d="M0,0C0,-2.59 1.864,-4.389 4.768,-4.389C7.689,-4.389 9.554,-2.59 9.554,0C9.554,2.591 7.689,4.389 4.768,4.389C1.864,4.389 0,2.591 0,0M6.303,0C6.303,-1.006 5.726,-1.732 4.768,-1.732C3.828,-1.732 3.234,-1.006 3.234,0C3.234,1.006 3.828,1.732 4.768,1.732C5.726,1.732 6.303,1.006 6.303,0" style="fill:rgb(0,42,92);fill-rule:nonzero;"/>
    </g>
    <g transform="matrix(8.33333,0,0,8.33333,1428.72,73.71)">
        <path d="M0,-5.611L0,-5.132L1.699,-5.132L1.699,-2.656L0,-2.656L0,3.069L-3.217,3.069L-3.217,-2.656L-4.52,-2.656L-4.52,-5.132L-3.217,-5.132L-3.217,-5.577C-3.217,-7.986 -1.583,-8.68 0.017,-8.68C0.776,-8.68 1.304,-8.597 1.699,-8.465L1.699,-6.37C1.436,-6.403 1.238,-6.436 1.023,-6.436C0.495,-6.436 0,-6.254 0,-5.611" style="fill:rgb(0,42,92);fill-rule:nonzero;"/>
    </g>
    <g transform="matrix(8.33333,0,0,8.33333,671.054,183.129)">
        <path d="M0,0C0,-3.581 2.607,-6.138 6.402,-6.138C9.999,-6.138 12.343,-4.373 12.623,-1.337L8.993,-1.337C8.762,-2.393 7.838,-3.085 6.418,-3.085C4.637,-3.085 3.58,-1.897 3.58,0C3.58,1.898 4.637,3.086 6.418,3.086C7.838,3.086 8.762,2.393 8.993,1.336L12.623,1.336C12.343,4.373 9.999,6.138 6.402,6.138C2.607,6.138 0,3.581 0,0" style="fill:rgb(0,42,92);fill-rule:nonzero;"/>
    </g>
    <g transform="matrix(8.33333,0,0,8.33333,781.873,183.129)">
        <path d="M0,0C0,-3.284 2.359,-6.138 6.369,-6.138C10.379,-6.138 12.739,-3.284 12.739,0C12.739,3.284 10.379,6.138 6.369,6.138C2.359,6.138 0,3.284 0,0M9.158,0C9.174,-1.65 8.234,-3.069 6.369,-3.069C4.521,-3.069 3.58,-1.65 3.58,0C3.58,1.65 4.521,3.069 6.369,3.069C8.234,3.069 9.174,1.65 9.158,0" style="fill:rgb(0,42,92);fill-rule:nonzero;"/>
    </g>
    <g transform="matrix(8.33333,0,0,8.33333,899.162,231.255)">
        <path d="M0,-11.551L3.465,-11.551L6.897,-4.983L6.897,-11.551L10.197,-11.551L10.197,0L6.732,0L3.3,-6.568L3.3,0L0,0L0,-11.551Z" style="fill:rgb(0,42,92);fill-rule:nonzero;"/>
    </g>
    <g transform="matrix(8.33333,0,0,8.33333,1018.09,206.635)">
        <path d="M0,-5.642L-2.97,-5.642L-2.97,-8.597L6.419,-8.597L6.419,-5.642L3.45,-5.642L3.45,2.955L0,2.955L0,-5.642Z" style="fill:rgb(0,42,92);fill-rule:nonzero;"/>
    </g>
    <g transform="matrix(8.33333,0,0,8.33333,-1768.1,-38013.3)">
        <rect x="341.867" y="4577.79" width="3.431" height="11.551" style="fill:rgb(0,42,92);"/>
    </g>
    <g transform="matrix(8.33333,0,0,8.33333,1126.44,231.255)">
        <path d="M0,-11.551L3.465,-11.551L6.897,-4.983L6.897,-11.551L10.197,-11.551L10.197,0L6.732,0L3.3,-6.568L3.3,0L0,0L0,-11.551Z" style="fill:rgb(0,42,92);fill-rule:nonzero;"/>
    </g>
    <g transform="matrix(8.33333,0,0,8.33333,1225.85,171.026)">
        <path d="M0,3.218L0,-4.324L3.45,-4.324L3.45,3.004C3.45,4.01 4.076,4.637 5.05,4.637C6.007,4.637 6.651,4.01 6.651,3.004L6.651,-4.324L10.083,-4.324L10.083,3.218C10.083,5.924 8.119,7.542 5.05,7.542C1.964,7.542 0,5.924 0,3.218" style="fill:rgb(0,42,92);fill-rule:nonzero;"/>
    </g>
    <g transform="matrix(8.33333,0,0,8.33333,-1768.1,-38013.3)">
        <rect x="371.087" y="4577.79" width="3.432" height="11.551" style="fill:rgb(0,42,92);"/>
    </g>
    <g transform="matrix(8.33333,0,0,8.33333,1369.94,231.255)">
        <path d="M0,-11.551L3.466,-11.551L6.897,-4.983L6.897,-11.551L10.198,-11.551L10.198,0L6.732,0L3.3,-6.568L3.3,0L0,0L0,-11.551Z" style="fill:rgb(0,42,92);fill-rule:nonzero;"/>
    </g>
    <g transform="matrix(8.33333,0,0,8.33333,1576.47,168.554)">
        <path d="M0,3.498L-0.907,3.498C-1.534,6.303 -3.646,7.887 -6.996,7.887C-10.742,7.887 -13.267,5.33 -13.267,1.782C-13.25,-1.766 -10.807,-4.389 -6.831,-4.389C-3.449,-4.389 -1.122,-2.739 -0.957,-0.347L-4.685,-0.347C-4.868,-1.106 -5.659,-1.633 -6.815,-1.633C-8.695,-1.633 -9.686,-0.28 -9.686,1.667C-9.686,3.597 -8.58,4.967 -6.847,4.967C-5.593,4.967 -4.768,4.488 -4.438,3.498L-6.336,3.498L-6.336,1.171L0,1.171L0,3.498Z" style="fill:rgb(0,42,92);fill-rule:nonzero;"/>
    </g>
    <g transform="matrix(8.33333,0,0,8.33333,681.978,303.992)">
        <path d="M0,3.992L3.432,3.992C3.432,4.983 3.976,5.594 4.901,5.594C5.644,5.594 6.056,5.247 6.056,4.636C6.056,4.108 5.743,3.827 4.968,3.53L2.673,2.689C1.023,2.079 0.198,0.973 0.198,-0.578C0.198,-2.724 1.914,-4.142 4.719,-4.142C7.525,-4.142 9.356,-2.739 9.356,-0.445L5.924,-0.445C5.924,-1.304 5.478,-1.799 4.686,-1.799C4.043,-1.799 3.647,-1.469 3.647,-0.925C3.647,-0.463 3.96,-0.166 4.918,0.197L7.03,1.006C8.763,1.682 9.488,2.788 9.488,4.339C9.488,6.682 7.69,8.134 4.851,8.134C1.832,8.134 0,6.583 0,3.992" style="fill:rgb(0,42,92);fill-rule:nonzero;"/>
    </g>
    <g transform="matrix(8.33333,0,0,8.33333,789.086,344.139)">
        <path d="M0,-5.643L-2.97,-5.643L-2.97,-8.597L6.419,-8.597L6.419,-5.643L3.45,-5.643L3.45,2.954L0,2.954L0,-5.643Z" style="fill:rgb(0,42,92);fill-rule:nonzero;"/>
    </g>
    <g transform="matrix(8.33333,0,0,8.33333,849.169,308.53)">
        <path d="M0,3.217L0,-4.324L3.45,-4.324L3.45,3.003C3.45,4.009 4.076,4.636 5.05,4.636C6.007,4.636 6.651,4.009 6.651,3.003L6.651,-4.324L10.083,-4.324L10.083,3.217C10.083,5.924 8.119,7.541 5.05,7.541C1.964,7.541 0,5.924 0,3.217" style="fill:rgb(0,42,92);fill-rule:nonzero;"/>
    </g>
    <g transform="matrix(8.33333,0,0,8.33333,947.627,368.755)">
        <path d="M0,-11.551L4.769,-11.551C8.383,-11.551 10.758,-9.01 10.758,-5.775C10.758,-2.525 8.399,0 4.769,0L0,0L0,-11.551ZM4.471,-2.806C6.204,-2.806 7.194,-4.159 7.194,-5.775C7.194,-7.393 6.204,-8.746 4.471,-8.746L3.432,-8.746L3.432,-2.806L4.471,-2.806Z" style="fill:rgb(0,42,92);fill-rule:nonzero;"/>
    </g>
    <g transform="matrix(8.33333,0,0,8.33333,-1768.1,-37738.3)">
        <rect x="337.931" y="4561.29" width="3.432" height="11.551" style="fill:rgb(0,42,92);"/>
    </g>
    <g transform="matrix(8.33333,0,0,8.33333,1093.64,368.755)">
        <path d="M0,-11.551L7.425,-11.551L7.425,-8.977L3.432,-8.977L3.432,-6.964L7.425,-6.964L7.425,-4.505L3.432,-4.505L3.432,-2.574L7.425,-2.574L7.425,0L0,0L0,-11.551Z" style="fill:rgb(0,42,92);fill-rule:nonzero;"/>
    </g>
    <g transform="matrix(8.33333,0,0,8.33333,1164.18,303.992)">
        <path d="M0,3.992L3.432,3.992C3.432,4.983 3.976,5.594 4.9,5.594C5.643,5.594 6.056,5.247 6.056,4.636C6.056,4.108 5.742,3.827 4.967,3.53L2.673,2.689C1.023,2.079 0.198,0.973 0.198,-0.578C0.198,-2.724 1.914,-4.142 4.719,-4.142C7.524,-4.142 9.356,-2.739 9.356,-0.445L5.923,-0.445C5.923,-1.304 5.478,-1.799 4.686,-1.799C4.043,-1.799 3.646,-1.469 3.646,-0.925C3.646,-0.463 3.96,-0.166 4.917,0.197L7.03,1.006C8.762,1.682 9.488,2.788 9.488,4.339C9.488,6.682 7.69,8.134 4.851,8.134C1.832,8.134 0,6.583 0,3.992" style="fill:rgb(0,42,92);fill-rule:nonzero;"/>
    </g>
</svg>
