<svg width="99" height="99" viewBox="0 0 99 99" fill="none" xmlns="http://www.w3.org/2000/svg">
<g clip-path="url(#clip0_312_10547)">
<path d="M65.8096 47.5434L61.0006 40.0102C60.7134 39.5604 60.5699 39.3354 60.3746 39.1806C60.2019 39.0436 60.001 38.9468 59.7863 38.8971C59.5435 38.8408 59.2781 38.8687 58.7473 38.9243L43.6773 40.5051M25.226 55.8117L36.1168 72.872C36.7118 73.8041 37.0094 74.2702 37.4153 74.5855C37.7742 74.8642 38.1921 75.0569 38.6371 75.1489C39.1404 75.253 39.6881 75.1767 40.7834 75.0242L61.5179 72.1362C62.3124 72.0255 62.7097 71.9702 63.0653 71.8214C63.3805 71.6895 63.6705 71.5043 63.9228 71.274C64.2075 71.014 64.4249 70.6769 64.8597 70.0028L76.2074 52.4105C76.8068 51.4812 77.1066 51.0165 77.224 50.5161C77.3279 50.0738 77.329 49.6135 77.2272 49.1707C77.1121 48.6697 76.8146 48.2037 76.2195 47.2715L65.3287 30.2112M18.6131 56.5054L35.0667 28.9938C35.2905 28.6195 35.4025 28.4323 35.5542 28.2899C35.6887 28.1637 35.8454 28.0637 36.0164 27.9948C36.2095 27.9171 36.4264 27.8944 36.8601 27.8489L68.7416 24.5048L52.288 52.0164C52.0641 52.3907 51.9522 52.5778 51.8004 52.7202C51.666 52.8464 51.5093 52.9464 51.3382 53.0153C51.1452 53.093 50.9283 53.1158 50.4945 53.1612L18.6131 56.5054Z" stroke="#96CA45" stroke-width="5.94718" stroke-linecap="round" stroke-linejoin="round"/>
</g>
<defs>
<clipPath id="clip0_312_10547">
<rect width="71.3662" height="71.3662" fill="white" transform="translate(0 38.4007) rotate(-32.553)"/>
</clipPath>
</defs>
</svg>
