<svg width="313" height="310" viewBox="0 0 313 310" fill="none" xmlns="http://www.w3.org/2000/svg">
<path d="M287.563 132.884C286.938 129.106 286.153 125.399 285.206 121.761L305.257 109.087C303.954 104.782 302.485 100.617 300.849 96.5917L277.311 99.3685C274.149 92.4574 270.401 85.8301 266.107 79.5594L280.637 60.8158C277.978 57.2856 275.169 53.8791 272.209 50.5964L251.028 61.2517C245.695 55.8492 239.911 50.9126 233.737 46.4958L240.938 23.8937C237.241 21.4881 233.414 19.2441 229.524 17.1615L213.266 34.4036C206.41 31.1388 199.286 28.4705 191.972 26.4283L191.019 2.7284C186.714 1.74898 182.377 0.947131 178.007 0.322882L168.627 22.1016C161.069 21.3959 153.464 21.3365 145.896 21.924L136.903 0C134.724 0.274454 132.528 0.581191 130.333 0.952511C128.137 1.32383 125.974 1.74359 123.875 2.19563L122.519 25.8471C115.165 27.7582 107.987 30.2912 101.063 33.4188L85.1123 15.886C81.1623 17.9095 77.32 20.0621 73.5852 22.3438L80.4143 45.0589C74.1591 49.3904 68.2879 54.2517 62.8654 59.5888L41.8777 48.5622C38.8641 51.7911 35.9958 55.1545 33.2728 58.6525L47.2861 77.7674C42.8909 83.9399 39.0189 90.4688 35.7106 97.2859L12.2205 94.057C10.4931 98.1093 8.99165 102.258 7.57095 106.472L27.3801 119.468C25.3628 126.794 23.98 134.281 23.2471 141.844L0.192961 146.93C-0.0169153 151.321 -0.0653444 155.745 0.0960992 160.184L23.1825 165.641C23.4893 169.387 23.9413 173.148 24.571 176.942C25.2006 180.736 26.0078 184.433 26.928 188.066L6.89286 200.739C8.18441 205.001 9.66971 209.166 11.3003 213.235L34.8388 210.458C37.9942 217.372 41.7429 224 46.0429 230.267L31.513 249.011C34.193 252.552 37.0075 255.958 39.9565 259.23L61.1218 248.575C66.4598 253.977 72.2498 258.914 78.4286 263.331L71.212 285.933C74.9252 288.333 78.7353 290.577 82.6422 292.665L98.835 275.374C105.692 278.637 112.816 281.305 120.129 283.35L121.082 307.05C125.387 308.04 129.73 308.842 134.11 309.455L143.474 287.676C151.038 288.382 158.648 288.441 166.222 287.854L175.214 309.778C177.393 309.503 179.589 309.197 181.769 308.825C183.948 308.454 186.128 308.034 188.226 307.582L189.582 283.931C196.953 282.018 204.148 279.48 211.087 276.343L227.054 293.876C230.993 291.863 234.83 289.711 238.564 287.418L231.752 264.703C238.005 260.375 243.871 255.514 249.284 250.173L270.272 261.2C273.275 257.971 276.143 254.607 278.877 251.109L264.702 232.107C269.104 225.92 272.971 219.368 276.262 212.524L299.768 215.753C301.479 211.701 302.997 207.552 304.401 203.338L284.592 190.342C286.615 183.016 288.003 175.53 288.741 167.966L311.892 162.929C312.118 158.538 312.156 154.119 312.005 149.674L288.919 144.218C288.596 140.424 288.144 136.662 287.563 132.884ZM172.276 252.126C153.047 255.345 133.296 252.79 115.519 244.784C97.7425 236.777 82.7393 223.68 72.4065 207.147C62.0737 190.614 56.8754 171.388 57.469 151.901C58.0625 132.413 64.4212 113.54 75.741 97.6664C87.0608 81.7929 102.833 69.6325 121.064 62.7229C139.295 55.8132 159.165 54.4647 178.163 58.8478C197.16 63.2308 214.431 73.1487 227.791 87.3472C241.152 101.546 250.003 119.387 253.224 138.615C255.362 151.384 254.965 164.449 252.055 177.064C249.144 189.678 243.777 201.597 236.26 212.137C228.744 222.678 219.224 231.635 208.246 238.496C197.267 245.357 185.044 249.989 172.276 252.126Z" fill="#4B4B4B" style="mix-blend-mode:multiply"/>
</svg>
