<svg width="120" height="120" viewBox="0 0 120 120" fill="none" xmlns="http://www.w3.org/2000/svg">
<path d="M2.97061 80.8994C1.92771 78.0561 1.08613 75.1429 0.452095 72.1814L8.99242 66.321C8.50821 62.633 8.42697 58.9032 8.75022 55.1976L0 49.7246C0.497887 46.7375 1.2156 43.7913 2.14723 40.9098L12.4312 40.0864C13.8541 36.6693 15.6518 33.4206 17.7911 30.3998L12.9478 21.2783C13.9165 20.1159 14.9174 18.9858 15.9668 17.888C17.0162 16.7901 18.114 15.7246 19.1957 14.6591L28.4948 19.0988C31.4596 16.8328 34.6646 14.9 38.0523 13.3352L38.4236 3.00285C41.2551 1.94094 44.1644 1.09894 47.1254 0.484336L52.9696 8.99241C56.6469 8.50837 60.366 8.42718 64.0608 8.75025L69.5338 0C72.5168 0.492039 75.4581 1.20984 78.3325 2.1472L79.1397 12.4473C82.5542 13.8758 85.8023 15.6731 88.8263 17.8072L97.9317 12.9639C99.0941 13.9326 100.224 14.9335 101.322 15.9829C102.42 17.0323 103.469 18.1301 104.47 19.2118L100.047 28.5271C102.305 31.4853 104.238 34.6789 105.81 38.0523L116.11 38.4236C117.172 41.2607 118.014 44.1752 118.629 47.1415L110.137 52.9858C110.607 56.675 110.683 60.4039 110.363 64.1093L119.113 69.5983C118.613 72.5851 117.896 75.5312 116.966 78.4132L106.682 79.2204C105.264 82.6368 103.472 85.8855 101.338 88.907L106.181 98.0286C105.229 99.1909 104.228 100.321 103.162 101.419C102.097 102.517 101.031 103.582 99.9336 104.648L90.6345 100.208C87.6887 102.481 84.4994 104.419 81.1254 105.988L80.7703 116.304C77.9304 117.362 75.0165 118.209 72.0523 118.839L66.2242 110.314C62.5416 110.798 58.8171 110.88 55.1169 110.557L49.6439 119.323C46.6605 118.826 43.7191 118.102 40.8452 117.16L40.038 106.876C36.6201 105.448 33.3714 103.645 30.3514 101.5L21.246 106.343C20.0998 105.39 18.9696 104.389 17.8557 103.324C16.7417 102.258 15.7084 101.177 14.7075 100.095L19.1472 90.7797C16.87 87.8342 14.9363 84.6385 13.3836 81.2546L2.97061 80.8994ZM32.8215 30.6743L53.002 50.0475C54.8587 48.7814 57.043 48.0816 59.2898 48.0328C61.5366 47.9841 63.7492 48.5887 65.6591 49.7731L85.0323 29.5603C77.7023 23.322 68.3384 19.9897 58.7153 20.195C49.0922 20.4003 39.8788 24.129 32.8215 30.6743ZM88.4711 32.9022L69.0978 53.1311C70.3596 54.9926 71.0568 57.179 71.1054 59.4272C71.1541 61.6755 70.5523 63.89 69.3724 65.8044L89.5528 85.1777C95.7704 77.8276 99.0915 68.4606 98.8923 58.8355C98.6931 49.2103 94.9875 39.9888 88.4711 32.9022ZM86.2431 88.6648L66.0627 69.2916C64.2076 70.5543 62.0264 71.2523 59.7829 71.301C57.5394 71.3497 55.3298 70.7471 53.4217 69.566L34.0485 89.7788C41.3774 96.0127 50.7381 99.3423 60.3575 99.137C69.9769 98.9317 79.1868 95.2057 86.2431 88.6648ZM30.5936 86.4369L49.9668 66.2242C48.7089 64.3611 48.0141 62.1753 47.9654 59.9279C47.9168 57.6805 48.5163 55.4666 49.6924 53.5509L29.528 34.1776C23.3126 41.5247 19.9915 50.8871 20.1876 60.5086C20.3838 70.13 24.0839 79.3493 30.5936 86.4369Z" fill="#474747" style="mix-blend-mode:multiply"/>
</svg>
