<svg width="248" height="250" viewBox="0 0 248 250" fill="none" xmlns="http://www.w3.org/2000/svg">
<path d="M229.993 124.618C229.993 121.551 229.863 118.532 229.605 115.545L247.057 108.2C246.605 104.68 245.975 101.209 245.233 97.7864L226.328 96.8662C224.753 91.0038 222.673 85.2889 220.112 79.7854L234.013 66.8699C232.366 63.7379 230.601 60.6866 228.717 57.7161L210.619 63.4473C207.135 58.4875 203.229 53.8369 198.947 49.547L207.6 32.7085C205.001 30.3353 202.289 28.0589 199.528 25.9117L184.514 37.2935C179.542 33.8149 174.281 30.7687 168.789 28.1881L171.163 9.41216C167.934 8.0668 164.624 6.86136 161.234 5.79583L150.982 21.7142C145.121 20.1577 139.136 19.1098 133.094 18.5822L128.913 0.129158C127.153 0.129158 125.377 0 123.617 0C121.858 0 120.066 2.95901e-06 118.322 0.129158L114.124 18.5822C108.083 19.1098 102.098 20.1577 96.2365 21.7142L85.9849 5.79583C82.6053 6.87212 79.2957 8.07756 76.0561 9.41216L78.4293 28.1881C72.9374 30.7687 67.6766 33.8149 62.7047 37.2935L47.642 25.8471C44.849 27.9943 42.1368 30.2707 39.5698 32.6439L48.2232 49.4825C43.8986 53.7882 39.9554 58.4606 36.4378 63.4473L18.34 57.8452C16.4457 60.8158 14.6806 63.8671 13.0446 66.9991L26.9449 79.9146C24.3838 85.418 22.3041 91.133 20.7294 96.9953L1.82431 97.9156C1.08167 101.338 0.452042 104.809 0 108.329L17.4521 115.674C17.1937 118.661 17.0646 121.68 17.0646 124.747C17.0646 127.815 17.1937 130.834 17.4521 133.821L0 141.15C0.452042 144.67 1.08167 148.157 1.82431 151.579L20.7294 152.5C22.3042 158.357 24.3838 164.066 26.9449 169.564L13.0446 182.48C14.6591 185.612 16.4511 188.679 18.34 191.65L36.4378 186.048C39.9266 191.004 43.8315 195.655 48.1102 199.948L39.4568 216.77C42.0561 219.16 44.7683 221.42 47.529 223.583L62.624 211.975C67.5963 215.449 72.8571 218.49 78.3486 221.065L75.9754 239.857C79.2042 241.202 82.5138 242.408 85.9041 243.473L96.1558 227.555C102.019 229.103 108.003 230.151 114.044 230.687L118.322 249.107C120.066 249.107 121.841 249.221 123.617 249.221C125.393 249.221 127.153 249.22 128.913 249.107L133.094 230.654C139.135 230.119 145.119 229.071 150.982 227.522L161.234 243.441C164.613 242.365 167.923 241.159 171.163 239.824L168.789 221.032C174.28 218.468 179.54 215.438 184.514 211.975L199.577 223.422C202.37 221.258 205.082 218.998 207.649 216.609L198.995 199.786C203.274 195.493 207.179 190.843 210.668 185.886L228.766 191.488C230.654 188.518 232.414 185.45 234.061 182.318L220.161 169.403C222.722 163.905 224.801 158.195 226.376 152.338L245.281 151.418C246.024 147.995 246.654 144.508 247.106 140.989L229.654 133.659C229.863 130.705 229.993 127.67 229.993 124.618ZM123.537 203.322C107.967 203.319 92.7486 198.699 79.8049 190.046C66.8613 181.394 56.7741 169.097 50.8189 154.712C44.8637 140.327 43.3081 124.498 46.3486 109.229C49.3892 93.9593 56.8894 79.9343 67.9008 68.9274C78.9123 57.9205 92.9403 50.426 108.211 47.3917C123.482 44.3574 139.31 45.9196 153.693 51.8807C168.075 57.8417 180.368 67.934 189.015 80.8812C197.662 93.8284 202.276 109.049 202.273 124.618C202.273 134.957 200.236 145.194 196.279 154.744C192.321 164.295 186.521 172.973 179.209 180.282C171.898 187.59 163.218 193.387 153.665 197.34C144.113 201.294 133.875 203.326 123.537 203.322Z" fill="#96CA45" style="mix-blend-mode:multiply"/>
</svg>
