<svg width="171" height="171" viewBox="0 0 171 171" fill="none" xmlns="http://www.w3.org/2000/svg">
<path d="M165.221 55.7626C163.749 51.7586 161.973 47.8727 159.91 44.1387L145.38 45.7531C142.503 41.3765 139.164 37.3225 135.419 33.661L139.746 19.7607C136.469 17.0261 132.994 14.5384 129.349 12.3182L117.596 20.9069C112.913 18.5465 107.987 16.7058 102.904 15.4178L99.6753 1.2431C97.5765 0.871778 95.4616 0.597326 93.3305 0.387449C91.1995 0.177572 89.0523 0.0484331 86.8728 0L81.1093 13.2061C75.8691 13.495 70.6769 14.3613 65.6268 15.7892L55.7626 5.13389C51.76 6.61608 47.8744 8.39696 44.1387 10.4615L45.7531 24.9914C41.3765 27.8681 37.3225 31.2078 33.661 34.9525L19.7607 30.6259C17.0298 33.9055 14.5424 37.3805 12.3182 41.0228L20.9231 52.7759C18.5504 57.4544 16.7041 62.3816 15.4178 67.4672L1.2431 70.6961C0.887922 72.7949 0.597326 74.9098 0.387449 77.0409C0.177572 79.1719 0.0484331 81.3191 0 83.4986L13.3029 89.359C13.5919 94.5992 14.4582 99.7914 15.886 104.841L5.19849 114.722C6.67786 118.723 8.45328 122.608 10.51 126.346L25.0399 124.731C27.9166 129.108 31.2562 133.162 35.001 136.823L30.6904 150.724C33.9644 153.462 37.4398 155.95 41.0874 158.166L52.8243 149.561C57.5029 151.934 62.4301 153.78 67.5157 155.067L70.7446 169.241C72.8434 169.613 74.9583 169.887 77.0893 170.097C79.2204 170.307 81.3676 170.436 83.5471 170.484L89.4236 157.181C94.6584 156.893 99.8453 156.026 104.89 154.598L114.77 165.286C118.771 163.807 122.657 162.031 126.394 159.974L124.78 145.445C129.156 142.568 133.21 139.228 136.872 135.483L150.772 139.81C153.503 136.53 155.99 133.056 158.215 129.413L149.626 117.66C151.986 112.978 153.827 108.052 155.115 102.969L169.29 99.7399C169.661 97.6411 169.936 95.5262 170.145 93.3951C170.355 91.2641 170.484 89.1169 170.533 86.9374L157.23 81.077C156.942 75.8367 156.076 70.6443 154.647 65.5945L165.221 55.7626ZM90.5699 29.8186C95.0855 30.2576 99.531 31.2442 103.808 32.7569L92.6525 58.4103C86.6822 56.7343 80.3229 57.1037 74.5869 59.4597L60.945 35.1463C70.1207 30.6849 80.3494 28.8414 90.5053 29.8186H90.5699ZM105.487 84.0798C105.541 85.0921 105.514 86.107 105.407 87.115C105.04 90.9482 103.587 94.5974 101.219 97.6342C98.8518 100.671 95.6671 102.97 92.039 104.26C89.2349 105.273 86.2389 105.643 83.2726 105.342C82.1818 105.248 81.1014 105.059 80.0437 104.777C75.7273 103.659 71.9017 101.145 69.1628 97.6259C66.4238 94.1074 64.9252 89.7818 64.9003 85.323C64.8846 84.6166 64.917 83.91 64.9972 83.208C65.1355 81.6329 65.4718 80.0816 65.9982 78.5907C66.9813 75.7051 68.6044 73.0793 70.746 70.9097C72.8876 68.7402 75.4921 67.0832 78.3647 66.0627C81.1687 65.0491 84.1648 64.6795 87.1311 64.981C87.9789 65.0578 88.8204 65.1926 89.6496 65.3847C93.9711 66.3393 97.8602 68.6848 100.721 72.0616C103.582 75.4385 105.256 79.6602 105.487 84.0798ZM55.0684 38.472L68.7104 62.6885C63.7556 66.3453 60.1508 71.5396 58.4587 77.4606L30.8357 73.6021C32.3458 66.4431 35.2571 59.6534 39.4022 53.6243C43.5472 47.5951 48.8441 42.4455 54.9877 38.472H55.0684ZM29.8348 80.4473L57.3286 84.2413C57.1688 89.1813 58.3273 94.0749 60.6852 98.4189C63.043 102.763 66.5151 106.401 70.7446 108.958L59.6695 134.547C49.8877 129.5 41.8236 121.663 36.4982 112.03C31.1728 102.396 28.8257 91.3993 29.754 80.4312L29.8348 80.4473ZM79.8823 140.52C75.141 140.039 70.4806 138.954 66.0143 137.292L77.0893 111.719C78.8716 112.27 80.7054 112.638 82.5622 112.817C87.067 113.259 91.6115 112.594 95.8006 110.879L109.443 135.177C100.238 139.656 89.9734 141.5 79.7854 140.504L79.8823 140.52ZM115.4 131.867L101.758 107.651C106.976 103.815 110.688 98.275 112.252 91.9905L139.826 95.8329C138.38 103.18 135.461 110.159 131.247 116.349C127.032 122.539 121.609 127.812 115.303 131.851L115.4 131.867ZM140.698 89.0039L113.075 85.1453C113.067 80.2395 111.764 75.4227 109.298 71.1819C106.832 66.941 103.29 63.4264 99.0295 60.9934L110.088 35.4368C119.887 40.3604 128.012 48.071 133.441 57.5991C138.87 67.1273 141.361 78.0478 140.601 88.9877L140.698 89.0039Z" fill="#4B4B4B" style="mix-blend-mode:multiply"/>
</svg>
