<svg width="313" height="310" viewBox="0 0 313 310" fill="none" xmlns="http://www.w3.org/2000/svg">
<path d="M24.5331 132.884C25.1573 129.106 25.943 125.399 26.8902 121.761L6.8389 109.087C8.1412 104.782 9.61032 100.617 11.2463 96.5917L34.7848 99.3685C37.9465 92.4574 41.6949 85.8301 45.989 79.5594L31.459 60.8158C34.1175 57.2856 36.9266 53.8791 39.8864 50.5964L61.0678 61.2517C66.4002 55.8492 72.1848 50.9126 78.3584 46.4958L71.158 23.8937C74.8551 21.4881 78.6813 19.2441 82.5721 17.1615L98.8294 34.4036C105.685 31.1388 112.81 28.4705 120.124 26.4283L121.076 2.7284C125.382 1.74898 129.719 0.947131 134.089 0.322882L143.469 22.1016C151.027 21.3959 158.632 21.3365 166.2 21.924L175.192 0C177.372 0.274454 179.567 0.581191 181.763 0.952511C183.959 1.32383 186.122 1.74359 188.221 2.19563L189.577 25.8471C196.931 27.7582 204.108 30.2912 211.033 33.4188L226.983 15.886C230.933 17.9095 234.776 20.0621 238.51 22.3438L231.681 45.0589C237.937 49.3904 243.808 54.2517 249.23 59.5888L270.218 48.5622C273.232 51.7911 276.1 55.1545 278.823 58.6525L264.81 77.7674C269.205 83.9399 273.077 90.4688 276.385 97.2859L299.875 94.057C301.603 98.1093 303.104 102.258 304.525 106.472L284.716 119.468C286.733 126.794 288.116 134.281 288.849 141.844L311.903 146.93C312.113 151.321 312.161 155.745 312 160.184L288.913 165.641C288.606 169.387 288.154 173.148 287.525 176.942C286.895 180.736 286.088 184.433 285.168 188.066L305.203 200.739C303.911 205.001 302.426 209.166 300.795 213.235L277.257 210.458C274.102 217.372 270.353 224 266.053 230.267L280.583 249.011C277.903 252.552 275.088 255.958 272.139 259.23L250.974 248.575C245.636 253.977 239.846 258.914 233.667 263.331L240.884 285.933C237.17 288.333 233.36 290.577 229.453 292.665L213.261 275.374C206.404 278.637 199.279 281.305 191.966 283.35L191.014 307.05C186.709 308.04 182.366 308.842 177.985 309.455L168.622 287.676C161.058 288.382 153.448 288.441 145.874 287.854L136.882 309.778C134.702 309.503 132.507 309.197 130.327 308.825C128.148 308.454 125.968 308.034 123.869 307.582L122.513 283.931C115.142 282.018 107.948 279.48 101.009 276.343L85.0422 293.876C81.103 291.863 77.266 289.711 73.5312 287.418L80.3442 264.703C74.0911 260.375 68.2248 255.514 62.8114 250.173L41.8237 261.2C38.8209 257.971 35.9526 254.607 33.2188 251.109L47.3935 232.107C42.9915 225.92 39.1244 219.368 35.8342 212.524L12.328 215.753C10.6167 211.701 9.09912 207.552 7.69455 203.338L27.5037 190.342C25.4809 183.016 24.0927 175.53 23.3546 167.966L0.203552 162.929C-0.0224915 158.538 -0.0601501 154.119 0.0905151 149.674L23.177 144.218C23.4999 140.424 23.9519 136.662 24.5331 132.884ZM139.82 252.126C159.049 255.345 178.8 252.79 196.577 244.784C214.353 236.777 229.356 223.68 239.689 207.147C250.022 190.614 255.22 171.388 254.627 151.901C254.033 132.413 247.674 113.54 236.355 97.6664C225.035 81.7929 209.262 69.6325 191.032 62.7229C172.801 55.8132 152.93 54.4647 133.933 58.8478C114.936 63.2308 97.6651 73.1487 84.3044 87.3472C70.9436 101.546 62.0932 119.387 58.8721 138.615C56.7332 151.384 57.1304 164.449 60.041 177.064C62.9515 189.678 68.3184 201.597 75.8353 212.137C83.3521 222.678 92.8716 231.635 103.85 238.496C114.829 245.357 127.051 249.989 139.82 252.126Z" fill="#96CA45" style="mix-blend-mode:multiply"/>
</svg>
