<svg width="153" height="154" viewBox="0 0 153 154" fill="none" xmlns="http://www.w3.org/2000/svg">
<path d="M142.09 76.9894C142.09 75.0943 142.01 73.2292 141.85 71.384L152.632 66.8458C152.353 64.6715 151.964 62.5271 151.505 60.4126L139.826 59.8441C138.853 56.2223 137.568 52.6916 135.986 49.2915L144.573 41.3123C143.556 39.3774 142.465 37.4923 141.302 35.6571L130.121 39.1979C127.968 36.1337 125.555 33.2605 122.91 30.6102L128.256 20.2074C126.65 18.7412 124.974 17.3348 123.269 16.0083L113.993 23.04C110.921 20.8909 107.671 19.0089 104.278 17.4146L105.744 5.81485C103.75 4.98368 101.705 4.23896 99.6104 3.58067L93.2769 13.415C89.6557 12.4534 85.9583 11.8061 82.2257 11.4801L79.6425 0.0797939C78.5553 0.0797939 77.4581 0 76.371 0C75.2838 0 74.1767 1.82808e-06 73.0995 0.0797939L70.5063 11.4801C66.7737 11.8061 63.0763 12.4534 59.4551 13.415L53.1216 3.58067C51.0337 4.24561 48.989 4.99033 46.9876 5.81485L48.4537 17.4146C45.0608 19.0089 41.8107 20.8909 38.7391 23.04L29.4333 15.9684C27.7078 17.2949 26.0322 18.7013 24.4463 20.1674L29.7924 30.5703C27.1206 33.2304 24.6845 36.117 22.5113 39.1979L11.3305 35.7369C10.1602 37.5721 9.0697 39.4572 8.059 41.3921L16.6466 49.3713C15.0643 52.7714 13.7795 56.3021 12.8066 59.9238L1.12706 60.4924C0.66826 62.6069 0.279272 64.7513 0 66.9256L10.7819 71.4638C10.6223 73.309 10.5425 75.1741 10.5425 77.0692C10.5425 78.9642 10.6223 80.8294 10.7819 82.6746L0 87.2028C0.279272 89.3771 0.66826 91.5315 1.12706 93.646L12.8066 94.2145C13.7796 97.833 15.0644 101.36 16.6466 104.757L8.059 112.736C9.0564 114.671 10.1635 116.566 11.3305 118.401L22.5113 114.94C24.6667 118.003 27.0792 120.876 29.7225 123.528L24.3765 133.921C25.9823 135.397 27.6579 136.794 29.3635 138.13L38.6892 130.959C41.7611 133.105 45.0112 134.983 48.4039 136.574L46.9377 148.184C48.9325 149.015 50.9772 149.76 53.0717 150.418L59.4052 140.584C63.0275 141.54 66.7245 142.188 70.4564 142.519L73.0995 153.899C74.1767 153.899 75.2738 153.969 76.371 153.969C77.4681 153.969 78.5553 153.969 79.6425 153.899L82.2257 142.499C85.9576 142.168 89.6546 141.52 93.2769 140.564L99.6104 150.398C101.698 149.733 103.743 148.988 105.744 148.164L104.278 136.554C107.67 134.97 110.92 133.098 113.993 130.959L123.299 138.03C125.024 136.694 126.7 135.297 128.286 133.821L122.94 123.428C125.583 120.776 127.995 117.903 130.151 114.841L141.332 118.302C142.499 116.466 143.586 114.571 144.603 112.636L136.016 104.657C137.598 101.261 138.883 97.7333 139.856 94.1147L151.535 93.5462C151.994 91.4317 152.383 89.2774 152.662 87.103L141.88 82.5748C142.01 80.7496 142.09 78.8745 142.09 76.9894ZM76.3211 125.613C66.7024 125.611 57.3002 122.756 49.3036 117.411C41.307 112.065 35.0751 104.469 31.396 95.5813C27.7169 86.694 26.7558 76.9153 28.6342 67.4817C30.5127 58.0482 35.1464 49.3835 41.9492 42.5834C48.7521 35.7834 57.4187 31.1533 66.853 29.2787C76.2873 27.4041 86.0656 28.3692 94.9515 32.0519C103.837 35.7347 111.431 41.9697 116.774 49.9685C122.116 57.9673 124.966 67.3706 124.964 76.9894C124.964 83.3764 123.706 89.7008 121.261 95.6013C118.816 101.502 115.233 106.863 110.716 111.378C106.199 115.894 100.836 119.475 94.9346 121.917C89.033 124.36 82.7081 125.615 76.3211 125.613Z" fill="#4C4C4C" style="mix-blend-mode:multiply"/>
<circle cx="75.0712" cy="76.6857" r="12.1083" fill="#96CA45"/>
</svg>
