<svg width="100" height="125" viewBox="0 0 100 125" fill="none" xmlns="http://www.w3.org/2000/svg">
<path d="M49.2401 124.893C50.9305 124.781 52.5091 124.008 53.6356 122.743C54.762 121.478 55.3461 119.82 55.2619 118.128H43.2344C43.15 119.818 43.7319 121.473 44.855 122.738C45.978 124.003 47.5525 124.776 49.2401 124.893Z" fill="white"/>
<path d="M35.4529 112.349L63.9961 106.779V103.453L35.4529 109.007V112.349Z" fill="white"/>
<path d="M35.4529 106.359L63.9961 100.789V97.4637L35.4529 103.017V106.359Z" fill="white"/>
<path d="M37.8907 94.3153C37.2427 94.3196 36.6227 94.58 36.1659 95.0397C35.7092 95.4995 35.4529 96.1212 35.4529 96.7693V100.369L63.1889 94.9611C62.7527 94.5479 62.1753 94.317 61.5745 94.3153H37.8907Z" fill="white"/>
<path d="M37.8903 115.206H61.5579C62.2044 115.206 62.8245 114.949 63.2817 114.492C63.7388 114.035 63.9957 113.415 63.9957 112.768V109.427L36.5503 114.786C36.9457 115.056 37.4119 115.202 37.8903 115.206Z" fill="white"/>
<path d="M48.9817 13.7711H49.7244H51.1774L53.7282 0H45.656L48.2068 13.7711H48.9817Z" fill="white"/>
<path d="M12.657 18.3238L23.054 25.4596C23.7159 24.7492 24.4101 24.0551 25.1527 23.377L18.0008 12.98L17.2904 11.9468L11.6399 17.6134L12.657 18.3238Z" fill="white"/>
<path d="M13.416 50.0638C13.416 49.531 13.416 49.0144 13.416 48.4494L0 45.9631V54.0353L13.416 51.5491C13.4321 51.0486 13.416 50.5481 13.416 50.0638Z" fill="white"/>
<path d="M11.9946 82.4978L17.6775 88.1645L25.346 77.0087C24.7326 76.2015 24.1352 75.3943 23.5378 74.5709L11.9946 82.4978Z" fill="white"/>
<path d="M87.6633 17.6134L81.9967 11.9468L74.2151 23.2478C74.9577 23.9259 75.6681 24.6362 76.3462 25.3627L87.6633 17.6134Z" fill="white"/>
<path d="M86.0002 48.4655C86.0002 48.9983 86.0002 49.531 86.0002 50.0799C86.0002 50.6288 86.0002 51.0809 86.0002 51.5814L99.2709 54.0353V45.9631L86.0002 48.4655Z" fill="white"/>
<path d="M74.0376 77.1054L81.6254 88.1643L87.2921 82.4976L75.8619 74.6515C75.2645 75.4749 74.6511 76.2821 74.0376 77.1054Z" fill="white"/>
<path d="M36.9862 81.1417C38.084 82.7562 38.2616 86.8245 38.1647 90.3279H47.9805V67.3867L35.8076 55.2139C35.4822 54.8885 35.2994 54.4471 35.2994 53.9869C35.2994 53.5267 35.4822 53.0853 35.8076 52.7599C36.133 52.4345 36.5744 52.2517 37.0346 52.2517C37.4948 52.2517 37.9362 52.4345 38.2616 52.7599L49.7725 64.2709L61.2834 52.7599C61.6088 52.4345 62.0502 52.2517 62.5104 52.2517C62.9706 52.2517 63.412 52.4345 63.7374 52.7599C64.0628 53.0853 64.2456 53.5267 64.2456 53.9869C64.2456 54.4471 64.0628 54.8885 63.7374 55.2139L51.4515 67.5159V90.3279H61.3318C61.2511 86.8245 61.4126 82.7884 62.5104 81.1417C68.5484 72.0363 79.1391 61.7685 79.1391 50.0638C78.9593 42.3967 75.7872 35.1041 70.301 29.745C64.8148 24.386 57.4498 21.3857 49.7806 21.3857C42.1113 21.3857 34.7463 24.386 29.2601 29.745C23.7739 35.1041 20.6018 42.3967 20.422 50.0638C20.3736 61.7201 30.9482 72.0363 36.9862 81.1417Z" fill="white"/>
</svg>
