<svg width="145" height="96" viewBox="0 0 145 96" fill="none" xmlns="http://www.w3.org/2000/svg">
<path d="M33.1541 73.1709C32.4451 73.174 31.7521 72.9599 31.1684 72.5574L30.7486 72.2506C30.001 71.7151 29.4939 70.9071 29.3369 70.0009C29.1798 69.0948 29.3853 68.1632 29.9091 67.4073L34.5587 60.8043C34.8212 60.4306 35.1548 60.1125 35.5405 59.868C35.9261 59.6235 36.3562 59.4575 36.8061 59.3795C37.2561 59.3015 37.7169 59.3131 38.1624 59.4135C38.6078 59.5139 39.0291 59.7013 39.402 59.9648L39.8218 60.2715C40.1954 60.534 40.5136 60.8676 40.7581 61.2533C41.0026 61.6389 41.1685 62.0691 41.2465 62.519C41.3245 62.9689 41.313 63.4298 41.2125 63.8752C41.1121 64.3207 40.9248 64.7419 40.6613 65.1149L36.0117 71.7179C35.6898 72.1707 35.2634 72.5392 34.7688 72.7921C34.2742 73.045 33.7258 73.175 33.1703 73.1709H33.1541Z" fill="#96CA45"/>
<path d="M33.1216 7.83464L20.3514 2.84604C19.8094 2.6392 19.2079 2.65359 18.6764 2.88612C18.1449 3.11865 17.726 3.55069 17.51 4.08914L0.154856 48.5507C0.0480503 48.8187 -0.00448628 49.1052 0.000299946 49.3937C0.00508617 49.6822 0.0670794 49.9668 0.182717 50.2311C0.298355 50.4954 0.465319 50.7342 0.673926 50.9335C0.882533 51.1328 1.12864 51.2887 1.39795 51.3921L14.152 56.3646C14.6937 56.5758 15.2971 56.5636 15.8297 56.3305C16.3624 56.0975 16.7809 55.6627 16.9934 55.1215L34.3486 10.6761C34.5607 10.1364 34.5508 9.53475 34.3209 9.00241C34.091 8.47007 33.6599 8.05026 33.1216 7.83464ZM11.4559 47.7758C10.586 47.779 9.7348 47.5237 9.01019 47.0425C8.28558 46.5612 7.72024 45.8755 7.38587 45.0725C7.05151 44.2694 6.96319 43.3851 7.13211 42.5318C7.30104 41.6785 7.71959 40.8945 8.33469 40.2794C8.94979 39.6643 9.73371 39.2458 10.587 39.0769C11.4404 38.908 12.3246 38.9963 13.1277 39.3306C13.9307 39.665 14.6164 40.2304 15.0977 40.955C15.579 41.6796 15.8342 42.5308 15.831 43.4007C15.831 44.561 15.3701 45.6739 14.5496 46.4943C13.7291 47.3148 12.6163 47.7758 11.4559 47.7758Z" fill="#96CA45"/>
<path d="M144.792 45.8547L127.437 1.39315C127.225 0.851948 126.806 0.417138 126.274 0.184092C125.741 -0.0489534 125.138 -0.0612107 124.596 0.150023L111.842 5.12251C111.301 5.33502 110.866 5.75351 110.633 6.28619C110.4 6.81886 110.388 7.42219 110.599 7.96389L127.954 52.4255C128.166 52.9667 128.585 53.4015 129.118 53.6345C129.65 53.8676 130.254 53.8798 130.795 53.6686L143.549 48.6961C144.088 48.4802 144.52 48.0613 144.752 47.5298C144.985 46.9983 144.999 46.3967 144.792 45.8547ZM133.491 45.0798C132.622 45.083 131.772 44.8281 131.047 44.3476C130.323 43.867 129.758 43.1823 129.423 42.3802C129.088 41.5781 128.999 40.6946 129.166 39.8418C129.334 38.9889 129.751 38.2049 130.364 37.5892C130.978 36.9734 131.76 36.5536 132.613 36.3828C133.465 36.2121 134.349 36.2981 135.152 36.63C135.955 36.9619 136.642 37.5247 137.125 38.2472C137.609 38.9697 137.867 39.8193 137.867 40.6885C137.867 41.8448 137.411 42.9545 136.598 43.7766C135.785 44.5987 134.68 45.067 133.524 45.0798H133.491Z" fill="#96CA45"/>
<path d="M41.4846 80.9847C40.6564 80.9839 39.8492 80.7243 39.1759 80.2421C38.7404 79.9375 38.3693 79.5499 38.084 79.1015C37.7986 78.6532 37.6047 78.1529 37.5132 77.6294C37.4217 77.1059 37.4344 76.5695 37.5508 76.0509C37.6671 75.5324 37.8847 75.0419 38.1911 74.6076L44.1968 66.0511C44.5758 65.5226 45.0749 65.0918 45.6532 64.7943C46.2315 64.4967 46.8722 64.3409 47.5226 64.3399C48.3561 64.3384 49.1691 64.5981 49.8474 65.0825C50.7234 65.7004 51.3189 66.6402 51.5035 67.6963C51.6881 68.7523 51.4467 69.8385 50.8322 70.7169L44.8103 79.3702C44.4379 79.9066 43.9405 80.3442 43.3611 80.6452C42.7816 80.9462 42.1375 81.1015 41.4846 81.0977V80.9847Z" fill="#96CA45"/>
<path d="M120.043 53.5394C118.429 53.0066 111.406 47.7758 105.739 43.5298C102.058 40.7691 98.2322 37.9116 94.9387 35.5868C86.7051 29.7587 77.8903 25.3674 74.4354 25.3674H74.1771C72.2976 25.8222 70.54 26.6817 69.027 27.8859C65.1071 30.7072 60.6426 32.6811 55.9178 33.6818C54.852 33.8723 53.7716 33.9695 52.6889 33.9724C49.46 33.9724 46.8608 32.9392 45.7146 31.1471C45.3491 30.5581 45.1409 29.8851 45.1098 29.1926C45.0787 28.5001 45.2258 27.8112 45.537 27.1917C47.4259 23.1395 64.4582 8.25444 70.9643 7.54409C71.2547 7.52713 71.5458 7.52713 71.8362 7.54409C76.4373 7.54409 85.462 10.5954 91.4354 12.6134C93.7062 13.5213 96.0575 14.2132 98.4582 14.6799H98.6196C99.443 14.583 102.64 13.7919 108.129 12.3228L123.143 50.7787C122.239 51.5052 121.189 52.4577 120.043 53.5394Z" fill="#96CA45"/>
<path d="M60.5023 92.5762C59.793 92.5815 59.0994 92.3672 58.5166 91.9627C57.7655 91.4299 57.2556 90.6216 57.0984 89.7142C56.9411 88.8068 57.1491 87.874 57.6771 87.1194L61.7455 81.3559C62.0665 80.9011 62.4923 80.5302 62.9868 80.2745C63.4814 80.0188 64.0301 79.8859 64.5869 79.8868C65.2936 79.882 65.9835 80.1026 66.5565 80.5164C66.9336 80.776 67.2551 81.1084 67.502 81.4939C67.749 81.8794 67.9165 82.3104 67.9947 82.7615C68.0729 83.2126 68.0602 83.6748 67.9574 84.121C67.8546 84.5672 67.6638 84.9883 67.396 85.3597L63.3276 91.1394C63.0092 91.5919 62.5859 91.9605 62.0938 92.2136C61.6017 92.4666 61.0556 92.5966 60.5023 92.5924V92.5762Z" fill="#96CA45"/>
<path d="M80.5055 95.3372C79.261 95.3297 78.0553 94.9031 77.0829 94.1264L69.4627 88.0722L70.0601 87.2165C71.0833 85.7622 71.488 83.9614 71.1854 82.209C70.8827 80.4567 69.8974 78.8959 68.4456 77.869C67.3187 77.068 65.9697 76.639 64.5871 76.642C64.0816 76.6453 63.578 76.7049 63.0857 76.8196C63.1055 76.3218 63.0675 75.8234 62.9727 75.3343C62.6832 73.6335 61.8018 72.0897 60.4842 70.976C59.1665 69.8622 57.4976 69.2501 55.7723 69.2479C55.4391 69.2233 55.1046 69.2233 54.7714 69.2479C54.8763 68.5306 54.8763 67.8019 54.7714 67.0846C54.5841 65.9752 54.1418 64.9246 53.4792 64.0153C52.8167 63.1061 51.952 62.3631 50.9534 61.845C49.9548 61.327 48.8495 61.0478 47.7246 61.0297C46.5997 61.0116 45.486 61.255 44.4713 61.7407C44.1384 60.0416 43.1605 58.5373 41.7429 57.5432L41.3231 57.2365C39.8648 56.2166 38.0626 55.814 36.3089 56.1164C34.5552 56.4187 32.992 57.4016 31.9594 58.8509L29.6992 62.0798C27.2936 59.0931 24.4684 54.9924 22.3696 51.8604L36.8996 14.4055C39.4926 15.5698 42.1972 16.4678 44.9717 17.0855H45.7305C47.1193 17.0384 48.5045 16.9144 49.8796 16.7141H49.9603C46.903 19.2814 44.2522 22.297 42.098 25.6581C41.5576 26.8612 41.3122 28.1759 41.3824 29.4929C41.4526 30.8099 41.8364 32.0911 42.5016 33.2298C44.2614 35.9905 47.797 37.5726 52.1883 37.5726C53.4326 37.5645 54.6744 37.4565 55.9015 37.2498C61.1786 36.2123 66.192 34.1202 70.6413 31.0988C71.8281 30.2979 73.1526 29.7232 74.5482 29.4036C76.8084 29.4036 84.9129 32.6325 92.8075 39.171C100.702 45.7094 122.19 59.7227 122.4 59.868C123.503 60.7097 124.265 61.9207 124.547 63.2789C124.828 64.6371 124.611 66.0514 123.934 67.2621C123.439 68.1089 122.732 68.8119 121.883 69.3017C121.034 69.7915 120.071 70.0513 119.09 70.0551C117.831 70.0644 116.606 69.6429 115.619 68.8604C115.619 68.8604 101.332 57.6724 97.8607 54.9278C97.5341 54.6696 97.1307 54.5276 96.7144 54.5242C96.4591 54.5234 96.2065 54.5761 95.9729 54.679C95.7393 54.7819 95.5299 54.9327 95.3583 55.1216C95.178 55.3054 95.0399 55.5263 94.9535 55.7688C94.8671 56.0113 94.8344 56.2697 94.8578 56.5261C94.8756 56.7788 94.945 57.0252 95.0616 57.2501C95.1782 57.475 95.3396 57.6737 95.5359 57.8338L112.003 70.9753C113.113 71.8234 113.876 73.0456 114.152 74.4145C114.429 75.7834 114.198 77.206 113.505 78.4179C113.091 79.108 112.534 79.7019 111.873 80.1596C111.211 80.6174 110.459 80.9285 109.667 81.0722C108.875 81.2159 108.062 81.1888 107.282 80.9927C106.501 80.7967 105.772 80.4362 105.142 79.9355C105.142 79.9355 90.8701 68.5214 87.5444 65.8253C87.2316 65.5648 86.8375 65.422 86.4304 65.4217C86.1932 65.4216 85.9582 65.4687 85.7393 65.5601C85.5204 65.6516 85.3218 65.7856 85.1551 65.9544C84.9737 66.1328 84.8313 66.3469 84.7368 66.5831C84.6423 66.8193 84.5978 67.0725 84.6061 67.3267C84.6161 67.5778 84.6787 67.8239 84.79 68.0492C84.9012 68.2745 85.0586 68.4739 85.2519 68.6344L99.8948 80.8557C100.501 81.3621 100.994 81.9903 101.342 82.6995C101.689 83.4088 101.884 84.1832 101.913 84.9725C101.949 85.7626 101.817 86.5513 101.524 87.2862C101.232 88.021 100.787 88.6852 100.218 89.2346C99.1872 90.2274 97.8062 90.7729 96.3754 90.7522C94.937 90.7512 93.544 90.2488 92.4361 89.3315L76.9214 76.416C76.5953 76.1439 76.1838 75.9953 75.759 75.9962C75.5187 75.9912 75.2798 76.0359 75.0576 76.1276C74.8353 76.2193 74.6344 76.3559 74.4675 76.529C74.2794 76.7091 74.1329 76.9281 74.0381 77.1707C73.9433 77.4133 73.9025 77.6736 73.9186 77.9335C73.9332 78.1892 74.0011 78.4391 74.1179 78.667C74.2347 78.895 74.3977 79.096 74.5966 79.2574L83.5406 86.3609C84.0921 86.801 84.5452 87.3517 84.8709 87.9775C85.1966 88.6033 85.3877 89.2904 85.4318 89.9946C85.4759 90.6987 85.3721 91.4042 85.127 92.0658C84.8819 92.7274 84.501 93.3303 84.0088 93.8357C83.5567 94.3099 83.0132 94.6875 82.411 94.9456C81.8089 95.2036 81.1606 95.3369 80.5055 95.3372Z" fill="#96CA45"/>
<path d="M51.0262 87.2812C50.1874 87.285 49.3686 87.0253 48.6853 86.5386C47.8025 85.9146 47.2031 84.966 47.0185 83.9007C46.8339 82.8355 47.0792 81.7405 47.7005 80.8558L52.3501 74.2366C52.7314 73.7016 53.2351 73.2657 53.8193 72.9651C54.4035 72.6646 55.0511 72.5083 55.7081 72.5092C56.5416 72.5077 57.3546 72.7674 58.0329 73.2518C58.9183 73.8734 59.5209 74.8208 59.7086 75.8862C59.8962 76.9516 59.6536 78.0479 59.0338 78.9346L54.3681 85.5538C53.9894 86.0875 53.4884 86.5229 52.907 86.8234C52.3256 87.1239 51.6807 87.2809 51.0262 87.2812Z" fill="#96CA45"/>
</svg>
