<svg width="108" height="104" viewBox="0 0 108 104" fill="none" xmlns="http://www.w3.org/2000/svg">
<path d="M89.9956 38.7104C93.119 47.9162 92.8275 57.9382 89.1743 66.9469C85.5211 75.9556 78.7499 83.35 70.0969 87.7802C61.4438 92.2104 51.4861 93.381 42.0416 91.0781C32.5971 88.7753 24.2958 83.1527 18.6531 75.2368C13.0104 67.3209 10.4027 57.6397 11.3061 47.9605C12.2095 38.2814 16.5638 29.25 23.5739 22.515C30.5841 15.7801 39.7826 11.7909 49.4901 11.2756C59.1977 10.7604 68.7668 13.7535 76.4505 19.7085L84.5226 11.7978C74.7295 3.72527 62.3076 -0.460025 49.6261 0.0401707C36.9446 0.540366 24.891 5.69105 15.7642 14.5098C6.63731 23.3286 1.07593 35.1984 0.140763 47.8552C-0.794401 60.5121 2.96207 73.0704 10.6937 83.1348C18.4254 93.1992 29.5911 100.065 42.0614 102.424C54.5317 104.783 67.4338 102.468 78.307 95.9227C89.1802 89.3772 97.2634 79.0583 101.015 66.9341C104.767 54.81 103.925 41.729 98.6489 30.1862L89.9956 38.7104Z" fill="#96CA45"/>
<path d="M47.6165 70.8214L29.8899 47.3959L37.1226 41.923L48.6012 57.0826L101.522 4.74255L107.899 11.1841L47.6165 70.8214Z" fill="#96CA45"/>
</svg>
