<svg width="85" height="85" viewBox="0 0 85 85" fill="none" xmlns="http://www.w3.org/2000/svg">
<path d="M82.3114 72.1407L57.2231 48.6507C61.5417 42.2038 63.3078 34.3809 62.1778 26.7039C61.0478 19.0269 57.1024 12.0447 51.1093 7.11568C45.1162 2.18662 37.5038 -0.336863 29.753 0.0361621C22.0022 0.409188 14.6674 3.65203 9.17527 9.13385C3.68317 14.6157 0.426588 21.9445 0.0390352 29.6945C-0.348518 37.4445 2.16067 45.0617 7.07848 51.064C11.9963 57.0664 18.9711 61.0248 26.6459 62.1692C34.3208 63.3136 42.147 61.5622 48.602 57.2556L72.205 82.2471C72.8584 82.9547 73.6481 83.5231 74.5265 83.9181C75.405 84.3131 76.3542 84.5266 77.3172 84.5458C78.2801 84.5649 79.2371 84.3894 80.1305 84.0297C81.024 83.67 81.8357 83.1335 82.5167 82.4524C83.1978 81.7714 83.7343 80.9597 84.094 80.0663C84.4537 79.1728 84.6292 78.2158 84.61 77.2528C84.5909 76.2899 84.3774 75.3407 83.9824 74.4622C83.5874 73.5838 83.019 72.7941 82.3114 72.1407ZM15.5383 47.0201C12.4284 43.9114 10.3103 39.9503 9.45184 35.6377C8.59337 31.3251 9.03313 26.8548 10.7155 22.7922C12.3978 18.7295 15.2472 15.257 18.9032 12.8139C22.5592 10.3708 26.8577 9.06677 31.2549 9.06677C35.6521 9.06677 39.9505 10.3708 43.6065 12.8139C47.2625 15.257 50.1119 18.7295 51.7942 22.7922C53.4766 26.8548 53.9163 31.3251 53.0579 35.6377C52.1994 39.9503 50.0813 43.9114 46.9714 47.0201C42.8025 51.1873 37.1494 53.5284 31.2549 53.5284C25.3604 53.5284 19.7072 51.1873 15.5383 47.0201Z" fill="white"/>
</svg>
